<?xml version="1.0" standalone="no"?>
<!DOCTYPE svg PUBLIC "-//W3C//DTD SVG 20010904//EN"
 "http://www.w3.org/TR/2001/REC-SVG-20010904/DTD/svg10.dtd">
<svg version="1.0" xmlns="http://www.w3.org/2000/svg"
 width="1200.000000pt" height="1200.000000pt" viewBox="0 0 1200.000000 1200.000000"
 preserveAspectRatio="xMidYMid meet">
<metadata>
Created by potrace 1.11, written by Peter Selinger 2001-2013
</metadata>
<g transform="translate(0.000000,1200.000000) scale(0.100000,-0.100000)"
fill="#000000" stroke="none">
<path d="M5446 11789 c-8 -12 -12 -31 -10 -43 14 -59 29 -334 18 -323 -4 4 -9
15 -10 25 -13 127 -27 182 -45 182 -5 0 -11 0 -14 0 -3 0 -16 11 -28 26 -21
24 -24 25 -39 10 -9 -8 -15 -21 -14 -28 5 -26 18 -84 23 -103 5 -17 3 -17 -14
4 -14 17 -25 22 -41 17 -12 -4 -19 -12 -16 -18 4 -6 1 -9 -7 -6 -8 2 -32 48
-53 102 -33 83 -42 97 -60 94 -29 -4 -26 -47 8 -123 15 -33 22 -54 15 -47 -7
6 -21 12 -31 12 -10 0 -19 -6 -19 -12 -1 -7 -2 -20 -3 -28 -1 -8 4 -22 10 -30
17 -24 24 -49 14 -55 -9 -6 -92 77 -138 139 -30 39 -69 57 -82 36 -14 -22 0
-42 102 -142 54 -53 98 -99 98 -102 0 -19 -48 8 -118 67 -18 15 -42 27 -53 27
-13 0 -19 5 -16 13 8 22 -12 57 -32 57 -26 0 -32 -25 -28 -113 2 -37 1 -70 -2
-72 -2 -3 -16 2 -30 12 -14 9 -42 15 -63 15 -31 -2 -38 2 -39 18 -4 67 -35
104 -65 79 -14 -11 -10 -53 7 -74 23 -30 103 -289 95 -309 -2 -6 -5 -3 -5 6
-1 17 -7 33 -55 139 -24 54 -47 76 -67 64 -4 -3 -20 2 -35 12 -25 16 -27 16
-40 -1 -11 -16 -9 -27 17 -77 16 -33 25 -59 19 -59 -5 0 -10 4 -10 9 0 15 -32
22 -46 10 -15 -12 -11 -42 10 -69 6 -9 -6 2 -26 25 -25 27 -38 51 -40 75 -3
30 -7 35 -28 35 -18 0 -31 10 -48 37 -22 35 -48 45 -68 25 -12 -11 5 -53 36
-88 16 -19 30 -37 30 -41 0 -5 0 -10 0 -13 0 -3 -3 -5 -7 -6 -24 -2 -31 -21
-20 -54 6 -19 7 -38 4 -42 -14 -13 -53 19 -63 50 -6 22 -16 33 -31 35 -13 2
-23 -1 -23 -7 0 -29 -57 16 -64 50 -7 39 -17 57 -33 64 -31 11 -48 -30 -31
-75 12 -30 57 -240 52 -240 -2 0 -13 18 -24 40 -11 22 -18 40 -15 40 3 0 -2
11 -11 25 -10 15 -26 25 -40 25 -21 0 -24 -4 -19 -30 3 -17 1 -30 -5 -30 -5 0
-10 5 -10 11 0 6 -6 16 -12 24 -7 7 -25 34 -40 59 -31 53 -53 65 -74 44 -13
-13 -11 -21 21 -64 19 -27 38 -56 42 -64 4 -8 9 -17 13 -20 3 -3 20 -28 38
-57 32 -53 28 -85 -5 -38 -40 58 -63 76 -83 65 -10 -5 -32 -7 -48 -4 -59 12
-50 -25 28 -118 24 -29 33 -44 20 -32 -41 34 -50 37 -70 19 -16 -14 -17 -22
-8 -38 12 -24 -96 59 -136 104 -31 34 -51 37 -66 9 -9 -17 -6 -25 22 -53 18
-18 62 -55 98 -83 84 -64 100 -78 80 -68 -8 4 -28 17 -45 29 -41 30 -65 37
-80 25 -20 -16 -6 -48 26 -62 16 -7 29 -16 29 -19 0 -4 11 -10 25 -13 14 -4
25 -11 25 -16 0 -5 -21 -2 -47 6 -27 8 -66 19 -88 25 -22 6 -46 16 -54 22 -8
7 -17 11 -20 10 -3 -2 -20 2 -38 8 -32 10 -73 -1 -73 -20 0 -16 42 -45 68 -48
15 -2 34 -6 42 -10 8 -3 22 -7 30 -9 8 -2 23 -7 35 -13 11 -5 52 -17 90 -27
123 -30 117 -33 -45 -23 -25 1 -49 5 -55 9 -5 3 -16 5 -22 4 -7 -1 -19 -2 -27
-3 -20 -2 -29 -32 -14 -47 13 -13 81 -21 201 -27 31 -1 57 -5 57 -8 0 -6 -126
-37 -183 -46 -17 -2 -43 -7 -57 -9 -14 -3 -49 -7 -79 -9 -57 -3 -76 -18 -60
-47 12 -22 46 -23 154 -4 187 33 352 80 459 131 55 27 64 24 112 -27 27 -28
56 -88 59 -123 0 -5 7 -30 14 -54 18 -61 9 -60 -23 4 -29 59 -55 82 -74 63
-17 -17 -14 -39 8 -68 11 -14 20 -29 20 -33 0 -7 -61 63 -105 121 -31 41 -55
61 -69 56 -31 -12 -23 -36 39 -113 36 -44 65 -85 65 -91 0 -5 3 -10 8 -10 11
0 95 -140 88 -147 -3 -4 -6 -2 -6 4 0 10 -36 56 -104 130 -37 41 -68 54 -81
33 -4 -7 -12 -7 -25 0 -10 5 -26 7 -34 4 -30 -12 -16 -48 42 -108 31 -33 44
-50 28 -38 -55 42 -98 13 -54 -37 19 -22 20 -23 2 -8 -11 9 -26 17 -32 17 -7
0 -12 5 -12 10 0 6 -6 10 -12 10 -7 0 -36 18 -65 39 -83 64 -113 72 -113 30 0
-18 98 -99 120 -99 5 0 10 -5 10 -11 0 -5 -4 -8 -9 -5 -4 3 -16 0 -26 -8 -27
-19 -6 -47 64 -85 34 -18 61 -34 61 -35 0 -4 -98 18 -212 49 -68 18 -95 22
-105 14 -29 -24 -7 -52 48 -63 13 -2 56 -12 94 -21 39 -9 80 -18 92 -20 12 -2
36 -7 55 -11 31 -8 29 -9 -27 -14 -33 -3 -80 -2 -104 3 -35 5 -48 3 -63 -10
-17 -15 -17 -17 -2 -35 15 -16 34 -18 148 -19 81 0 121 -4 106 -9 -30 -9 -201
-61 -215 -64 -25 -7 -91 -20 -105 -21 -8 -1 -23 -2 -32 -3 -21 -2 -24 -35 -5
-49 15 -12 36 -10 117 12 36 9 72 18 80 20 47 9 262 84 302 105 14 8 29 -9 86
-93 63 -93 150 -235 181 -297 7 -14 -22 9 -65 51 -44 42 -106 98 -139 124 -33
26 -62 51 -65 55 -20 28 -81 38 -99 16 -9 -11 -6 -21 15 -45 14 -17 31 -31 37
-31 20 0 218 -175 272 -241 l20 -24 -20 15 c-11 8 -22 17 -25 20 -4 4 -83 56
-165 108 -11 7 -32 18 -47 25 -16 6 -28 15 -28 19 0 4 -4 8 -9 8 -16 0 -181
80 -181 88 0 11 -53 31 -78 29 -31 -2 -41 -43 -16 -62 11 -8 30 -18 44 -21 61
-16 380 -188 380 -205 0 -7 -131 29 -183 50 -39 15 -63 14 -82 -5 -15 -16 -29
-16 -145 1 -19 2 -53 7 -75 9 -49 6 -86 14 -91 19 -2 2 -6 30 -9 63 -3 32 -7
68 -9 79 -12 56 -35 143 -44 165 -5 14 -10 27 -10 30 -1 11 -15 49 -61 169
-35 94 -52 126 -69 132 -16 6 -24 4 -32 -11 -8 -15 -4 -29 20 -67 32 -52 113
-269 107 -287 -2 -6 -11 3 -19 19 -21 40 -105 148 -123 158 -8 4 -24 3 -35 -3
-19 -10 -19 -13 -5 -40 9 -17 19 -30 24 -30 5 0 26 -26 47 -57 22 -32 43 -61
49 -65 5 -4 7 -9 4 -12 -3 -4 -19 9 -36 26 -16 18 -54 53 -84 78 -30 25 -68
59 -85 77 -32 32 -60 43 -81 30 -9 -6 -10 -14 -1 -32 6 -14 14 -25 18 -25 3 0
29 -19 56 -42 28 -24 69 -59 92 -78 54 -45 61 -65 14 -37 -20 11 -39 24 -42
28 -10 13 -60 16 -70 4 -17 -21 0 -43 53 -69 79 -38 50 -31 -76 19 -124 49
-139 52 -156 32 -19 -24 9 -45 109 -81 117 -42 246 -102 256 -118 6 -10 4 -10
-7 -2 -20 16 -173 64 -202 64 -26 0 -52 -22 -40 -33 3 -4 -5 -7 -19 -7 -14 0
-31 -6 -37 -13 -18 -22 8 -46 67 -59 55 -13 65 -22 32 -31 -21 -5 -27 -31 -10
-42 6 -3 10 -11 10 -16 0 -12 -131 -10 -165 2 -29 10 -65 -7 -65 -30 0 -27 6
-30 93 -33 42 -1 77 -6 77 -10 0 -4 -4 -8 -9 -8 -17 0 -20 -30 -4 -45 12 -13
28 -15 81 -9 68 7 81 -7 20 -21 -18 -4 -35 -9 -38 -10 -3 -1 -18 -7 -33 -13
-16 -7 -31 -12 -34 -12 -3 0 -36 -9 -73 -20 -50 -15 -69 -26 -73 -40 -7 -28
23 -43 60 -29 15 6 75 28 133 49 58 21 122 45 143 54 20 9 37 15 37 13 0 -7
-105 -74 -156 -100 -68 -35 -79 -49 -54 -72 18 -17 21 -16 77 15 32 18 78 47
103 65 69 49 76 52 53 19 -39 -54 -124 -149 -190 -211 -44 -42 -64 -67 -60
-77 12 -30 49 -17 95 34 l45 49 30 -21 c30 -22 133 -123 195 -191 35 -40 27
-49 -16 -19 -51 35 -141 81 -166 86 -18 3 -29 -1 -35 -13 -13 -24 -2 -38 46
-55 22 -8 59 -26 82 -40 22 -14 45 -26 51 -26 5 0 10 -5 10 -11 0 -7 -7 -8
-17 -4 -40 18 -172 62 -218 74 -78 20 -82 20 -100 7 -25 -18 -8 -44 39 -57 22
-6 88 -26 146 -45 l105 -34 -67 5 c-51 4 -70 2 -82 -10 -25 -26 -4 -53 37 -46
5 1 6 -2 3 -7 -2 -4 -41 -9 -86 -10 -89 -3 -120 -15 -113 -43 5 -19 34 -30 66
-23 42 9 318 13 313 5 -3 -4 -20 -8 -38 -9 -125 -5 -168 -18 -168 -51 0 -9 -9
-22 -20 -29 -23 -14 -27 -47 -7 -55 8 -3 40 1 73 9 75 17 86 17 52 -2 -16 -8
-28 -17 -28 -20 0 -19 24 -44 43 -44 24 0 -137 -70 -163 -70 -25 -1 -52 -27
-48 -47 5 -23 57 -22 113 3 56 25 62 25 58 -1 -8 -38 29 -37 104 2 l68 35 -83
-81 c-45 -44 -98 -92 -117 -107 -51 -39 -48 -82 5 -74 8 1 66 53 129 116 63
63 116 114 118 114 7 0 -70 -115 -98 -148 -30 -34 -34 -48 -20 -70 13 -21 53
4 80 50 13 23 28 47 33 52 5 6 24 36 43 66 37 58 40 60 26 14 -6 -16 -21 -68
-35 -115 l-26 -85 -47 0 c-42 1 -48 -2 -51 -21 -3 -17 3 -24 25 -28 56 -13 57
-14 41 -33 -23 -27 -28 -49 -14 -67 18 -25 51 -5 66 40 l11 34 42 -15 c123
-46 207 -82 207 -89 0 -2 -6 -2 -12 0 -20 7 -77 14 -154 21 -84 7 -120 -5
-104 -36 10 -18 28 -20 209 -22 47 0 4 -17 -51 -20 -32 -2 -58 -7 -58 -11 0
-5 -4 -5 -10 -2 -13 8 -179 -22 -196 -35 -16 -14 -8 -37 15 -45 10 -3 51 2 92
10 41 9 106 18 144 20 l70 5 -54 -20 c-64 -24 -81 -36 -81 -61 0 -18 10 -23
38 -20 28 4 8 -16 -40 -39 -28 -14 -62 -33 -75 -43 -26 -21 -30 -52 -8 -61 18
-7 65 13 65 27 0 6 3 7 6 4 4 -4 19 2 33 12 33 24 218 116 251 126 14 4 -15
-18 -65 -49 -98 -62 -132 -93 -116 -109 7 -7 5 -19 -4 -37 -11 -22 -12 -30 -2
-38 19 -16 26 -15 62 12 18 14 38 26 44 26 6 0 11 4 11 8 0 4 15 16 33 26 l32
19 -34 -30 c-26 -23 -32 -34 -27 -51 9 -27 37 -28 61 -2 10 11 22 20 26 20 10
0 -42 -61 -118 -137 -60 -61 -77 -96 -50 -106 28 -10 71 29 200 182 15 18 27
28 27 23 0 -5 -18 -30 -41 -55 -26 -31 -39 -54 -37 -68 7 -47 52 -23 103 55
10 15 19 25 22 23 4 -5 -71 -200 -93 -239 -16 -30 -18 -64 -5 -72 19 -12 43 8
62 53 11 25 27 60 34 76 8 17 28 71 45 120 l31 90 -5 -60 c-7 -71 -13 -106
-26 -140 -7 -18 -7 -33 0 -46 26 -47 63 -5 76 86 4 33 9 65 10 70 1 6 2 27 3
48 2 54 17 45 26 -15 5 -29 9 -55 10 -58 5 -17 19 -145 20 -195 3 -79 2 -75
24 -75 34 0 44 25 38 98 -9 98 -15 148 -26 211 -6 31 -13 70 -16 87 -8 49 -55
205 -75 251 -18 41 -18 43 -1 55 10 7 47 38 82 69 35 31 100 87 144 124 44 38
87 76 96 84 67 64 199 176 199 168 0 -2 -42 -47 -93 -98 -106 -108 -188 -198
-210 -233 -9 -13 -39 -46 -67 -74 -41 -39 -52 -57 -53 -83 -2 -28 2 -35 19
-37 24 -3 40 12 135 128 77 95 196 226 262 289 62 59 157 135 161 130 2 -2
-48 -67 -111 -144 -169 -207 -167 -205 -180 -241 -10 -28 -9 -35 7 -49 18 -17
21 -16 47 12 15 16 39 48 52 71 13 22 34 52 45 66 12 14 34 44 50 66 17 22 35
40 40 39 6 0 5 -3 -1 -6 -7 -2 -13 -9 -13 -13 0 -13 -110 -171 -156 -225 -51
-61 -54 -65 -54 -102 0 -28 4 -33 23 -33 23 0 59 31 69 60 3 8 43 70 89 136
46 67 90 130 96 140 11 16 4 -6 -35 -106 -3 -8 -16 -31 -28 -50 -33 -51 -37
-87 -12 -104 30 -21 51 -6 77 56 12 29 26 62 31 73 5 11 23 54 40 95 45 110
29 18 -26 -150 -14 -41 -28 -84 -33 -95 -5 -11 -25 -63 -45 -115 -20 -52 -47
-112 -61 -133 -34 -49 -32 -100 3 -105 16 -3 29 4 40 19 19 28 111 252 143
347 12 37 24 72 28 77 3 6 6 15 7 20 5 28 47 171 51 175 5 5 -2 -67 -12 -125
-10 -57 -47 -190 -60 -220 -32 -71 -29 -105 10 -105 28 0 72 53 67 81 -1 3 6
30 14 60 8 30 17 65 20 79 3 14 7 32 9 40 2 8 4 25 4 38 1 12 5 22 9 22 11 0
12 -19 15 -233 2 -103 -1 -222 -6 -264 -9 -83 1 -123 33 -123 34 0 41 27 46
157 6 171 5 382 -1 413 -3 14 -7 50 -10 81 -2 30 -7 64 -11 75 -5 12 -4 16 3
9 11 -11 42 -111 72 -230 25 -102 32 -139 36 -197 2 -40 -1 -49 -21 -63 -36
-23 -47 -50 -29 -69 17 -16 43 -11 60 11 6 7 19 15 31 17 11 2 35 18 53 34 18
16 55 40 82 52 70 33 80 16 24 -43 -53 -57 -67 -80 -59 -101 9 -23 37 -20 54
5 39 57 63 80 73 70 7 -7 6 -15 -4 -27 -14 -17 -33 -48 -45 -74 -4 -8 -20 -34
-36 -57 -31 -46 -36 -81 -12 -90 24 -9 59 36 94 120 15 34 37 35 52 2 22 -49
60 -23 78 53 7 29 14 51 16 49 3 -2 0 -24 -5 -48 -39 -173 -42 -218 -19 -233
31 -19 40 -1 53 105 4 30 9 58 12 62 3 5 6 18 7 30 5 42 38 172 47 181 5 6 7
1 5 -10 -10 -52 -18 -124 -20 -169 -1 -43 2 -51 22 -60 12 -5 22 -15 22 -21 0
-21 30 -39 47 -28 17 11 21 23 25 96 3 43 18 59 18 18 0 -10 6 -20 13 -23 20
-7 44 16 42 41 -1 12 2 22 7 22 4 0 8 -12 8 -27 0 -26 -10 -41 -73 -113 -98
-111 -165 -210 -161 -237 1 -7 2 -17 3 -23 2 -17 47 -11 63 8 8 9 25 35 37 57
27 47 133 183 144 184 4 1 7 -17 7 -38 0 -52 8 -71 30 -71 38 0 44 34 25 138
-5 31 -4 32 21 26 31 -8 44 7 44 53 0 45 16 49 35 10 15 -32 15 -36 -9 -83
-74 -151 -90 -216 -58 -232 9 -5 23 -7 30 -5 16 6 42 56 42 82 0 11 11 46 25
78 l26 57 20 -42 c20 -40 20 -44 5 -114 -8 -40 -18 -93 -21 -118 -4 -25 -11
-61 -17 -80 -13 -46 -8 -80 14 -94 29 -18 55 19 62 89 4 33 18 114 32 180 14
66 27 129 29 140 2 11 15 54 29 95 l25 75 -1 -158 c-1 -143 0 -159 17 -171 20
-14 45 -11 57 8 4 6 5 80 1 164 -5 127 -3 152 9 152 9 0 14 -12 14 -37 1 -38
10 -135 18 -183 3 -14 8 -47 11 -75 4 -27 9 -61 11 -75 3 -14 6 -49 9 -77 5
-64 24 -107 49 -111 32 -6 45 22 34 71 -12 53 -14 61 -23 122 -5 28 -9 57 -10
65 -2 8 -6 40 -9 70 -4 30 -9 69 -12 85 -9 52 -12 339 -3 360 l8 20 1 -20 c2
-26 5 -50 14 -100 4 -22 11 -67 16 -100 6 -33 12 -71 15 -85 9 -38 35 -171 35
-176 0 -2 11 -11 25 -20 46 -30 70 17 43 83 -6 15 -12 33 -13 38 -2 6 -7 28
-13 50 -6 22 -13 58 -16 80 -4 22 -8 54 -11 70 -4 27 -3 26 9 -7 8 -20 17 -50
20 -65 3 -15 15 -64 26 -108 11 -44 22 -97 24 -119 3 -21 12 -49 21 -62 17
-26 49 -32 61 -12 10 15 7 65 -5 87 -9 15 -91 326 -91 339 1 10 71 -140 75
-158 2 -8 4 -20 4 -27 1 -16 45 -63 59 -63 18 0 41 29 37 48 -1 9 -32 77 -68
150 -65 133 -63 156 3 45 19 -32 37 -60 40 -63 8 -8 57 -96 123 -222 66 -124
80 -172 66 -215 -14 -44 -5 -83 21 -83 18 0 26 14 35 59 2 12 11 28 20 37 10
10 15 30 14 53 -2 33 64 231 77 231 3 0 3 -8 0 -17 -3 -10 -8 -62 -10 -115 -4
-84 -2 -100 13 -120 15 -18 21 -20 33 -10 12 9 15 34 13 112 -1 55 2 100 6
100 5 0 10 -8 10 -17 2 -36 8 -76 18 -126 6 -29 13 -74 17 -102 3 -27 10 -58
15 -67 21 -39 65 -5 49 37 -5 12 -10 35 -13 51 -11 64 -28 160 -32 182 -10 43
14 22 33 -30 23 -61 43 -78 66 -59 20 17 20 40 0 62 -9 10 -14 23 -12 29 2 7
28 -31 57 -84 54 -97 83 -128 98 -104 15 24 11 40 -18 83 -16 23 -29 46 -29
51 0 4 -6 15 -14 23 -20 23 -109 202 -103 208 3 2 11 -6 18 -19 56 -108 127
-185 145 -157 3 5 12 2 21 -6 21 -21 47 -15 51 13 2 14 -13 44 -44 85 -26 34
-36 52 -22 40 26 -25 67 -31 69 -10 3 28 -4 43 -29 65 l-27 24 33 -22 c19 -12
64 -51 100 -87 79 -77 107 -97 122 -88 32 20 -19 91 -122 169 -21 16 -38 33
-38 39 0 6 9 2 20 -9 37 -37 48 -43 69 -37 37 10 23 39 -41 87 -34 25 -59 46
-56 46 3 0 43 -14 89 -31 46 -17 98 -36 114 -41 17 -6 39 -17 50 -25 42 -28
96 0 63 33 -14 15 -178 76 -278 105 l-65 19 65 -5 c36 -3 76 -7 90 -10 106
-18 107 -18 114 1 8 21 -11 43 -45 49 -34 7 -131 17 -151 17 -10 -1 -18 5 -18
13 0 17 15 21 105 34 140 21 163 21 169 5 8 -20 48 -34 63 -22 16 13 7 67 -15
92 -39 44 -159 356 -212 549 -15 55 -16 68 -5 53 8 -11 15 -23 15 -28 0 -12
105 -162 183 -261 72 -91 108 -117 134 -95 23 19 6 57 -50 113 -50 49 -153
193 -217 305 l-31 55 58 -65 c82 -92 165 -172 263 -254 47 -39 108 -91 135
-117 56 -52 89 -67 110 -49 30 25 15 49 -62 110 -132 103 -137 108 -163 130
-38 33 -153 144 -175 169 -16 19 -10 17 40 -11 33 -18 74 -40 90 -48 17 -8 41
-24 55 -36 31 -28 85 -37 100 -19 25 30 0 54 -124 114 -110 53 -239 131 -251
152 -3 4 20 -6 50 -23 79 -42 215 -100 325 -138 102 -34 131 -45 170 -65 14
-7 39 -16 57 -19 25 -6 34 -3 47 15 23 34 -6 62 -75 74 -19 3 -38 10 -43 16
-6 5 -17 9 -25 9 -13 0 -189 61 -256 90 -44 18 -240 114 -245 119 -3 3 -17 12
-32 20 -16 8 -28 18 -28 23 0 5 8 5 18 0 24 -13 314 -111 337 -115 11 -1 25
-6 32 -10 23 -15 93 -19 108 -7 38 31 -2 80 -65 80 -19 1 -60 9 -90 20 -30 11
-62 20 -70 20 -8 1 -28 7 -45 15 -27 13 -27 14 -5 10 81 -13 252 -56 282 -71
29 -15 77 -18 94 -6 6 4 13 15 17 24 10 28 -36 51 -143 72 -65 13 -250 62
-255 68 -8 8 100 2 171 -10 78 -13 121 16 86 57 -15 18 -32 20 -169 24 -84 1
-155 5 -158 8 -3 3 1 6 8 6 6 0 50 4 97 9 76 7 408 8 517 2 49 -3 63 6 41 28
-24 25 -509 24 -637 -1 -11 -2 -21 0 -21 4 0 8 34 17 105 28 17 2 41 7 55 9
14 3 68 7 120 9 115 5 136 10 145 32 12 32 -31 56 -90 49 -27 -4 -79 -9 -115
-12 -36 -3 -82 -9 -102 -14 -21 -4 -38 -5 -38 -1 0 5 48 29 70 35 3 1 10 4 15
8 18 11 213 88 224 88 6 0 19 4 29 9 17 10 111 41 135 45 83 15 131 77 72 92
-29 7 -37 5 -123 -31 l-64 -27 -15 21 c-8 12 -20 21 -27 21 -22 0 -28 31 -10
51 10 11 13 25 9 39 -6 20 -12 22 -54 17 -46 -6 -46 -6 -88 46 -48 60 -39 81
16 36 20 -16 40 -29 46 -29 5 0 21 -9 35 -20 30 -23 68 -26 76 -5 9 22 -9 39
-71 71 -60 30 -108 72 -70 61 11 -3 65 -22 120 -42 158 -57 157 -57 175 -40
25 26 1 45 -100 80 -53 17 -109 39 -125 48 -30 16 -30 16 -5 18 14 1 30 0 35
-1 68 -16 103 24 48 54 -32 17 -35 17 77 20 103 4 97 3 104 21 13 35 -17 42
-181 40 -87 0 -171 2 -188 6 l-30 7 30 2 c17 1 61 4 98 6 76 5 111 18 103 40
-3 7 3 18 13 24 25 13 35 41 19 52 -12 8 -69 5 -125 -6 -29 -6 -29 1 -1 23 26
21 19 48 -14 53 -16 2 4 13 62 33 47 16 94 30 105 32 46 8 59 54 18 65 -11 3
-50 -5 -89 -18 -82 -28 -91 -29 -69 -8 46 47 -31 58 -104 15 -28 -17 -51 -28
-51 -25 0 8 82 84 135 124 103 79 111 87 99 106 -18 30 -30 27 -81 -18 -28
-24 -73 -62 -101 -86 -28 -23 -67 -59 -86 -78 -20 -20 -36 -33 -36 -30 0 11
80 118 110 149 38 38 44 66 17 76 -18 7 -28 2 -50 -23 -28 -30 -95 -117 -129
-166 l-17 -25 9 30 c30 106 92 265 116 299 17 25 18 63 2 69 -23 8 -48 -13
-67 -56 -35 -80 -108 -272 -117 -307 -2 -8 -10 -39 -18 -69 -8 -29 -18 -79
-22 -110 -5 -31 -9 -59 -10 -63 -1 -5 -2 -17 -3 -27 -1 -15 -13 -22 -53 -30
-63 -13 -92 -20 -115 -25 -129 -31 -496 -107 -499 -104 -2 2 26 36 61 75 65
71 73 94 38 107 -14 6 -77 -51 -118 -106 -78 -103 -68 -97 -203 -123 -13 -2
-31 -6 -40 -9 -20 -6 -67 -16 -99 -21 -11 -2 -30 -6 -41 -9 -11 -4 -31 -9 -44
-11 -13 -3 -63 -14 -113 -24 -482 -106 -465 -104 -517 -73 -35 20 -68 70 -68
102 0 17 -4 20 -17 15 -26 -11 -81 -18 -97 -12 -11 4 -11 16 0 74 7 37 15 86
18 108 4 21 19 60 33 85 15 25 43 74 62 110 20 36 65 118 100 183 l64 117 36
-6 c20 -4 43 -10 51 -14 14 -7 76 -18 145 -26 17 -1 57 -6 90 -10 99 -13 447
-9 473 5 50 27 7 80 -48 58 -21 -8 -310 -11 -392 -4 -46 4 -41 15 11 22 74 10
228 58 252 79 19 16 20 19 5 35 -19 21 -45 21 -77 -1 -14 -8 -40 -19 -59 -24
-19 -4 -39 -9 -45 -10 -49 -14 -96 -25 -125 -29 -26 -4 -19 1 29 20 35 14 70
30 77 36 6 5 22 12 35 14 12 3 25 8 28 12 9 12 77 50 148 83 63 29 89 63 62
81 -21 14 -50 3 -115 -40 -69 -46 -198 -116 -234 -126 -18 -6 -11 5 30 41 102
91 102 92 90 114 -16 31 -43 18 -119 -57 -36 -35 -75 -69 -85 -75 -10 -6 13
22 53 62 39 40 71 73 71 75 0 4 60 73 90 104 38 40 52 71 39 87 -17 20 -46 17
-62 -6 -44 -63 -227 -259 -296 -318 -59 -49 -56 -42 20 48 122 146 151 202
113 217 -9 3 -13 12 -9 22 13 32 14 51 2 58 -32 20 -43 11 -122 -102 -65 -94
-77 -104 -40 -34 29 56 33 68 22 84 -27 36 -53 13 -93 -83 -27 -65 -27 -44 0
34 53 149 81 218 102 244 38 47 6 113 -35 76 -12 -11 -21 -23 -21 -28 0 -5
-14 -44 -31 -86 -17 -43 -46 -120 -65 -172 -18 -52 -33 -86 -33 -75 0 11 11
52 25 90 35 93 41 140 20 148 -27 11 -50 -28 -70 -118 -21 -97 -33 -115 -30
-47 2 50 4 63 29 217 9 55 18 111 20 125 4 30 15 95 21 123 5 27 5 27 60 32
135 13 305 57 454 115 30 12 65 24 77 27 27 6 63 39 63 59 0 26 -27 26 -82 0
-70 -33 -276 -105 -283 -98 -2 3 28 27 68 54 99 69 108 78 105 107 -5 39 -34
38 -70 -3 -17 -20 -36 -36 -41 -36 -4 0 -15 -6 -22 -12 -72 -64 -88 -58 -23 8
37 38 80 85 95 104 15 20 38 46 51 58 14 14 22 32 20 45 -6 43 -34 29 -106
-55 -39 -46 -87 -99 -107 -118 l-37 -35 37 63 c26 45 35 70 31 87 -9 35 -42
28 -61 -12 -9 -18 -18 -33 -20 -33 -5 0 40 128 59 165 18 36 11 74 -12 70 -10
-2 -20 -4 -23 -4 -4 -1 -11 -13 -17 -28 -63 -172 -140 -348 -148 -341 -2 2 8
35 22 73 25 67 29 80 41 133 6 24 -13 55 -28 46 -6 -3 -8 6 -5 20 2 14 -1 30
-9 36 -11 9 -20 6 -40 -16 -14 -15 -24 -33 -21 -41 3 -7 1 -15 -5 -18 -5 -4
-7 -10 -4 -14 2 -5 -2 -17 -10 -27 -9 -10 -15 -14 -14 -9 4 31 -3 45 -21 45
-11 0 -23 -7 -26 -15 -10 -25 -22 -17 -19 13 17 171 16 201 -4 212 -17 8 -22
6 -32 -12 -7 -13 -13 -45 -15 -73 -1 -27 -3 -68 -4 -90 l-2 -40 -8 33 c-10 43
-14 46 -40 32 -19 -10 -21 -17 -16 -88 4 -55 2 -72 -5 -59 -10 16 -45 115 -53
147 -2 8 -10 38 -17 65 -6 28 -16 56 -22 63 -14 18 -45 15 -51 -6 -6 -16 77
-277 105 -336 15 -30 -26 20 -43 54 -7 14 -15 27 -18 30 -3 3 -16 26 -29 53
-29 56 -45 71 -67 63 -20 -8 -16 -53 8 -85 10 -13 18 -28 18 -32 0 -5 15 -31
33 -57 19 -26 39 -58 47 -72 l13 -25 -24 20 c-109 93 -199 179 -219 208 -33
49 -55 61 -74 41 -13 -12 -14 -20 -5 -36 14 -25 116 -127 201 -200 34 -29 68
-58 76 -65 7 -7 26 -20 42 -30 37 -22 44 -39 25 -66 -8 -12 -15 -27 -15 -34 0
-14 -70 -126 -82 -131 -5 -2 -8 -10 -8 -18 0 -8 -4 -14 -9 -14 -5 0 -19 -16
-31 -35 -19 -31 -23 -33 -46 -23 -32 15 -43 0 -38 -48 2 -27 -5 -44 -44 -91
-62 -78 -151 -168 -125 -128 20 32 25 42 71 145 23 51 69 176 77 210 1 3 7 18
13 33 15 35 15 53 2 78 -26 47 -81 -4 -86 -79 -2 -39 -70 -212 -131 -332 -47
-95 -52 -98 -24 -17 31 89 64 262 86 442 11 92 14 112 23 136 10 25 5 88 -7
90 -3 0 -14 2 -24 4 -28 5 -45 -33 -52 -120 -9 -119 -22 -228 -32 -269 -2 -12
-6 -32 -7 -46 -4 -44 -29 -151 -33 -146 -5 4 -11 79 -17 197 -2 42 -7 86 -10
97 -8 24 -43 39 -57 25 -16 -16 -27 -69 -18 -84 4 -9 11 -46 14 -85 4 -38 9
-72 12 -76 2 -5 -1 -8 -6 -8 -6 0 -11 8 -11 18 0 9 -10 44 -21 77 -30 90 -69
244 -74 294 -3 24 -10 49 -16 57 -15 18 -7 28 49 60 110 63 389 325 418 391
17 40 17 40 -2 47 -18 7 -64 -18 -64 -34 0 -9 -174 -188 -219 -225 l-25 -20
22 32 c12 17 22 36 22 41 0 6 3 12 8 14 4 2 22 33 40 69 28 56 32 70 23 88 -7
12 -16 21 -21 21 -15 0 -50 -38 -50 -55 0 -19 -62 -135 -73 -135 -4 0 -3 8 2
18 15 29 84 265 83 286 -1 26 -15 38 -34 31 -14 -6 -25 -30 -34 -75 -13 -67
-58 -210 -65 -203 -4 4 -4 26 0 49 9 46 0 78 -23 87 -21 8 -38 -26 -32 -63 2
-17 0 -32 -5 -36 -5 -3 -8 5 -8 18 1 13 -2 63 -5 112 -8 111 -27 142 -60 95z
m79 -268 c3 -5 2 -12 -3 -15 -5 -3 -9 1 -9 9 0 17 3 19 12 6z m-331 -27 c3 -8
2 -12 -4 -9 -6 3 -10 10 -10 16 0 14 7 11 14 -7z m263 -99 c0 -8 -4 -12 -9 -9
-5 3 -6 10 -3 15 9 13 12 11 12 -6z m-504 -7 c21 -16 18 -73 -3 -73 -10 0 -17
14 -21 43 -6 45 -2 49 24 30z m1461 -34 c3 -8 2 -12 -4 -9 -6 3 -10 10 -10 16
0 14 7 11 14 -7z m257 -71 c-12 -20 -14 -14 -5 12 4 9 9 14 11 11 3 -2 0 -13
-6 -23z m-1485 -89 c21 -3 41 -7 44 -9 3 -2 46 -6 95 -10 50 -4 92 -9 95 -11
4 -4 74 -232 85 -277 2 -10 7 -27 10 -37 7 -22 9 -30 29 -150 19 -110 27 -270
15 -270 -5 0 -10 7 -10 15 -1 8 -2 18 -3 23 -1 4 -5 23 -9 42 -12 62 -15 74
-38 155 -12 44 -29 108 -39 143 -19 74 -51 113 -78 96 -23 -15 -27 -60 -8 -89
8 -12 27 -65 42 -116 15 -52 29 -101 32 -109 3 -10 2 -12 -5 -5 -13 12 -90
232 -98 277 -12 65 -46 105 -79 92 -23 -9 -24 -44 -3 -99 10 -27 25 -70 33
-95 8 -25 19 -53 24 -62 6 -10 10 -26 10 -36 0 -10 5 -23 12 -30 7 -7 9 -12 5
-12 -4 0 -1 -12 6 -27 36 -71 24 -70 -17 1 -25 43 -46 82 -46 86 0 5 -8 22
-17 39 -17 29 -54 48 -73 36 -16 -10 -11 -71 8 -96 9 -13 22 -33 29 -44 114
-190 114 -190 82 -155 -17 19 -43 51 -58 70 -14 19 -28 37 -31 40 -10 9 -100
141 -100 146 0 3 -10 20 -23 37 -12 18 -27 41 -34 52 -45 74 -63 109 -63 122
0 8 -14 28 -30 45 l-30 30 25 31 c14 18 29 37 33 42 4 6 27 39 51 73 36 54 46
63 65 58 13 -3 41 -8 62 -12z m-556 -59 c0 -5 -5 -3 -10 5 -5 8 -10 20 -10 25
0 6 5 3 10 -5 5 -8 10 -19 10 -25z m1741 -119 c24 -13 43 -27 42 -32 -1 -5 -4
-29 -8 -54 -4 -25 -15 -53 -26 -63 -10 -10 -19 -23 -20 -30 0 -7 -2 -55 -3
-107 -2 -52 -7 -122 -11 -155 -5 -33 -9 -63 -9 -67 -1 -3 -4 -9 -7 -13 -6 -5
-17 36 -24 95 -2 14 -7 46 -10 73 -3 26 -10 47 -15 47 -5 0 -15 2 -22 5 -40
16 -30 -96 30 -327 6 -21 8 -38 6 -38 -6 0 -104 170 -104 180 0 6 -4 10 -10
10 -5 0 -10 6 -10 13 0 6 -16 43 -35 80 l-35 69 33 45 c151 214 187 268 187
282 0 15 0 15 51 -13z m-2256 -28 l16 -33 -20 25 c-20 24 -26 40 -16 40 2 0
12 -15 20 -32z m29 -54 c3 -8 2 -12 -4 -9 -6 3 -10 10 -10 16 0 14 7 11 14 -7z
m776 -6 c0 -7 31 -59 68 -115 37 -57 80 -124 96 -150 42 -68 160 -226 187
-252 12 -11 20 -23 17 -26 -14 -14 -196 193 -253 287 -15 25 -28 34 -53 36
-25 3 -38 12 -57 42 -14 22 -25 44 -25 50 0 5 -4 10 -9 10 -5 0 -13 10 -17 23
-4 12 -11 25 -17 29 -7 4 0 20 17 42 28 37 46 46 46 24z m-112 -135 c16 -27
59 -97 96 -156 37 -60 61 -105 54 -101 -38 22 -166 126 -239 192 -37 34 -54
43 -76 40 -20 -2 -29 -9 -31 -26 -4 -24 24 -54 103 -112 27 -19 53 -39 59 -45
6 -5 29 -23 51 -40 22 -16 48 -36 57 -45 9 -8 54 -40 100 -70 46 -30 89 -65
95 -77 6 -13 10 -23 9 -23 -4 0 -127 50 -166 68 -19 8 -37 16 -40 17 -20 5
-100 49 -122 66 -45 36 -106 23 -90 -20 10 -27 24 -36 132 -85 155 -71 189
-85 325 -135 25 -9 16 -10 -50 -6 -106 5 -229 17 -305 30 -14 2 -41 6 -60 9
-19 3 -59 10 -89 16 -29 5 -55 10 -56 10 -1 0 6 32 16 70 25 102 34 168 30
223 -1 20 -34 23 -50 3 -6 -7 -10 -31 -10 -52 2 -34 -13 -125 -28 -177 -5 -18
-6 -17 -29 4 -14 13 -24 34 -24 51 0 30 -41 81 -48 60 -9 -28 -47 -4 -95 61
-15 20 -34 37 -42 37 -23 0 -23 23 0 60 13 20 37 64 54 98 l31 62 63 1 c87 0
171 9 247 24 97 19 96 19 128 -32z m1312 -270 c33 -64 85 -153 114 -197 33
-51 52 -90 49 -104 -1 -12 -14 -88 -28 -169 -14 -82 -28 -164 -31 -183 -3 -19
-7 -42 -9 -50 -2 -8 -7 -31 -10 -50 -22 -145 -46 -214 -105 -300 -6 -8 -16
-28 -23 -43 -16 -37 -36 -31 -54 18 -19 51 -76 232 -113 355 -24 82 -97 320
-143 471 l-14 46 101 104 c56 57 123 130 150 162 26 31 49 57 51 57 2 0 31
-52 65 -117z m-406 -330 c11 -38 28 -95 39 -128 10 -33 21 -67 23 -75 1 -8 12
-46 24 -85 12 -38 22 -74 24 -80 6 -23 49 -164 62 -204 8 -24 13 -46 10 -48
-2 -2 -8 9 -14 25 -12 36 -106 260 -138 330 -13 29 -24 58 -24 65 0 7 -4 17
-9 23 -5 5 -21 41 -36 79 -15 39 -33 81 -40 95 -12 22 -10 26 18 47 17 13 33
23 37 23 3 0 14 -30 24 -67z m-849 -17 c33 -4 80 -9 105 -11 25 -3 85 -7 134
-9 49 -3 92 -8 96 -13 4 -4 45 -71 92 -148 47 -77 147 -241 222 -364 75 -123
135 -225 132 -228 -6 -6 -47 15 -73 40 -25 22 -26 20 -23 -31 2 -44 -9 -92
-22 -92 -6 0 -95 85 -197 189 -536 545 -678 691 -674 694 2 2 36 -2 76 -8 39
-7 99 -16 132 -19z m413 -719 c140 -141 174 -180 162 -187 -17 -11 -33 -13
-75 -10 -74 6 -70 8 -67 -32 4 -40 -1 -46 -22 -25 -8 6 -37 32 -66 56 -29 25
-58 50 -64 55 -6 6 -63 56 -126 110 -63 55 -122 107 -131 115 -8 9 -38 35 -65
58 -27 23 -60 51 -74 63 -14 12 -50 42 -79 68 -30 26 -62 54 -71 62 -9 8 -34
30 -55 49 -22 19 -57 49 -78 68 l-37 33 26 52 c22 44 48 108 80 198 4 10 93
-75 286 -270 154 -157 359 -365 456 -463z m257 690 c4 -12 8 -24 9 -27 11 -25
37 -86 115 -275 50 -121 99 -233 108 -250 10 -16 16 -31 15 -33 -1 -1 5 -19
13 -39 27 -64 29 -83 10 -83 -9 0 -26 5 -37 11 -16 8 -23 8 -30 -2 -6 -9 -11
-10 -14 -4 -2 6 -20 35 -39 64 -19 29 -35 54 -35 56 0 2 -43 72 -95 155 -52
83 -95 155 -95 160 0 4 -4 10 -9 12 -4 2 -19 22 -32 45 -13 22 -45 76 -71 120
-26 43 -46 82 -45 87 1 5 35 11 76 12 40 2 75 5 77 6 1 2 18 4 37 5 28 2 36
-1 42 -20z m890 -59 c10 -8 -39 -116 -60 -130 -5 -4 -7 -8 -2 -8 4 0 -4 -18
-18 -40 -14 -22 -25 -44 -25 -50 0 -5 -5 -10 -10 -10 -6 0 -8 10 -6 23 7 28
34 180 42 232 9 57 12 59 42 23 15 -18 31 -36 37 -40z m-2370 -66 c-4 -5 -75
37 -75 44 0 3 18 -6 39 -18 22 -12 38 -24 36 -26z m15 -126 c0 -3 -4 -8 -10
-11 -5 -3 -10 -1 -10 4 0 6 5 11 10 11 6 0 10 -2 10 -4z m410 -106 c35 -30 75
-66 89 -79 14 -13 50 -44 80 -70 30 -25 73 -62 95 -82 23 -20 82 -71 131 -114
150 -129 206 -178 249 -218 l41 -38 -30 5 c-16 3 -79 13 -140 21 -60 9 -121
18 -135 20 -56 9 -117 17 -145 21 -68 8 -95 18 -95 35 0 20 -152 305 -183 344
-4 6 -36 53 -71 106 l-63 95 36 21 c41 24 30 29 141 -67z m4030 16 c0 -2 -18
-13 -40 -24 -22 -10 -37 -15 -34 -10 4 6 20 16 38 24 36 15 36 15 36 10z m-30
-96 c-8 -5 -19 -10 -25 -10 -5 0 -3 5 5 10 8 5 20 10 25 10 6 0 3 -5 -5 -10z
m17 -66 c-3 -3 -12 -4 -19 -1 -8 3 -5 6 6 6 11 1 17 -2 13 -5z m-317 -154 c0
-6 18 -40 40 -76 22 -36 40 -70 40 -74 0 -5 4 -10 8 -12 4 -1 17 -17 29 -33
l21 -31 -30 -34 c-16 -19 -49 -55 -72 -80 -104 -112 -246 -312 -321 -455 -26
-50 -48 -92 -50 -93 -4 -4 -173 27 -195 35 -22 9 -28 10 -51 12 -18 1 -19 4
-9 16 12 15 5 54 -11 56 -31 4 -101 30 -96 36 3 2 45 -8 93 -23 180 -54 215
-55 200 -6 -5 15 -28 24 -104 42 -53 13 -103 28 -109 33 -7 5 -13 7 -13 4 0
-6 -93 27 -162 57 -57 25 -46 27 30 5 96 -28 121 -33 172 -33 40 -1 45 2 48
22 2 15 9 22 17 18 7 -2 21 1 30 8 21 15 12 56 -13 57 -9 0 -26 2 -37 4 -11 2
-39 7 -62 10 -24 3 -53 10 -65 15 -17 6 -11 7 23 3 35 -4 49 -1 62 12 9 9 17
20 17 25 0 13 -38 32 -50 25 -5 -3 -11 -2 -14 3 -6 11 -7 11 144 16 69 2 128
5 131 5 15 2 17 32 3 46 -13 12 -35 14 -122 10 -59 -2 -132 -7 -162 -10 -46
-4 -50 -3 -25 5 17 6 54 11 83 11 47 0 54 3 64 25 10 20 9 27 -3 35 -19 12
-34 11 -101 -5 -32 -7 -58 -10 -58 -6 0 8 167 86 205 96 14 3 28 10 31 15 3 5
9 7 13 4 5 -2 21 7 37 22 l28 26 -22 17 c-21 17 -24 17 -79 -11 -32 -15 -114
-55 -183 -88 -122 -58 -124 -58 -85 -24 22 19 72 57 112 84 39 26 73 53 75 59
3 11 61 27 121 35 15 2 31 6 36 9 4 3 23 8 42 11 19 3 86 17 149 32 63 14 126
27 140 30 13 2 27 6 29 9 8 8 31 4 31 -6z m-4793 -76 c-3 -3 -12 -4 -19 -1 -8
3 -5 6 6 6 11 1 17 -2 13 -5z m4098 -62 c-6 -5 -30 -24 -55 -43 -25 -19 -53
-43 -62 -54 -30 -34 -20 -1 13 43 18 25 42 44 57 48 15 3 32 7 37 9 17 6 19 5
10 -3z m-4102 -9 c-7 -2 -21 -2 -30 0 -10 3 -4 5 12 5 17 0 24 -2 18 -5z m432
-32 c24 -5 26 -8 13 -13 -27 -11 -22 -42 10 -55 15 -6 62 -14 105 -17 76 -6
202 -22 242 -29 21 -5 83 -16 125 -24 41 -7 154 -42 170 -53 11 -7 5 -8 -20
-5 -104 15 -176 22 -306 30 -68 4 -85 2 -103 -12 -24 -19 -20 -53 4 -53 8 0
16 -3 19 -8 2 -4 -13 -6 -34 -4 -65 6 -102 -28 -63 -59 16 -14 47 -16 267 -18
55 -1 97 -3 95 -5 -5 -5 -62 -14 -133 -22 -73 -8 -96 -20 -96 -47 0 -31 35
-47 75 -35 53 15 216 45 208 38 -4 -3 -33 -14 -63 -23 -30 -9 -76 -24 -102
-32 -26 -8 -60 -17 -75 -20 -16 -3 -74 -15 -130 -28 -57 -13 -103 -20 -103
-16 0 10 -68 -7 -85 -21 -38 -32 4 -66 69 -56 23 3 50 7 61 10 11 2 56 12 100
21 108 23 110 23 110 25 0 1 9 3 20 5 33 5 65 14 73 19 5 3 19 7 33 10 13 2
50 14 82 25 69 24 74 20 10 -10 -107 -47 -193 -77 -243 -84 -14 -2 -29 -4 -35
-4 -23 -3 -55 -40 -49 -56 14 -35 45 -34 172 10 67 23 122 40 122 39 0 -8
-208 -150 -305 -208 -60 -37 -119 -76 -130 -86 -31 -29 -49 -25 -69 17 -19 39
-91 152 -122 191 -54 67 -108 125 -186 202 l-86 85 45 55 c64 77 161 215 186
264 35 71 43 74 122 57z m3479 -38 c-15 -27 -33 -55 -41 -64 -7 -8 -13 -23
-13 -32 0 -9 -4 -17 -10 -17 -5 0 -10 -4 -10 -9 0 -5 -14 -39 -30 -75 l-31
-66 -38 5 c-21 2 -87 7 -147 11 -60 3 -127 7 -149 9 -22 2 -87 6 -145 10 -95
6 -107 9 -125 31 -12 13 -21 36 -21 49 0 18 6 27 21 30 11 2 65 14 120 25 55
12 107 23 115 25 31 7 166 36 185 40 11 3 41 9 66 15 26 6 55 13 65 15 11 2
21 4 24 5 3 1 10 3 15 4 6 1 24 5 40 9 17 3 46 9 65 12 19 3 36 8 39 11 2 2
11 4 18 4 10 0 6 -14 -13 -47z m-3924 11 c0 -8 -19 -13 -24 -6 -3 5 1 9 9 9 8
0 15 -2 15 -3z m5024 -122 c42 -51 43 -58 15 -67 -32 -10 -234 -152 -289 -202
-51 -48 -38 -20 42 85 45 59 84 109 87 112 3 3 28 31 55 63 26 32 50 57 51 55
2 -2 19 -23 39 -46z m-3639 8 c80 -11 121 -18 150 -24 11 -2 47 -7 80 -11 32
-4 68 -9 80 -11 11 -2 34 -6 50 -8 116 -15 126 -18 113 -33 -9 -12 -30 -14
-107 -9 -189 12 -297 18 -336 21 -22 2 -52 4 -66 4 -20 1 -28 8 -33 25 -3 13
-9 31 -12 40 -7 19 -9 18 81 6z m-645 -100 c0 -5 -5 -10 -11 -10 -5 0 -7 5 -4
10 3 6 8 10 11 10 2 0 4 -4 4 -10z m149 -6 c3 -3 -27 -4 -67 -3 -39 1 -69 6
-66 11 5 8 124 2 133 -8z m4256 -34 c16 -16 27 -32 24 -34 -2 -3 -54 -24 -114
-47 -61 -23 -157 -66 -215 -96 -58 -30 -96 -47 -85 -38 11 8 29 23 39 31 11 9
53 41 95 70 42 30 81 58 87 62 5 5 30 20 54 33 24 13 50 30 58 37 19 17 25 16
57 -18z m-985 16 c0 -2 -7 -7 -16 -10 -8 -3 -12 -2 -9 4 6 10 25 14 25 6z
m-2655 -51 c297 -19 338 -23 346 -36 11 -18 2 -88 -15 -114 -12 -19 -13 -25
-4 -26 14 -1 -31 -17 -71 -25 -14 -3 -28 -7 -33 -10 -4 -3 -17 -7 -28 -10 -77
-17 -115 -27 -125 -33 -5 -3 -16 -6 -23 -7 -7 -1 -78 -21 -157 -44 -155 -44
-185 -51 -185 -44 0 2 8 23 19 47 26 60 57 151 76 227 9 36 18 70 20 77 3 8
19 11 47 8 24 -2 84 -7 133 -10z m1920 -40 c39 -2 115 -7 170 -11 159 -10 176
-11 181 -17 5 -5 44 -172 44 -189 0 -4 -6 -5 -12 -3 -7 2 -24 7 -38 9 -14 3
-68 14 -120 26 -52 11 -104 22 -115 24 -11 3 -40 9 -65 15 -25 5 -56 12 -70
14 -14 3 -43 8 -64 12 l-40 8 22 17 22 18 -29 10 c-38 13 -72 48 -65 66 4 11
19 13 57 10 29 -2 84 -6 122 -9z m670 -185 c3 -5 -4 -6 -15 -3 -11 3 -22 9
-25 13 -3 5 4 6 15 3 11 -3 22 -9 25 -13z m-2127 -47 c-4 -32 -2 -34 39 -45
24 -5 43 -14 43 -19 0 -22 -70 -120 -110 -155 -25 -21 -61 -53 -80 -70 -19
-17 -75 -67 -125 -110 -49 -44 -96 -85 -103 -92 -8 -7 -22 -11 -31 -8 -9 2
-36 8 -61 11 -25 4 -52 9 -61 10 -9 2 -52 7 -95 11 -43 3 -92 8 -109 10 -16 1
-78 3 -137 4 -60 1 -108 4 -108 6 0 9 63 129 70 134 4 3 11 16 15 29 4 13 17
42 29 64 l21 41 150 43 c83 23 159 45 170 47 17 4 334 93 440 124 40 12 48 6
43 -35z m1427 -3 c32 -9 100 -23 125 -25 8 -1 25 -5 37 -9 13 -4 35 -9 50 -12
16 -2 71 -14 123 -25 52 -11 104 -22 116 -24 15 -3 28 -24 49 -77 16 -40 35
-83 43 -95 13 -21 12 -23 -12 -33 -15 -5 -39 -13 -54 -16 -43 -10 -191 -64
-256 -94 l-59 -28 -156 160 c-86 88 -159 166 -164 173 -11 21 42 75 75 77 l28
2 -28 23 -27 23 40 -6 c22 -3 54 -9 70 -14z m748 -49 c8 -8 2 -8 -23 -1 -19 5
-43 19 -55 30 l-20 21 43 -19 c24 -11 48 -24 55 -31z m-1970 -108 c8 -16 12
-34 9 -42 -3 -11 0 -12 14 -6 29 12 77 13 100 2 25 -11 64 -75 64 -106 l0 -20
34 20 c33 19 34 19 77 0 24 -11 57 -32 73 -46 32 -29 29 -6 41 -360 11 -305
11 -450 0 -451 -5 0 -19 -4 -30 -8 -142 -54 -181 -70 -189 -78 -23 -19 -46 -6
-69 40 -35 67 -47 88 -97 170 -25 40 -50 81 -55 90 -46 78 -166 235 -242 315
l-45 47 106 174 c58 96 106 177 106 181 0 6 4 12 51 68 17 20 33 37 35 37 2 0
10 -12 17 -27z m2000 -17 c49 -34 71 -55 65 -61 -3 -4 -23 -10 -42 -15 -28 -6
-36 -5 -36 6 0 8 -18 32 -40 54 -22 22 -40 42 -40 44 0 8 72 -13 93 -28z m255
-36 l52 -12 0 -56 c1 -76 19 -192 55 -352 15 -68 86 -275 134 -397 33 -81 59
-149 58 -150 -3 -3 -53 -11 -107 -17 -25 -3 -56 -8 -70 -11 -76 -16 -96 -15
-231 20 -77 20 -192 47 -256 60 -64 13 -120 30 -126 38 -28 35 -106 122 -174
194 -49 52 -85 102 -109 151 -20 40 -34 75 -32 78 4 3 55 -67 139 -193 28 -41
59 -58 81 -44 14 9 23 8 42 -4 27 -18 56 -11 56 14 0 14 -41 79 -77 121 -72
85 -84 113 -20 46 47 -48 80 -55 85 -17 2 14 -6 30 -25 46 -15 13 -44 38 -63
56 l-35 31 50 -33 c74 -48 216 -159 247 -191 32 -34 63 -37 72 -5 7 25 -2 34
-145 144 -52 40 -99 77 -105 82 -6 5 -25 16 -42 25 -18 9 -32 19 -32 22 0 10
121 -61 157 -92 24 -21 43 -29 59 -26 66 12 13 77 -113 137 -18 8 -33 17 -33
19 0 12 302 -76 326 -95 35 -28 96 -12 87 22 -5 18 -46 45 -65 41 -3 -1 -33 8
-65 19 -32 11 -67 22 -79 25 -12 2 -40 10 -63 18 -22 9 -41 13 -41 10 0 -3 -6
-2 -12 3 -7 4 -38 13 -68 20 -51 11 -45 12 70 8 69 -3 139 -9 155 -13 38 -10
62 -5 70 15 9 24 -19 47 -62 49 -21 1 -44 3 -51 3 -15 1 -62 46 -62 59 0 11
116 33 210 39 85 6 116 23 99 54 -5 11 -16 19 -24 19 -8 0 -13 9 -12 21 1 15
6 19 22 15 11 -3 44 -10 73 -16z m-3360 -27 c-70 -136 -105 -196 -118 -203 -9
-5 -63 -10 -120 -13 -144 -6 -195 -32 -149 -78 19 -19 61 -22 88 -5 5 4 37 8
70 10 l60 3 -22 -38 c-21 -37 -21 -39 -4 -56 16 -16 20 -16 44 -3 14 8 35 31
46 50 11 19 23 38 28 41 15 9 324 -2 391 -14 22 -4 32 -14 16 -14 -51 -1 -134
-18 -245 -50 -29 -8 -58 -16 -65 -17 -7 -1 -17 -4 -23 -7 -5 -3 -32 -12 -60
-19 -63 -17 -100 -49 -90 -79 8 -27 47 -28 95 -2 19 10 64 28 100 39 72 24
300 75 307 69 2 -2 -38 -19 -88 -37 -97 -34 -250 -110 -363 -178 -37 -23 -74
-42 -81 -42 -21 0 -75 -50 -75 -70 0 -31 21 -39 65 -24 22 7 41 18 43 24 2 5
7 10 12 10 4 0 59 30 121 66 104 61 226 122 289 145 26 10 -20 -36 -124 -125
-27 -22 -58 -50 -70 -61 -12 -12 -59 -54 -106 -95 -47 -40 -95 -82 -106 -92
-22 -19 -22 -19 -101 30 -74 47 -183 101 -263 132 -19 7 -39 16 -45 20 -5 3
-29 13 -53 20 -31 10 -42 18 -39 29 35 115 76 277 81 316 4 28 9 64 12 81 3
17 6 49 8 72 3 49 4 49 36 55 14 3 36 10 50 15 14 5 27 9 30 9 4 0 77 20 144
40 12 3 16 1 11 -6 -4 -7 -4 -23 -1 -36 10 -38 52 -23 116 41 30 30 66 57 80
60 14 3 36 9 50 14 33 10 35 7 18 -27z m-958 23 c0 -2 -7 -6 -15 -10 -8 -3
-15 -1 -15 4 0 6 7 10 15 10 8 0 15 -2 15 -4z m37 -2 c-3 -3 -12 -4 -19 -1 -8
3 -5 6 6 6 11 1 17 -2 13 -5z m3210 -135 c76 -77 139 -142 141 -144 2 -2 -4
-18 -13 -36 l-17 -32 -57 59 c-31 33 -87 95 -126 138 -38 43 -82 91 -97 106
-28 29 -23 50 13 50 10 0 80 -63 156 -141z m-125 -71 c35 -39 74 -83 88 -98
14 -15 42 -46 63 -69 l39 -42 -19 -42 c-11 -23 -35 -79 -53 -124 l-34 -83 -76
213 c-42 116 -89 244 -103 283 -14 40 -23 74 -20 77 5 6 15 -4 115 -115z
m-216 55 c3 -10 10 -27 14 -38 5 -11 29 -76 54 -145 25 -69 76 -209 114 -311
68 -185 68 -187 55 -232 -8 -27 -21 -48 -31 -51 -10 -4 -27 -14 -38 -24 -10
-9 -35 -29 -54 -44 -19 -15 -51 -40 -70 -57 -19 -17 -39 -31 -45 -31 -5 0 -39
15 -75 33 -56 29 -98 46 -195 83 -11 4 -26 8 -33 10 -8 1 -16 4 -18 6 -4 4 -7
76 -20 413 -13 353 -15 313 20 340 18 13 50 27 74 31 36 6 44 3 64 -19 l22
-25 37 29 c62 49 115 62 125 32z m-1182 -60 c-46 -85 -63 -108 -81 -105 -44 7
-44 12 -2 49 23 21 53 48 67 61 32 28 34 28 16 -5z m1761 -505 c41 -93 77
-121 94 -75 7 17 2 35 -22 76 -60 107 15 16 91 -111 20 -32 21 -36 5 -32 -18
4 -93 11 -144 13 -23 1 -28 7 -38 45 -6 24 -13 61 -16 83 -3 21 -8 44 -10 51
-2 6 -1 12 4 12 5 0 21 -28 36 -62z m-1400 -239 l72 -126 -42 -26 c-23 -15
-47 -27 -54 -27 -6 0 -11 -5 -11 -11 0 -5 -4 -8 -9 -5 -4 3 -14 34 -21 68 -17
90 -17 87 -34 161 -9 38 -27 103 -41 145 -14 42 -25 79 -25 82 0 12 100 -146
165 -261z m1680 5 c30 -5 78 -44 96 -77 8 -13 -1 -11 -43 11 -29 15 -78 39
-108 51 -74 31 -82 41 -23 30 26 -5 62 -12 78 -15z m300 -60 c61 -15 115 -27
122 -27 25 0 2 -15 -59 -37 -35 -12 -68 -26 -74 -31 -7 -6 -31 13 -67 53 -56
61 -69 82 -44 73 6 -2 62 -16 122 -31z m-241 -93 c121 -62 151 -85 129 -100
-5 -3 -12 -14 -16 -23 -3 -10 -11 -18 -16 -18 -9 0 -75 51 -91 71 -9 11 -155
115 -207 148 -29 18 -53 35 -53 37 0 7 126 -50 254 -115z m-3414 99 c-8 -5
-19 -10 -25 -10 -5 0 -3 5 5 10 8 5 20 10 25 10 6 0 3 -5 -5 -10z m3162 -157
c60 -74 122 -166 152 -226 24 -46 51 -64 72 -46 8 6 14 22 14 35 0 23 -116
206 -159 252 -60 62 72 -29 169 -117 25 -22 49 -41 53 -41 8 0 3 -24 -16 -70
-6 -14 -11 -27 -12 -30 -1 -3 -9 -22 -18 -44 -9 -21 -17 -42 -17 -46 0 -10
-32 -72 -35 -68 -2 2 -28 50 -58 108 -76 147 -121 223 -172 297 -24 35 -40 63
-36 63 5 0 33 -30 63 -67z"/>
<path d="M4818 6976 c-159 -57 -269 -207 -294 -401 -2 -16 -7 -48 -11 -70 -4
-22 -6 -42 -6 -45 1 -3 -11 -30 -25 -60 -20 -42 -38 -62 -74 -84 -26 -16 -59
-28 -73 -28 -14 0 -25 -4 -25 -8 0 -11 25 -19 77 -26 56 -6 115 26 164 88 19
24 36 45 40 48 3 3 19 28 34 55 70 121 198 298 152 208 -24 -46 -45 -133 -51
-213 -16 -205 -70 -392 -146 -507 -34 -53 -112 -129 -179 -176 l-26 -19 39 6
c67 9 180 72 230 127 50 55 103 143 136 228 26 68 69 214 76 261 3 19 9 51 14
70 5 19 12 53 15 75 23 152 37 212 66 268 51 100 82 140 117 151 36 12 26 22
-43 45 -74 24 -152 27 -207 7z"/>
<path d="M5160 6888 c-113 -32 -191 -153 -235 -363 -24 -113 -27 -132 -40
-239 -3 -22 -7 -51 -10 -65 -2 -14 -7 -42 -10 -61 -39 -240 -91 -402 -169
-525 -54 -83 -84 -113 -166 -166 -41 -27 -79 -52 -85 -56 -5 -5 -26 -16 -45
-26 l-35 -18 37 5 c34 4 130 48 256 117 109 59 164 141 228 336 19 59 37 114
39 121 3 7 5 16 7 20 10 33 59 96 147 188 177 185 264 318 295 453 24 102 8
211 -38 256 -35 35 -103 44 -176 23z"/>
<path d="M5489 6768 c0 -24 -2 -50 -4 -58 -1 -8 -6 -33 -9 -55 -21 -127 -82
-259 -166 -355 -11 -14 -79 -83 -149 -155 -70 -71 -144 -155 -164 -185 -91
-140 -112 -327 -72 -645 18 -148 21 -293 6 -342 -5 -18 -8 -33 -5 -33 13 0
-55 -111 -88 -144 -33 -31 -36 -37 -17 -31 187 58 267 212 294 566 5 63 16
153 21 160 2 3 6 21 9 40 17 97 87 188 230 299 164 126 251 242 303 400 12 36
23 68 23 72 1 4 7 32 14 61 23 100 5 219 -48 307 -48 81 -113 140 -154 140
-20 0 -23 -5 -24 -42z"/>
<path d="M5780 6731 c0 -7 5 -21 11 -32 31 -58 37 -201 14 -313 -13 -63 -13
-74 2 -115 12 -32 17 -86 19 -181 3 -150 -10 -229 -53 -317 -30 -62 -116 -152
-199 -208 -175 -118 -262 -210 -326 -345 -91 -192 -126 -413 -84 -540 8 -25
15 -40 16 -35 1 6 3 38 5 72 11 157 98 293 294 459 51 43 99 84 105 89 6 6 34
28 61 50 61 48 235 221 256 255 l16 24 13 -39 c7 -22 35 -74 61 -117 65 -104
81 -143 82 -209 1 -43 -6 -70 -28 -115 -16 -32 -33 -63 -37 -69 -38 -47 -76
-100 -74 -103 8 -7 126 59 160 88 19 17 46 54 60 82 40 80 28 192 -37 340
-106 243 -113 293 -64 503 62 264 50 431 -41 570 -22 33 -48 69 -59 80 -44 45
-93 85 -103 85 -5 0 -10 5 -10 10 0 6 -5 10 -12 10 -6 0 -20 7 -30 17 -12 10
-18 12 -18 4z"/>
<path d="M6126 6501 c-3 -5 1 -28 9 -51 15 -42 30 -137 29 -173 -1 -11 23 -34
66 -62 162 -107 204 -221 131 -350 -34 -60 -38 -73 -18 -56 8 6 16 9 19 6 3
-3 11 1 18 10 7 8 18 15 24 15 7 0 24 12 38 28 76 81 80 168 13 267 -33 49
-58 78 -179 205 -34 36 -80 89 -103 118 -23 29 -44 48 -47 43z"/>
<path d="M4589 6277 c-69 -64 -88 -78 -128 -91 -83 -25 -195 -218 -217 -371
-1 -11 -9 -51 -17 -90 -12 -57 -22 -113 -29 -174 -3 -31 4 -71 14 -71 6 0 9 3
6 6 -4 3 -2 20 3 37 6 18 12 42 15 53 2 12 22 75 44 140 22 66 42 124 43 129
8 27 42 80 74 116 42 46 82 70 126 73 17 1 34 9 39 17 8 14 29 65 34 84 25 92
45 177 42 181 -3 2 -25 -15 -49 -39z"/>
<path d="M5670 6058 c-86 -168 -180 -275 -317 -364 -76 -49 -123 -96 -129
-127 -2 -6 -9 -30 -17 -52 -38 -105 -30 -127 32 -96 38 20 64 38 95 67 6 6 18
15 27 20 25 14 136 111 204 179 92 91 134 154 159 239 15 51 21 236 8 236 -5
0 -33 -46 -62 -102z"/>
<path d="M4797 5308 c-61 -76 -92 -153 -101 -253 -4 -49 -3 -49 12 -25 9 14
47 56 84 94 l69 68 -7 72 c-5 39 -7 74 -6 79 5 20 -20 2 -51 -35z"/>
<path d="M5051 4841 c-47 -52 -91 -81 -163 -105 l-62 -21 -16 -70 c-30 -124
-50 -211 -54 -231 -3 -10 -12 -49 -20 -87 -24 -99 -81 -365 -93 -432 -8 -44
-11 -60 -13 -60 -2 0 -5 -15 -14 -74 -3 -19 -14 -77 -25 -130 -17 -85 -28
-142 -45 -246 -3 -16 -10 -55 -16 -85 -6 -30 -13 -77 -16 -105 -4 -27 -8 -53
-11 -57 -2 -5 -6 -27 -9 -50 -3 -24 -7 -54 -9 -68 -3 -14 -7 -45 -11 -70 -3
-25 -9 -70 -14 -100 -5 -30 -12 -80 -15 -110 -3 -30 -8 -66 -10 -80 -5 -33
-15 -113 -20 -170 -3 -25 -7 -67 -10 -95 -16 -164 -19 -251 -19 -535 -1 -280
5 -496 19 -730 8 -125 15 -241 20 -315 2 -38 7 -108 10 -155 3 -47 8 -112 11
-145 2 -33 7 -91 10 -130 3 -38 6 -81 7 -95 2 -25 3 -25 114 -28 l112 -3 -4
48 c-2 26 -6 86 -10 133 -3 47 -8 105 -10 130 -6 65 -17 226 -20 290 -2 30 -6
102 -10 160 -20 308 -27 529 -28 810 -1 246 5 427 18 530 2 19 7 65 9 101 3
37 8 83 11 103 11 80 14 103 20 156 3 30 8 62 10 70 4 13 13 86 19 145 2 11 6
38 10 60 3 22 8 54 10 70 4 27 35 213 51 305 3 19 8 44 9 55 8 44 47 253 57
295 12 57 17 84 25 134 3 22 8 44 10 48 4 6 17 66 30 138 4 25 15 77 20 95 2
6 5 21 8 35 3 14 9 39 13 55 4 17 7 32 8 35 1 3 5 25 10 50 10 52 12 58 15 65
3 6 4 9 13 55 13 64 21 98 71 300 9 36 19 76 22 90 3 14 7 33 10 43 7 23 5 21
-35 -22z"/>
</g>
</svg>
