<svg height="60" width="60" xmlns="http://www.w3.org/2000/svg"><path d="m28.4934 24.7514h.2c7.4.4 17.1-2.6 19.5-3.5.2 0 .4-.1.6-.2001.5-.2999.9-.7.7-.8999-.1-.2001-.6-.2001-1.2.1-.3.0999-.5.2999-.6.5-2.3.7999-9.1 2.9-15.4 3.2999 4.4-1.2999 8.7-4.1 10.3-5.1.2-.1.4-.1999.6-.2999.5-.4.7-.8001.5-1-.2-.2001-.7-.1001-1.1.2999-.2.2001-.4.4-.5.6-1.9 1.2001-7.3 4.6001-12 5.4 5.6-2.1999 9.8-6.6 12.3-9 .3-.2999.6-.6999.9-.9.2-.1.5-.2.7-.5.4-.3999.6-.8999.4-1.1-.2-.1999-.7 0-1.1.4-.2.2-.3.4001-.4.6-.3.3001-.6.6-1 1-1.9 1.9-4.9 5-8.7 7.2001 1.9-1.9 3.3-4.1001 4.1-5.5.1-.1001.1-.2001.2-.3001.2-.0999.5-.3.6-.6999.3-.5.4-1 .1-1.2001-.2-.1-.6.2001-.9.7001-.1.1999-.2.3999-.2.5-.1.1999-.2.3999-.4.6-1.2 2-3.5 5.7999-6.9 7.5-.1 0-.2.0999-.3.0999 3.4-2.5999 6.5-9.3 7.9-12.5.1-.1999.2-.3.2-.5.2-.0999.4-.39995.5-.69995.2-.5.2-1.1 0-1.2s-.6.2-.9.8c-.1.2-.2.5-.2.7-.1.20005-.2.39995-.3.59995-1.3 3-4.7 10.3-8.2 12.5 1.2-2 3.6-7.1 4.4-9.3999.1-.2001.2-.4.3-.6001.2-.6.1-1.1-.2-1.1-.2-.1-.6.3001-.8.9-.1.3001-.1.6-.1.8001-.7 1.8999-2.6 6.1999-3.9 8.6.4-2.1 1.5-5.6 3.3-10.4001.2-.0999.3-.4.4-.6999.2-.6001.1-1.1001-.1-1.20005-.2-.1-.6.30005-.8.89995-.1.2-.1.5-.1.7-.7 1.9-2.6 6.6001-3.3 9.9 0-2.2999.4-5.1999.7-6.7999 0-.2001.1-.4.1-.5.1-.2001.3-.5.3-.8001.1-.5999 0-1.0999-.3-1.0999s-.5.4-.6 1v.6999c0 .2001-.1.4-.1.7001-.3 2-.9 5.5-.6 7.8999-1.5-3.8999-.5-11.3999-.1-14.49995 0-.3.1-.6.1-.8.1-.2.3-.4.3-.8.1-.6 0-1.1-.3-1.1s-.6.4-.7.9c0 .3-.1.5 0 .7 0 .3-.1.6-.1 1-.5 3.39995-1.4 10.70005.1 14.80005-.1-.1-.1-.1-.2-.2001-2-3.2999-1.9-7.7-1.9-10 0-.2999 0-.5 0-.7.1-.1999.2-.5.2-.8.1-.6-.1-1.09995-.4-1.09995s-.5.39995-.6.99995c0 .3001 0 .5.1.7001v.8999c0 1.6001-.1 4.2001.6 6.8-2-3.9-3-8.0999-3.5-10.69995-.2-.8-.3-1.4-.4-1.8.1-.2.1-.5 0-.8-.1-.6-.4-1-.7-.9s-.4.6-.2 1.1c.1.3.2.5.3.7.1.4.3 1.1.5 1.9.7 3.40005 2.1 9.30005 5.6 14.19995-3.9-3.6-7-10.2999-7.6-11.5 0-.2 0-.5-.1-.7-.2-.5-.6-.89995-.8-.8-.2.1001-.3.6001-.1 1.2001.1.2999.3.5.4.6999.5 1.2001 2.9 6.4 6.2 10.2001-5.4-3.9-10.3-9.7001-11.5-11.2001 0-.1999-.1-.4-.3-.6999-.3-.50005-.7-.80005-.9-.70005s-.2.60005.1 1.20005c.2.2999.4.5.6.5999 1.5 1.8001 8.2 9.8001 14.8 13.4001.1 0 .1.0999.2.0999v.1l-10.9 21.2001c-.7.7999-1.5 2.5-2.1 4.5-.8 3-.9 5.5-.2 5.6999.7.2 2-2 2.9-5 .6-2 .8-3.9.7-4.9z" name="Layer 1" stroke="#000" stroke-linecap="round" stroke-linejoin="round" stroke-miterlimit="2"/></svg>