<?xml version="1.0" encoding="UTF-8"?>
<svg xmlns="http://www.w3.org/2000/svg" xmlns:xlink="http://www.w3.org/1999/xlink" width="160" height="300">
  <desc></desc>
  <g id="Layer1" name="Layer 1" opacity="1">
    <g id="Shape1">
      <desc type="0" transform="matrix(1,0,0,1,48.4156,235.7)"></desc>
      <path id="shapePath1" d="M47.2,293.5 C45.6,273.1 44.6,255.8 45.3,244.7 C46.7,225.2 51.9,199.2 57.3,177.9 C56.2,179.4 54.8,180.7 52.7,181.5 C52.3,181.7 50.9,182 50.9,182 L50.7,182 C45.6,202.8 41.1,226.6 39.8,244.3 C39,255.6 40.1,273 41.6,293.4 L47.2,293.5 Z" style="stroke:none;fill-rule:nonzero;fill:#000000;fill-opacity:1;"></path>
    </g>
    <g id="Shape2">
      <desc type="0" transform="matrix(1,0,0,1,61.5794,155.342)"></desc>
      <path id="shapePath2" d="M59.4,159.4 C61,156.1 65.1,154.1 67.6,151.5 C70.8,148.2 72.5,144 73.1,139.5 C73.5,136.3 71.8,132.7 69.9,130.9 C69,130 68,129.6 67.3,129.7 C67.3,129.7 67.3,129.7 67.3,129.8 C67.1,138.8 62.9,142.7 59.2,146.2 C56.6,148.7 54.1,151.2 53.2,154.9 C52.2,158.8 52.6,163 53.1,166.9 C53.8,172.8 54.3,178 50,180.9 C50,180.9 50,180.9 50,181 C50,181 50,181 50.1,181 C56.6,179.2 57.2,173.3 57.8,167.6 C58,164.7 58.3,161.7 59.4,159.4 C60.1,157.9 58.3,161.7 59.4,159.4 Z" style="stroke:none;fill-rule:nonzero;fill:#000000;fill-opacity:1;"></path>
    </g>
    <g id="Shape3">
      <desc type="0" transform="matrix(1,0,0,1,51.8789,146.661)"></desc>
      <path id="shapePath3" d="M52.3,153.8 C53,151.6 53.6,149.5 55,148.1 C62.4,140.9 65.1,136.2 64.6,131.3 C64.4,128.8 62.9,127.6 61.7,127.5 C61,127.5 60.4,127.5 59.8,127.6 C54.3,128.6 53.2,135.3 52.1,143 C51.4,147.7 50.7,152.6 48.6,157 C47.7,158.9 46.5,160.7 45,162.2 C44.5,162.6 39.2,166 39.1,165.6 C39.4,166.9 47.8,162.1 48.6,161.3 C50.5,159.3 51.5,156.5 52.3,153.8 C52.9,151.6 50.9,158.5 52.3,153.8 M47.7,162.1 C47.6,162.2 47.5,162.3 47.4,162.4 C47.4,162.3 47.5,162.2 47.7,162.1 M46.9,160.1 C47,160 47,159.9 47.1,159.8 C47,159.9 46.9,160 46.9,160.1 M54.2,149 C54.2,149.1 54.1,149.1 54.1,149.2 C54.1,149.1 54.2,149 54.2,149 M52.1,154.2 C52.2,154 52.2,153.9 52.2,153.7 C52.2,153.8 52.1,154 52.1,154.2 M52.4,153.2 C52.4,153.1 52.5,153 52.5,152.9 C52.4,153 52.4,153.1 52.4,153.2 M52.6,152.6 C52.6,152.5 52.7,152.4 52.7,152.3 C52.6,152.4 52.6,152.5 52.6,152.6 M52.8,152 C52.8,151.9 52.9,151.8 52.9,151.7 C52.8,151.8 52.8,151.9 52.8,152 M53,151.4 C53,151.3 53.1,151.2 53.1,151.1 C53.1,151.2 53,151.3 53,151.4 M53.2,150.8 C53.2,150.7 53.3,150.6 53.3,150.5 C53.3,150.6 53.3,150.7 53.2,150.8 M53.5,150.2 C53.5,150.1 53.6,150 53.6,149.9 C53.5,150.1 53.5,150.1 53.5,150.2 M53.7,149.7 C53.7,149.6 53.8,149.5 53.8,149.5 C53.8,149.5 53.8,149.6 53.7,149.7 M54.4,148.7 C54.4,148.6 54.5,148.6 54.5,148.5 C54.5,148.5 54.5,148.6 54.4,148.7 M59.9,127.7 C59.9,127.7 59.8,127.7 59.8,127.7 C59.8,127.7 59.8,127.7 59.9,127.7 C59.8,127.7 59.9,127.7 59.9,127.7 M60.8,127.6 C60.7,127.6 60.7,127.6 60.6,127.6 C60.7,127.6 60.7,127.6 60.8,127.6 M59.5,127.8 C59.4,127.8 59.3,127.8 59.2,127.9 C59.3,127.8 59.4,127.8 59.5,127.8 M59,127.9 C58.9,127.9 58.8,128 58.7,128 C58.8,128 58.9,127.9 59,127.9 M58.4,128.1 C58.3,128.1 58.2,128.2 58.1,128.2 C58.3,128.2 58.4,128.1 58.4,128.1 M57.9,128.3 C57.8,128.3 57.7,128.4 57.7,128.4 C57.8,128.4 57.9,128.4 57.9,128.3 M57.5,128.6 C57.4,128.6 57.4,128.7 57.3,128.7 C57.3,128.7 57.4,128.7 57.5,128.6 M57,128.9 C56.9,128.9 56.9,129 56.8,129.1 C56.9,129 57,129 57,128.9 M56.6,129.3 C56.5,129.4 56.5,129.4 56.4,129.5 C56.5,129.4 56.6,129.3 56.6,129.3 M56.3,129.7 C56.2,129.8 56.2,129.8 56.1,129.9 C56.2,129.8 56.2,129.7 56.3,129.7 M55.9,130.1 C55.9,130.2 55.8,130.2 55.8,130.3 C55.8,130.2 55.9,130.1 55.9,130.1 M55.6,130.5 C55.6,130.6 55.5,130.6 55.5,130.7 C55.5,130.6 55.5,130.6 55.6,130.5 M54,133.9 C54,133.8 54,133.8 54,133.9 C54,133.8 54,133.8 54,133.9 M54.2,133.3 C54.2,133.3 54.2,133.2 54.2,133.2 C54.2,133.2 54.2,133.3 54.2,133.3 M54.4,132.8 C54.4,132.7 54.4,132.7 54.5,132.6 C54.4,132.7 54.4,132.7 54.4,132.8 M54.6,132.2 C54.6,132.1 54.7,132.1 54.7,132 C54.7,132.1 54.7,132.2 54.6,132.2 M54.9,131.7 C54.9,131.6 55,131.6 55,131.5 C54.9,131.6 54.9,131.6 54.9,131.7 M55.2,131.2 C55.2,131.1 55.3,131.1 55.3,131 C55.2,131.1 55.2,131.1 55.2,131.2 M51.1,149.2 C51,149.2 51,149.3 51.1,149.2 C51,149.3 51,149.2 51.1,149.2 M50.9,150 C50.9,150 50.9,150.1 50.9,150.1 C50.9,150.1 50.9,150.1 50.9,150 M49.8,154.1 C49.8,154.2 49.8,154.2 49.8,154.1 C49.8,154.2 49.8,154.2 49.8,154.1 M49.5,154.9 C49.5,155 49.5,155 49.4,155.1 C49.5,155 49.5,155 49.5,154.9 M49.2,155.7 C49.2,155.8 49.1,155.9 49.1,155.9 C49.2,155.8 49.2,155.7 49.2,155.7 M48.9,156.4 C48.9,156.5 48.8,156.6 48.8,156.7 C48.8,156.6 48.9,156.5 48.9,156.4 M48.6,157.1 C48.6,157.2 48.5,157.3 48.5,157.4 C48.5,157.3 48.6,157.2 48.6,157.1 M48.2,157.8 C48.1,157.9 48.1,158 48,158.1 C48.1,158 48.2,157.9 48.2,157.8 M47.9,158.5 C47.8,158.6 47.8,158.7 47.7,158.8 C47.8,158.7 47.8,158.6 47.9,158.5 M47.5,159.2 C47.4,159.3 47.4,159.4 47.3,159.5 C47.4,159.4 47.4,159.3 47.5,159.2 M39.1,165.6 C39.4,165.5 39.7,165.5 40,165.4 C39.7,165.5 39.4,165.6 39.1,165.6 C39.4,165.6 39.2,165.6 39.1,165.6 M46.6,160.4 C46.5,160.5 46.5,160.6 46.4,160.7 C46.5,160.6 46.5,160.5 46.6,160.4 M46.1,161 C46,161.1 45.9,161.2 45.9,161.3 C46,161.2 46.1,161.1 46.1,161 M45.6,161.6 C45.5,161.7 45.4,161.8 45.4,161.9 C45.5,161.8 45.5,161.7 45.6,161.6 M45.1,162.2 C45,162.3 44.9,162.4 44.8,162.4 C44.9,162.3 45,162.3 45.1,162.2 M44.5,162.7 C44.4,162.8 44.3,162.9 44.2,162.9 C44.3,162.8 44.4,162.8 44.5,162.7 M43.9,163.2 C43.8,163.3 43.7,163.3 43.6,163.4 C43.7,163.3 43.8,163.3 43.9,163.2 M43.3,163.7 C43.2,163.8 43.1,163.8 43,163.9 C43.1,163.8 43.2,163.7 43.3,163.7 M42.6,164.1 C42.5,164.2 42.4,164.2 42.3,164.3 C42.4,164.2 42.5,164.2 42.6,164.1 M41.8,164.5 C41.7,164.6 41.6,164.6 41.5,164.7 C41.6,164.6 41.7,164.6 41.8,164.5 M41.1,164.9 C41,164.9 40.9,165 40.8,165 C40.9,165 41,164.9 41.1,164.9 M40.2,165.2 C40.1,165.2 40,165.3 39.9,165.3 C40,165.3 40.1,165.3 40.2,165.2 M47,162.6 C46.9,162.7 46.8,162.8 46.6,162.9 C46.7,162.8 46.9,162.7 47,162.6 M46.2,163.1 C46.1,163.2 45.9,163.3 45.8,163.4 C46,163.3 46.1,163.2 46.2,163.1 M45.4,163.6 C45.3,163.7 45.1,163.8 44.9,163.8 C45.1,163.7 45.3,163.7 45.4,163.6 M44.5,164 C44.3,164.1 44.2,164.1 44,164.2 C44.2,164.2 44.3,164.1 44.5,164 M43.5,164.4 C43.3,164.5 43.1,164.5 43,164.6 C43.2,164.6 43.3,164.5 43.5,164.4 M42.4,164.8 C42.2,164.9 42,164.9 41.8,165 C42,164.9 42.2,164.9 42.4,164.8 M41.2,165.2 C41,165.3 40.8,165.3 40.6,165.4 C40.8,165.3 41,165.2 41.2,165.2 M48,161.8 C48.1,161.7 48.2,161.6 48.3,161.5 C48.2,161.6 48.1,161.7 48,161.8 M48.5,161.2 C48.6,161.1 48.7,161 48.8,160.9 C48.7,161 48.6,161.1 48.5,161.2 M49.1,160.6 C49.2,160.5 49.3,160.4 49.3,160.3 C49.2,160.4 49.1,160.5 49.1,160.6 M49.5,160 C49.6,159.9 49.6,159.8 49.7,159.7 C49.7,159.8 49.6,159.9 49.5,160 M52,154.5 C52,154.6 51.9,154.7 51.9,154.8 C51.9,154.7 52,154.6 52,154.5 M51.8,155.2 C51.8,155.3 51.7,155.4 51.7,155.5 C51.7,155.4 51.8,155.3 51.8,155.2 M51.6,155.8 C51.6,155.9 51.5,156 51.5,156.1 C51.5,156.1 51.5,155.9 51.6,155.8 M51.3,156.5 C51.3,156.6 51.2,156.7 51.2,156.8 C51.3,156.7 51.3,156.6 51.3,156.5 M51.1,157.1 C51.1,157.2 51,157.3 51,157.4 C51,157.4 51,157.3 51.1,157.1 M50.8,157.8 C50.7,157.9 50.7,158 50.6,158.1 C50.7,158 50.8,157.9 50.8,157.8 M50.5,158.5 C50.4,158.6 50.4,158.7 50.3,158.8 C50.4,158.7 50.4,158.6 50.5,158.5 M50.1,159.1 C50,159.2 50,159.3 49.9,159.4 C50,159.3 50.1,159.2 50.1,159.1 Z" style="stroke:none;fill-rule:nonzero;fill:#000000;fill-opacity:1;"></path>
    </g>
    <g id="Shape4">
      <desc type="0" transform="matrix(1,0,0,1,71.5807,157.75)"></desc>
      <path id="shapePath4" d="M84.5,169.2 C84.1,163.9 79.5,159.3 80.7,154 C81.9,149 83.4,143.1 81.1,138.2 C79.2,134.3 76,132.5 74.7,131.7 C74.6,131.6 74.5,131.6 74.4,131.5 C74.4,131.5 74.4,131.5 74.4,131.6 C76.4,135.8 75.3,140.3 74.7,142 C74.7,142.1 75.3,143.4 75.3,143.5 C75.6,144.8 75.8,146.2 75.8,147.6 C75.9,150.1 75.6,152.7 74.7,155 C72.6,160.3 66.1,161.9 62.9,166.5 C58.9,172.4 57.6,180.2 59.5,184 C59.5,184 59.5,184 59.6,184 C59.6,184 59.6,184 59.6,183.9 C59.1,176.9 64.1,172.9 69.3,168.6 C72.4,166.1 75.6,163.5 77.9,160.2 C78.3,161.7 79.1,163 79.9,164.2 C81.9,167.3 83.8,170.2 78.2,176.4 C78.2,176.4 78.2,176.4 78.2,176.5 C78.2,176.5 78.2,176.5 78.3,176.5 C83.7,174.6 84.6,171.5 84.5,169.2 C84.3,167.4 84.6,171.5 84.5,169.2 Z" style="stroke:none;fill-rule:nonzero;fill:#000000;fill-opacity:1;"></path>
    </g>
    <g id="Shape5">
      <desc type="0" transform="matrix(1,0,0,1,87.8063,145.994)"></desc>
      <path id="shapePath5" d="M88,142.7 C86.4,141 84.6,139.2 83.3,137.2 C83.2,137.4 83.1,137.5 83,137.7 C83.8,139.5 84.2,141.4 84.1,143.6 C86.1,144.6 88.8,146.5 89.7,148.9 C90.3,150.7 89.8,152.7 88.2,154.7 C88,154.9 88.9,154.7 88.6,154.7 C90,154.4 92.3,153 92.6,150.1 C92.8,147.7 90.6,145.4 88,142.7 C86.3,141.1 90.6,145.4 88,142.7 Z" style="stroke:none;fill-rule:nonzero;fill:#000000;fill-opacity:1;"></path>
    </g>
    <g id="Shape6">
      <desc type="0" transform="matrix(1,0,0,1,89,155.578)"></desc>
      <path id="shapePath6" d="M88.9,155.6 C89,155.6 89,155.6 89.1,155.6 C89,155.5 88.9,155.6 88.9,155.6 Z" style="stroke:none;fill-rule:nonzero;fill:#000000;fill-opacity:1;"></path>
    </g>
    <g id="Shape7">
      <desc type="0" transform="matrix(1,0,0,1,47.5486,140.902)"></desc>
      <path id="shapePath7" d="M57.3,126.5 C57.2,126.5 57.2,126.5 57.2,126.5 C57.2,126.5 57.1,126.4 57,126.4 C56.3,126 54,124.8 51.3,125.4 C49.5,125.7 47.9,126.7 46.3,128.3 C43.8,130.9 43.4,133.8 43,136.4 C42.5,139.6 42.1,142.1 38.2,142.9 C38.7,142.8 37.7,142.9 37.7,143 C37.6,143.6 40.3,143.7 40.6,143.7 C43,143.2 44.8,140.3 46.5,137.4 C47.7,135.5 48.8,133.6 50.1,132.6 C49.1,134 48.4,135.8 48.3,137.5 C48.1,141 47.6,144.5 46.4,147.8 C45.8,149.6 44.9,151.3 43.8,152.8 C43.5,153.2 39.6,156.7 39.5,156.4 C39.7,157.2 44.2,154.9 44.6,154.6 C46.5,153.2 47.8,151.2 48.8,149.1 C50.8,144.9 51.6,140.2 52.4,135.7 C52.5,135.1 52.5,135.2 52.4,135.5 C52.6,134.1 52.8,132.9 53.1,132 C54.5,128.9 55.6,127 57.2,126.7 C57.2,126.7 57.3,126.7 57.3,126.7 C57.3,126.7 57.4,126.7 57.4,126.7 C57.3,126.6 57.3,126.6 57.3,126.5 M40.5,143.5 C40.7,143.5 40.6,143.5 40.5,143.5 M51.3,125.4 C51.4,125.4 51.4,125.4 51.3,125.4 C51.3,125.4 51.2,125.4 51.2,125.4 C51.3,125.4 51.3,125.4 51.3,125.4 M57.2,126.5 C57.2,126.5 57.3,126.5 57.2,126.5 C57.3,126.5 57.2,126.5 57.2,126.5 M57.3,126.6 " style="stroke:none;fill-rule:nonzero;fill:#000000;fill-opacity:1;"></path>
    </g>
    <g id="Shape8">
      <desc type="0" transform="matrix(1,0,0,1,51.9,138.4)"></desc>
      <path id="shapePath8" d="M51.9,138.4 Z" style="stroke:none;fill-rule:evenodd;fill:#000000;fill-opacity:1;"></path>
    </g>
    <g id="Shape9">
      <desc type="0" transform="matrix(1,0,0,1,52.15,136.9)"></desc>
      <path id="shapePath9" d="M51.9,138.4 C52,138.1 52.3,136.1 52.4,135.4 C52.4,135.5 52.4,135.5 52.4,135.6 C52,137.4 51.9,138.2 51.9,138.4 Z" style="stroke:none;fill-rule:nonzero;fill:#000000;fill-opacity:1;"></path>
    </g>
    <g id="Shape10">
      <desc type="0" transform="matrix(1,0,0,1,49.4971,170.5)"></desc>
      <path id="shapePath10" d="M51.6,170.3 C51.6,170 50.9,166.1 51.1,166 C48.5,168.5 47.3,171.3 47.4,174.9 C47.4,174.9 47.4,174.9 47.4,175 C48.1,173.4 49.4,171.9 51.6,170.3 C51.5,170.3 51.6,170.3 51.6,170.3 C51.5,169.2 51.6,170.3 51.6,170.3 Z" style="stroke:none;fill-rule:nonzero;fill:#000000;fill-opacity:1;"></path>
    </g>
    <g id="Shape11">
      <desc type="0" transform="matrix(1,0,0,1,66.5451,155.422)"></desc>
      <path id="shapePath11" d="M73.3,145.9 C72.9,145.9 70.8,150.7 70.3,151.3 C69,153.2 67.4,155 65.6,156.5 C64.2,157.7 61.7,158.5 60.9,160.2 C60.6,160.7 59.2,164.6 59.7,164.9 C60.7,165.6 68.5,158.7 69.4,157.7 C71.1,156 72.6,153.9 73.2,151.6 C73.4,151.1 73.7,145.7 73.3,145.9 Z" style="stroke:none;fill-rule:nonzero;fill:#000000;fill-opacity:1;"></path>
    </g>
    <g id="Shape12">
      <desc type="0" transform="matrix(1,0,0,1,40.5196,152.35)"></desc>
      <path id="shapePath12" d="M38.4,153.1 C39.3,151.4 40.8,149.5 42.9,149.1 C42.4,149.2 41.2,149.4 42.9,149.1 C43.2,149 43.1,149.1 42.9,149.1 C42.9,149.1 43.4,149.1 43.9,149.1 C44.2,148.5 44.5,147.8 44.7,147.1 C45.3,145.4 45.8,143.5 46.1,141.5 C45.2,142.8 44.1,143.9 42.9,144.6 C42.8,144.7 42.6,144.9 42.5,145 L41.4,145.4 C41.1,145.5 40.9,145.5 40.7,145.5 C39.1,147.1 37.9,149.1 37,151.2 C36.6,152.3 34,163.1 35.3,163.2 C35,163.2 37.8,154.1 38.4,153.1 Z" style="stroke:none;fill-rule:nonzero;fill:#000000;fill-opacity:1;"></path>
    </g>
    <g id="Shape13">
      <desc type="0" transform="matrix(1,0,0,1,79.5,69.4)"></desc>
      <path id="shapePath13" d="M150.8,82.7 C150.5,82.5 150.1,82.4 149.7,82.4 C149.4,82.4 149,82.4 148.7,82.5 C148.4,82.5 148.1,82.5 147.7,82.5 L147.4,82.5 C146.2,82.5 144.6,82.4 142.9,82.4 C138.6,82.4 135.2,82.7 132.5,83.3 C135.7,82 139.3,81.7 141.5,81.5 C141.8,81.5 142.1,81.4 142.3,81.4 C142.6,81.5 143,81.6 143.4,81.6 C144.5,81.6 145.2,81.1 145.2,80.5 C145.2,79.9 144.5,79.5 143.4,79.5 C143.1,79.5 142.7,79.6 142.4,79.7 C142.1,79.7 141.7,79.8 141.3,79.8 C139.9,79.9 138,80.1 135.9,80.5 C139.7,78.5 143.4,77.2 146.1,76.3 C147.1,76 147.7,75.8 148.2,75.6 C148.5,75.6 148.9,75.6 149.3,75.4 C150.3,75.1 150.9,74.4 150.7,73.8 C150.5,73.2 149.6,73.1 148.7,73.4 C148.4,73.5 148.1,73.7 147.8,73.9 C147.3,74.1 146.5,74.4 145.6,74.7 C145.5,74.7 145.5,74.7 145.4,74.8 C145.3,74.5 145.1,74.2 144.8,74 C144.6,73.9 144.4,73.7 144.2,73.7 C144,73.5 143.8,73.3 143.6,73 C144.3,72.5 144.7,71.9 144.4,71.4 C144.3,71.2 144.1,71 143.5,71 C143.1,71 142.7,71.1 142.3,71.3 C142.2,71.3 142.2,71.4 142.1,71.4 C141.4,70.6 140.6,69.7 139.8,68.7 C139.9,68.6 140,68.4 140.2,68.3 C141.4,69.2 142.5,69.8 143.2,70.2 C143.3,70.3 143.5,70.5 143.7,70.6 C144,70.7 144.2,70.8 144.5,70.8 C145,70.8 145.2,70.5 145.2,70.4 C145.4,70 145.1,69.4 144.4,69.1 C144.2,69 144,68.9 143.7,68.9 C143.2,68.6 142.2,68 141.2,67.2 C141.3,67.1 141.4,67 141.5,66.9 C143.3,67.7 145,68.3 146.1,68.6 C146.4,68.7 146.7,68.8 147,68.9 C147.2,69.1 147.4,69.2 147.7,69.3 C148.4,69.5 149,69.4 149.2,68.9 C149.3,68.7 149.2,68.6 149.2,68.4 C149.1,68.1 148.7,67.9 148.3,67.7 C148.1,67.6 147.9,67.6 147.7,67.6 C147.4,67.5 147.1,67.4 146.7,67.2 C145.7,66.9 144.2,66.4 142.7,65.7 C142.7,65.7 142.7,65.7 142.8,65.6 C143,65.5 143.2,65.5 143.3,65.4 C143.5,65.4 143.7,65.4 143.8,65.4 L143.9,65.4 C144.1,65.5 144.4,65.6 144.7,65.6 C145.5,65.7 146,65.4 146,64.9 C146,64.4 145.5,64 144.8,64 C144.7,64 144.6,64 144.5,64 C144.5,63.9 144.6,63.9 144.6,63.8 C144.6,63.8 144.6,63.8 144.6,63.7 C144.6,63.7 144.7,63.7 144.7,63.7 C145.8,63.7 146.8,63.7 147.5,63.6 L147.8,63.6 C148,63.7 148.2,63.7 148.5,63.7 C148.5,63.7 148.6,63.7 148.6,63.7 C149.1,63.7 149.4,63.5 149.7,63.3 C149.8,63.2 149.9,63 149.9,62.8 C149.9,62.4 149.4,62 148.7,62 L148.6,62 C148.4,62 148.2,62.1 148,62.1 L147.5,62.1 C146.8,62.1 145.9,62.2 144.8,62.2 C142.2,62.2 140.2,62 138.6,61.7 C140.4,61.7 142.7,61.6 144,61.5 C144.2,61.5 144.4,61.5 144.6,61.5 C145,61.4 145.4,61.2 145.6,61 C145.7,60.8 145.8,60.7 145.7,60.5 C145.7,60.3 145.6,60.2 145.4,60.1 C145.5,60.1 145.5,60.1 145.6,60.1 C145.9,60.1 146.1,60 146.3,59.8 C146.7,59.5 146.7,59.2 146.7,59.1 C146.6,58.6 146.1,58.4 145.3,58.5 C145.1,58.5 144.9,58.6 144.7,58.7 C144,58.8 142.6,58.9 141,59.1 C141.3,59 141.6,58.9 141.8,58.8 L142.1,58.7 C142.3,58.7 142.6,58.7 142.8,58.6 C143.2,58.5 143.6,58.2 143.7,58 C143.8,57.8 143.8,57.7 143.8,57.5 C143.7,57 143,56.9 142.3,57.1 C142.1,57.2 141.9,57.3 141.7,57.4 L141.3,57.5 C140.9,57.6 140.5,57.8 140,57.9 C142.3,56.8 144.8,56 146,55.6 L146.5,55.4 C146.7,55.4 147,55.4 147.2,55.3 C147.5,55.2 147.7,55.1 147.9,55 C148.3,54.7 148.3,54.4 148.2,54.2 C148.1,53.7 147.4,53.6 146.8,53.7 C146.6,53.8 146.4,53.8 146.2,53.9 C146,54 145.8,54 145.5,54.1 C144,54.6 141.6,55.4 139.3,56.5 C140.3,55.9 141.3,55.4 141.9,55.1 L142.3,54.9 C142.5,54.9 142.8,54.9 143,54.8 C143.4,54.6 143.7,54.4 143.9,54.1 C144,53.9 144,53.7 143.9,53.6 C143.8,53.5 143.7,53.2 143.1,53.2 C142.9,53.2 142.6,53.2 142.4,53.3 C142.2,53.4 142,53.5 141.9,53.6 C141.7,53.7 141.5,53.8 141.3,53.9 C140.8,54.1 140.1,54.5 139.3,54.9 C140.8,53.4 142.3,52.1 143.5,51.2 C144,50.8 144.3,50.6 144.5,50.3 C144.7,50.2 144.9,50.1 145.1,50 C145.5,49.7 145.7,49.4 145.7,49.1 C145.7,48.9 145.7,48.7 145.6,48.6 C145.3,48.2 144.7,48.3 144.1,48.8 C143.9,48.9 143.8,49.1 143.7,49.3 C143.5,49.5 143,49.9 142.6,50.2 C141.2,51.3 139.2,52.9 137.4,55 C138.7,52.9 140.1,51.1 140.6,50.5 C140.8,50.4 141,50.3 141.1,50.1 C141.4,49.8 141.6,49.4 141.6,49.1 C141.6,48.9 141.5,48.7 141.4,48.6 C141.1,48.3 140.4,48.4 139.9,49 C139.7,49.2 139.6,49.4 139.5,49.6 C138.9,50.3 137.4,52.1 136.1,54.3 C137.1,50.6 138.6,47.3 139.1,46 C139.2,45.9 139.4,45.7 139.5,45.5 C139.7,45.1 139.9,44.7 139.8,44.4 C139.8,44.2 139.7,44.1 139.5,44 C139.1,43.7 138.5,44 138.1,44.6 C137.9,44.8 137.8,45.1 137.8,45.3 C137.1,46.9 133.8,54.3 133.5,60.2 L116.6,63.9 C117.5,62.8 118.2,61.9 118.7,61.3 C118.9,61.2 119.1,61.1 119.3,60.9 C119.9,60.4 120.1,59.8 119.8,59.4 C119.5,59 118.8,59.1 118.2,59.6 C118,59.8 117.8,60 117.7,60.2 C117.2,60.8 116,62.3 114.5,64.2 L93,68.9 C93,68.8 93,68.8 93,68.7 C92.6,69 92.1,69.1 91.6,69.1 C90.6,69.1 89.6,68.5 88.9,67.7 C88.3,66.9 88.1,66 88.3,65.3 C87.5,65.9 86.6,66.1 85.9,66.1 C85.6,66.1 85.3,66 85.1,65.9 L86,60.5 L92.4,48.9 C99.1,51.1 108.5,50.7 110.9,50.5 C111.1,50.5 111.4,50.5 111.6,50.5 C112.4,50.3 112.9,49.9 112.8,49.3 C112.7,48.8 112,48.6 111.2,48.7 C110.9,48.8 110.6,48.9 110.4,49 C109.5,49.1 108,49.1 106.3,49.1 C104.4,49.1 102,49 99.4,48.8 C102.4,48.3 105.1,47.5 106.4,47.1 C106.6,47.1 106.9,47 107.1,46.9 C107.9,46.6 108.3,46 108,45.5 C107.9,45.4 107.7,45.1 107.2,45.1 C106.9,45.1 106.6,45.2 106.3,45.3 C106,45.4 105.8,45.6 105.6,45.8 C104.3,46.2 101.6,47 98.7,47.5 C102.2,46.3 105.2,44.6 107.2,43.4 L107.3,43.4 C107.6,43.2 107.9,43 108.2,42.9 C108.5,42.9 108.8,42.8 109.1,42.6 C109.8,42.2 110.2,41.5 109.9,41.1 C109.8,41 109.6,40.8 109.2,40.8 C108.9,40.8 108.5,40.9 108.2,41.1 C108,41.2 107.8,41.4 107.7,41.5 C107.4,41.7 107,41.9 106.6,42.2 C105,43.2 102.8,44.5 100.1,45.5 C101.1,44.7 101.9,43.9 102.5,43.3 L102.7,43.1 C103,43 103.3,42.8 103.5,42.6 C103.9,42.2 104.1,41.8 104.1,41.5 C104.1,41.2 104,41.1 103.9,41 C103.8,40.9 103.6,40.8 103.4,40.8 C103.1,40.8 102.6,41 102.3,41.4 C102.1,41.6 102,41.7 101.9,41.9 C101.8,42 101.6,42.2 101.5,42.3 C100.6,43.1 99.2,44.5 97.5,45.6 C100.1,43.4 102.6,40.4 104,38.7 L104.2,38.4 C104.4,38.3 104.7,38.1 104.9,37.8 C105.2,37.4 105.4,36.9 105.4,36.6 C105.4,36.3 105.2,36.2 105.1,36.1 C104.7,35.8 104,36 103.5,36.7 C103.3,36.9 103.2,37.1 103.1,37.3 C103,37.4 102.9,37.6 102.7,37.7 C101.2,39.5 97.7,43.7 94.6,45.8 C96.2,44 98.2,41.5 99.2,40.1 C99.4,39.9 99.5,39.8 99.7,39.5 C100,39.1 100.1,38.6 100,38.2 C99.9,38 99.8,37.8 99.7,37.8 C99.3,37.6 98.8,37.8 98.5,38.2 C98.5,38.2 98.6,38.1 98.6,38.1 C98.8,38 99.1,37.7 99.3,37.4 C99.8,36.7 99.8,36 99.3,35.7 C99.2,35.6 99.1,35.6 98.9,35.6 C98.4,35.6 98,36 97.7,36.4 C97.6,36.6 97.5,36.8 97.4,37 C96.7,37.9 95.5,39.6 94.3,41.4 C94.6,40.7 94.9,40 95.1,39.6 L95.3,39.2 C95.5,39 95.7,38.8 95.8,38.5 C96,38 96.1,37.6 96,37.2 C95.9,37 95.8,36.8 95.6,36.8 C95.5,36.8 95.4,36.7 95.3,36.7 C94.8,36.7 94.4,37.2 94.2,37.7 C94.1,37.9 94,38.2 94,38.4 L93.8,38.9 C93.5,39.6 93,40.6 92.6,41.7 C93.4,38.5 94.8,35 95.6,33.1 L95.9,32.5 C96.1,32.3 96.3,32.1 96.4,31.8 C96.6,31.3 96.7,30.9 96.6,30.5 C96.5,30.3 96.4,30.1 96.2,30.1 C96.1,30.1 96,30 95.9,30 C95.4,30 95,30.5 94.8,31 C94.7,31.2 94.6,31.5 94.6,31.7 C94.5,31.9 94.4,32.2 94.3,32.5 C93.4,34.5 92,38.1 91.2,41.4 C91.4,39.4 91.9,37.5 92.3,36.4 C92.4,36.2 92.4,36 92.5,35.8 C92.7,35.6 92.8,35.4 92.9,35.1 C93.1,34.6 93.1,34.1 93,33.8 C92.9,33.6 92.7,33.5 92.6,33.4 C92.5,33.4 92.4,33.4 92.4,33.4 C91.9,33.4 91.5,34 91.3,34.5 C91.2,34.7 91.2,35 91.2,35.2 C91.1,35.4 91.1,35.6 91,35.9 L91,36 C90.8,36.8 90.5,37.9 90.2,39.1 C90.1,38.3 90.1,37.6 90.1,36.8 L92,25.2 C97.7,25.1 104.8,22.3 106.9,21.4 C107.1,21.4 107.3,21.3 107.5,21.2 C108.1,20.8 108.4,20.3 108.2,19.8 C108.1,19.7 107.9,19.5 107.6,19.5 C107.3,19.5 107,19.6 106.7,19.8 C106.5,19.9 106.3,20.1 106.2,20.2 C105,20.7 101.7,22 98.1,22.9 C100.1,21.8 101.8,20.5 102.6,19.9 C102.8,19.8 103,19.7 103.1,19.5 C103.4,19.2 103.6,18.8 103.6,18.5 C103.6,18.3 103.5,18.1 103.4,18 C103.1,17.7 102.4,17.8 101.9,18.3 C101.7,18.5 101.6,18.7 101.5,18.9 C100.8,19.5 99.2,20.6 97.3,21.7 C99.5,19.9 101.2,17.9 102.2,16.6 C102.4,16.4 102.6,16.1 102.8,15.9 C103,15.8 103.2,15.6 103.4,15.4 C103.7,15.1 103.9,14.7 103.8,14.4 C103.8,14.2 103.7,14.1 103.6,13.9 C103.3,13.6 102.6,13.8 102.2,14.4 C102.1,14.6 102,14.7 101.9,14.9 C101.7,15.1 101.5,15.4 101.2,15.7 C100.3,16.7 99,18.3 97.4,19.7 C97.8,19 98.2,18.3 98.4,17.8 L98.5,17.6 C98.7,17.5 98.9,17.2 99,16.9 C99.2,16.5 99.3,16.1 99.2,15.8 C99.1,15.6 99,15.5 98.9,15.4 C98.8,15.4 98.7,15.3 98.6,15.3 C98.2,15.3 97.8,15.7 97.6,16.1 C97.5,16.3 97.5,16.4 97.4,16.6 L97.2,17 C96.8,17.7 96.4,18.7 95.7,19.7 C96.9,17.5 97.7,15 98.3,13.5 L98.4,13.2 C98.6,13 98.7,12.8 98.8,12.5 C98.9,12.1 99,11.7 98.8,11.4 C98.7,11.2 98.6,11.1 98.4,11.1 C98.4,11.1 98.2,11.1 98.2,11.1 C97.7,11.1 97.4,11.6 97.2,12.1 C97.1,12.3 97.1,12.5 97.1,12.7 L96.9,13.1 C96.3,14.8 94.9,18.6 93.2,21.2 C93.9,19.4 94.7,17.3 95,16.1 C95.1,15.9 95.2,15.7 95.2,15.5 C95.3,15.1 95.3,14.6 95.1,14.4 C95,14.2 94.9,14.1 94.7,14.1 C94.5,14.1 94.3,14.1 94.2,14.2 C94.2,14.1 94.2,14.1 94.3,14 C94.5,13.3 94.3,12.7 93.8,12.6 C93.8,12.6 93.7,12.6 93.7,12.6 C93.2,12.6 92.9,13.2 92.7,13.7 C92.6,13.9 92.6,14.1 92.6,14.3 C92.4,15 92,16.3 91.6,17.8 C91.6,17.5 91.6,17.2 91.7,17 L91.7,16.7 C91.8,16.5 91.9,16.2 91.9,16 C91.9,15.6 91.9,15.1 91.7,14.9 C91.6,14.8 91.4,14.7 91.2,14.7 C90.7,14.7 90.4,15.2 90.3,15.9 C90.3,16.1 90.3,16.3 90.3,16.5 L90.3,17 C90.3,17.4 90.2,17.9 90.2,18.4 C90,15.9 90.2,13.3 90.3,12 L90.3,11.5 C90.4,11.3 90.5,11.1 90.5,10.8 C90.6,10.4 90.5,9.89999 90.3,9.7 C90.2,9.60001 90,9.5 89.8,9.39999 C89.3,9.39999 89,9.89999 88.9,10.6 C88.9,10.8 88.9,11 88.9,11.2 C88.9,11.4 88.9,11.6 88.9,11.9 C88.8,13.5 88.6,16 88.8,18.5 C88.6,17.3 88.6,16.3 88.5,15.6 L88.5,15.1 C88.6,14.9 88.6,14.7 88.6,14.4 C88.6,13.9 88.5,13.5 88.3,13.3 C88.2,13.2 88,13.1 87.8,13.1 C87.3,13.1 87,13.6 87,14.4 C87,14.6 87,14.8 87.1,15 C87.1,15.2 87.1,15.4 87.1,15.7 C87.1,16.3 87.2,17 87.3,17.9 C86.4,15.9 85.9,14.1 85.5,12.7 C85.3,12.1 85.2,11.7 85.1,11.4 C85.1,11.2 85.1,10.9 85,10.7 C84.9,10.2 84.5,9.7 84,9.7 C84,9.7 83.9,9.7 83.8,9.7 C83.3,9.8 83.2,10.4 83.4,11.2 C83.5,11.4 83.6,11.6 83.7,11.8 C83.8,12.1 84,12.7 84.1,13.1 C84.6,14.7 85.3,17.2 86.6,19.7 C85.1,17.7 84,15.7 83.6,15 C83.6,14.8 83.5,14.6 83.4,14.4 C83.2,14 82.8,13.5 82.4,13.5 C82.3,13.5 82.2,13.5 82.1,13.6 C82,13.7 81.7,13.8 81.7,14.3 C81.7,14.5 81.8,14.8 81.9,15.1 C82,15.3 82.2,15.6 82.3,15.7 C82.7,16.5 83.9,18.5 85.4,20.6 C82.4,18.3 79.8,15.7 78.9,14.7 C78.8,14.5 78.8,14.3 78.6,14.1 C78.2,13.5 77.6,13.3 77.2,13.5 C76.8,13.8 76.8,14.4 77.2,15 C77.4,15.2 77.6,15.4 77.8,15.5 C78.7,16.5 82.2,20.1 86.2,22.8 C85.9,23.1 85.7,23.4 85.5,23.8 C85.3,24.2 85.2,24.5 85.2,24.9 C84.5,25.9 83.2,27.9 81.4,30.3 C81.2,30 81,29.8 80.6,29.8 C80.6,29.8 80.5,29.8 80.4,29.8 C80.3,29.8 80.1,29.9 80,30.1 C79.8,30.4 79.8,30.9 79.9,31.4 C79.9,31.6 80,31.7 80.1,31.8 C78.6,33.7 77,35.7 75.2,37.6 C77.4,33.6 78.9,29.4 79.5,27.4 C79.7,27.1 79.8,26.8 79.9,26.5 C80,26.1 80,25.7 79.9,25.3 C79.8,24.7 79.4,24.5 79.2,24.5 C79.2,24.5 79.1,24.5 79,24.5 C78.4,24.5 77.9,25.3 77.7,26.1 C77.6,26.5 77.6,26.9 77.7,27.2 C77.1,29 75.4,33.7 73,37.9 C75.1,32.4 75.6,26.8 76,23.4 C76.1,22.9 76.1,22.4 76.2,21.9 C76.4,21.6 76.5,21.2 76.6,20.7 C76.7,20 76.5,19.4 76.3,19.1 C76.1,18.9 75.9,18.8 75.7,18.8 C75.1,18.8 74.6,19.5 74.5,20.5 C74.5,20.8 74.5,21.1 74.5,21.4 C74.4,21.9 74.4,22.5 74.3,23.2 C74,26 73.6,29.9 72.5,34.1 C72.5,31.9 72.2,30 72,28.6 L72,28.2 C72.1,27.9 72.2,27.4 72.1,26.9 C72,26.1 71.6,25.3 70.9,25.3 C70.9,25.3 70.8,25.3 70.8,25.3 C70.7,25.3 70.5,25.4 70.3,25.6 C70,25.9 69.9,26.5 70,27.2 C70,27.5 70.1,27.7 70.2,28 C70.2,28.2 70.3,28.5 70.3,28.8 C70.4,29.8 70.6,31.2 70.7,32.7 L68.7,26 C68.4,24.9 68.2,23.9 68,23.1 C67.9,22.9 67.9,22.7 67.9,22.6 C68,22.2 67.9,21.8 67.8,21.4 C67.7,20.9 67.4,20.3 67,20.1 C72.1,17.5 77.2,11.8 78.7,10.1 C78.9,10 79,9.8 79.1,9.60001 C79.5,9 79.5,8.39999 79.1,8.10001 C78.7,7.89999 78.1,8.10001 77.7,8.7 C77.6,8.89999 77.5,9.10001 77.4,9.3 C76.5,10.3 74.1,12.9 71.3,15.3 C72.6,13.4 73.6,11.5 74,10.6 C74.1,10.4 74.2,10.2 74.3,10 C74.5,9.60001 74.5,9.2 74.3,8.89999 C74.2,8.7 74.1,8.60001 73.9,8.5 C73.9,8.5 73.7,8.5 73.7,8.5 C73.2,8.5 72.9,9 72.7,9.39999 C72.6,9.60001 72.6,9.89999 72.6,10.1 C72.2,10.9 71.3,12.6 70.1,14.4 C71.2,11.9 71.8,9.39999 72.3,7.7 L72.3,7.60001 C72.4,7.3 72.4,7.10001 72.5,6.89999 C72.6,6.7 72.8,6.5 72.8,6.2 C72.9,5.8 72.9,5.3 72.7,5.10001 C72.6,4.9 72.5,4.8 72.3,4.8 C72.3,4.8 72.2,4.8 72.2,4.8 C71.7,4.8 71.4,5.39999 71.3,5.89999 C71.2,6.10001 71.2,6.3 71.2,6.5 C71.1,6.8 71,7.10001 70.9,7.60001 C70.5,9 70.1,10.9 69.3,12.9 C69.4,12 69.4,11.3 69.4,10.7 L69.4,10.5 C69.5,10.3 69.6,10 69.6,9.7 C69.6,9.2 69.5,8.8 69.3,8.60001 C69.2,8.5 69,8.39999 68.8,8.39999 C68.3,8.39999 68,8.89999 68,9.7 C68,9.89999 68,10.1 68.1,10.2 L68.1,10.7 C68.1,11.4 68.1,12.5 67.9,13.7 C67.9,11.2 67.7,8.7 67.5,7.10001 L67.5,6.8 C67.6,6.60001 67.6,6.3 67.6,6 C67.5,5.3 67.2,4.8 66.6,4.8 C66.1,4.9 65.9,5.39999 65.9,6.2 C65.9,6.39999 66,6.60001 66.1,6.8 L66.1,7.3 C66.3,9.10001 66.7,13.1 66.3,16.2 C66.2,14.3 65.9,12.1 65.7,10.8 C65.7,10.6 65.7,10.4 65.6,10.2 C65.4,9.60001 65.1,9.10001 64.7,9.10001 C64.7,9.10001 64.6,9.10001 64.6,9.10001 C64.4,9.10001 64.3,9.2 64.2,9.39999 C64.2,9.3 64.2,9.3 64.2,9.2 C64.1,8.5 63.7,8.10001 63.3,8.10001 C63.3,8.10001 63.2,8.10001 63.2,8.10001 C62.7,8.2 62.5,8.8 62.7,9.5 C62.7,9.7 62.8,9.89999 62.9,10.1 C63,10.9 63.2,12.2 63.5,13.7 C63.4,13.4 63.3,13.1 63.2,12.9 L63.1,12.6 C63.1,12.4 63.1,12.1 63,11.9 C62.8,11.4 62.5,11 62,11 C61.9,11 61.8,11 61.8,11 C61.6,11.1 61.5,11.2 61.4,11.4 C61.3,11.7 61.3,12.1 61.5,12.5 C61.6,12.7 61.7,12.9 61.8,13 L62,13.4 C62.1,13.8 62.3,14.2 62.5,14.7 C61.3,12.5 60.2,10.1 59.7,8.8 L59.5,8.39999 C59.5,8.2 59.5,7.89999 59.4,7.7 C59.2,7.3 58.9,6.7 58.4,6.7 C58.3,6.7 58.2,6.7 58.2,6.7 C58,6.8 57.9,6.89999 57.8,7 C57.7,7.3 57.7,7.7 57.8,8.10001 C57.9,8.3 58,8.5 58.1,8.60001 C58.2,8.8 58.3,9 58.4,9.3 C59,10.8 60,13.1 61.3,15.3 C60.6,14.3 60.1,13.4 59.7,12.7 C59.6,12.5 59.5,12.4 59.5,12.3 C59.5,12.1 59.4,11.8 59.3,11.6 C59.1,11.2 58.7,10.7 58.3,10.7 C58.2,10.7 58.1,10.7 58,10.8 C57.9,10.9 57.6,11 57.6,11.5 C57.6,11.7 57.7,12 57.8,12.3 C57.9,12.5 58,12.7 58.1,12.8 C58.2,13 58.3,13.2 58.4,13.4 C58.4,13.5 58.5,13.5 58.5,13.6 C58.4,13.7 58.3,13.9 58.3,14.1 C58.3,14.1 58.3,14.2 58.3,14.2 C57.2,13.2 56.3,12.2 55.6,11.4 C55.2,11 54.9,10.6 54.7,10.4 C54.6,10.2 54.5,10 54.3,9.8 C53.8,9.3 53.2,9.10001 52.8,9.39999 C52.4,9.7 52.6,10.3 53.1,10.9 C53.3,11.1 53.4,11.2 53.6,11.3 C53.8,11.5 54.2,12 54.6,12.3 C55.4,13.1 56.5,14.3 57.8,15.5 C57.7,15.6 57.7,15.8 57.6,15.9 C56.4,15.2 55.4,14.5 55,14.2 C54.9,14 54.7,13.9 54.6,13.7 C54,13.2 53.4,13.2 53.1,13.5 C53.1,13.6 53,13.6 53,13.7 C53,13.6 53,13.5 53,13.5 C53.1,13.3 53.1,13 53.1,12.7 C53.1,12 52.7,11.4 52.3,11.4 C51.8,11.4 51.5,11.9 51.5,12.7 C51.5,12.9 51.5,13.1 51.6,13.3 C51.6,13.6 51.6,13.9 51.6,14.4 C51.6,14.9 51.6,15.5 51.6,16.2 C51.2,16.1 50.9,16 50.7,15.9 C50.6,15.8 50.4,15.6 50.2,15.5 C49.6,15.2 49.1,15.5 48.7,15.6 C48.6,15.6 48.5,15.6 48.5,15.7 C48.4,15.4 48.3,15.1 48.2,14.8 L48.1,14.5 C48.1,14.3 48.1,14 48,13.7 C47.8,13.3 47.5,12.8 47,12.8 C46.9,12.8 46.8,12.8 46.8,12.8 C46.4,13 46.2,13.6 46.5,14.3 C46.6,14.5 46.7,14.7 46.8,14.8 L47,15.2 C47.6,16.9 49.1,20.7 49.5,23.7 C48.9,21.9 48.1,19.8 47.5,18.7 C47.5,18.5 47.4,18.3 47.3,18.1 C47.1,17.7 46.7,17.3 46.3,17.3 C46.2,17.3 46.1,17.3 46,17.4 C45.9,17.5 45.7,17.6 45.7,17.8 C45.7,17.7 45.7,17.7 45.6,17.6 C45.4,17.2 45,16.8 44.6,16.8 C44.5,16.8 44.4,16.8 44.3,16.9 C43.9,17.1 43.8,17.7 44.2,18.4 C44.3,18.6 44.4,18.7 44.5,18.9 C44.8,19.6 45.4,20.9 46,22.2 C45.8,21.9 45.6,21.7 45.5,21.5 L45.3,21.2 C45.2,21 45.1,20.7 45,20.5 C44.6,19.9 43.9,19.7 43.6,19.9 C43.5,20 43.4,20.2 43.3,20.3 C43.2,20.6 43.4,21 43.6,21.4 C43.7,21.6 43.9,21.7 44,21.8 L44.3,22.2 C44.5,22.5 44.8,22.9 45.1,23.3 C44,22.2 43,21 42.2,20 C42.3,19.8 42.3,19.7 42.3,19.5 C42.3,19.1 42.2,18.6 42,18.4 C41.9,18.3 41.7,18.2 41.5,18.2 C41.3,18.2 41.1,18.3 40.9,18.5 C40.9,18.4 40.8,18.4 40.8,18.3 L40.5,17.9 C40.5,17.7 40.3,17.5 40.2,17.2 C40,16.9 39.6,16.5 39.2,16.5 C39.1,16.5 38.9,16.5 38.8,16.6 C38.7,16.7 38.6,16.8 38.5,17 C38.4,17.3 38.6,17.7 38.8,18.1 C38.9,18.3 39.1,18.4 39.2,18.6 C39.3,18.8 39.5,18.9 39.6,19.2 C39.9,19.5 40.2,19.9 40.5,20.3 C40.5,20.4 40.4,20.6 40.4,20.7 C40.1,20.6 39.8,20.6 39.6,20.7 C39.5,20.8 39.4,21 39.4,21.2 C39.4,21.5 39.5,21.9 39.8,22.2 C39.8,22.3 39.9,22.3 39.9,22.3 C39.8,22.6 39.7,22.9 39.6,23.2 C39.1,22.9 38.6,22.6 38.2,22.3 C38.2,22.2 38.2,22 38.2,21.9 C38.1,21.2 37.7,20.7 37.2,20.7 C36.9,20.7 36.7,21 36.6,21.3 C36.5,21.2 36.4,21.1 36.2,21.1 C36.1,20.9 35.9,20.8 35.7,20.6 C35.5,20.5 35.4,20.4 35.2,20.4 C35.2,20.3 35.1,20.1 35.1,20 C35.1,19.8 35.1,19.5 35.1,19.2 C34.9,18.6 34.6,18.1 34.1,18.1 C34.1,18.1 34,18.1 33.9,18.1 C33.4,18.2 33.2,18.8 33.4,19.5 C33.4,19.7 33.5,19.9 33.6,20 C33.7,20.3 33.7,20.6 33.9,21.1 C34.2,22.4 34.7,24.3 34.9,26.5 C34.6,25.7 34.2,25.1 34,24.5 C34,24.4 33.9,24.4 33.9,24.3 C33.9,24.1 33.8,23.8 33.7,23.5 C33.5,23.1 33.1,22.7 32.7,22.7 C32.6,22.7 32.5,22.7 32.4,22.8 C32.2,22.9 32.1,23 32.1,23.2 C32,23.5 32.1,23.9 32.3,24.3 C32.4,24.5 32.5,24.6 32.6,24.7 C32.7,24.8 32.7,25 32.8,25.1 C33.1,25.7 33.5,26.5 33.9,27.4 C33.9,27.4 33.9,27.4 33.8,27.4 C32.7,25.3 31.4,23.4 30.6,22.2 L30.4,21.9 C30.4,21.7 30.2,21.4 30.1,21.2 C29.7,20.6 29.1,20.4 28.7,20.6 C28.3,20.9 28.3,21.5 28.8,22.1 C28.9,22.3 29.1,22.4 29.2,22.5 L29.5,22.9 C30.1,23.8 31.2,25.4 32.2,27.2 C32,27.3 31.9,27.4 31.8,27.6 C31.4,27.1 31.1,26.6 30.8,26.2 C30.7,26 30.6,25.8 30.5,25.7 C30,25.2 29.4,25 29,25.3 C28.9,25.4 28.8,25.6 28.8,25.8 C28.8,25.7 28.7,25.7 28.7,25.7 C28.2,25.1 27.6,25 27.3,25.3 C27.2,25.4 27,25.6 27.1,26.1 C27.2,26.3 27.3,26.6 27.5,26.8 C27.6,27 27.8,27.1 27.9,27.2 C28.4,27.8 29.2,28.9 30.2,30.1 C30,29.9 29.7,29.7 29.6,29.6 L29.4,29.4 C29.3,29.2 29.1,29 28.9,28.8 C28.4,28.3 27.7,28.2 27.4,28.6 C27.3,28.7 27.2,28.9 27.2,29.1 C27.2,29.4 27.4,29.8 27.8,30.1 C28,30.2 28.1,30.4 28.3,30.4 L28.7,30.7 C29,31 29.4,31.3 29.8,31.6 C27.7,30.3 25.7,28.6 24.6,27.7 L24.2,27.4 C24.1,27.2 24,27 23.8,26.8 C23.3,26.3 22.6,26.2 22.3,26.5 C22.2,26.6 22.1,26.8 22.1,27 C22.1,27.3 22.3,27.7 22.6,28 C22.8,28.1 22.9,28.3 23.1,28.4 C23.3,28.5 23.4,28.7 23.7,28.9 C24.9,29.9 26.9,31.5 29,32.9 C27.9,32.4 27.1,31.8 26.4,31.4 C26.3,31.3 26.1,31.2 26,31.2 C25.9,31 25.7,30.8 25.5,30.7 C24.9,30.3 24.3,30.2 24,30.6 C23.9,30.7 23.9,30.9 23.9,31.1 C23.9,31.4 24.2,31.8 24.6,32 C24.8,32.1 25,32.2 25.2,32.3 C25.4,32.4 25.5,32.5 25.7,32.6 C26.2,32.9 26.8,33.3 27.6,33.7 C25.5,33.2 23.6,32.6 22.3,32.1 C21.7,31.9 21.3,31.8 21,31.7 C20.8,31.6 20.6,31.4 20.4,31.4 C20.2,31.3 20,31.3 19.7,31.3 C19.1,31.3 18.9,31.6 18.9,31.8 C18.7,32.3 19.1,32.7 19.8,33 C20,33.1 20.2,33.1 20.4,33.1 C20.7,33.2 21.3,33.4 21.8,33.5 C23.4,34.1 25.8,34.9 28.6,35.4 C28.4,35.4 28.3,35.4 28.1,35.4 C25.8,35.4 23.7,35.2 23,35.1 C22.8,35 22.6,34.9 22.4,34.9 C22.3,34.9 22.1,34.9 22,34.9 C21.4,34.9 21.1,35.2 21,35.5 C20.9,36 21.4,36.4 22.1,36.5 C22.4,36.6 22.6,36.6 22.8,36.5 C23.5,36.6 25.6,36.9 28,36.9 C28.2,36.9 28.4,36.9 28.6,36.9 C24.9,38 21.3,38.5 20,38.7 C19.8,38.6 19.6,38.6 19.3,38.6 C18.6,38.6 18.1,38.9 18.1,39.4 C18.1,39.6 18.2,39.7 18.3,39.9 C18.5,40.1 18.9,40.3 19.4,40.3 C19.7,40.3 19.9,40.3 20.1,40.2 C21.8,40 29.9,38.8 35,35.9 L37.2,38.1 C37.2,38.1 37.2,38.2 37.2,38.2 C37.7,39.6 38.3,41.4 38.7,43.5 C38.3,42.7 37.9,42.1 37.6,41.6 L37.5,41.4 C37.5,41.2 37.4,40.9 37.2,40.6 C36.8,40 36.2,39.7 35.8,40 C35.4,40.3 35.4,40.9 35.8,41.5 C35.9,41.7 36,41.8 36.1,41.9 L36.3,42.3 C36.7,43 37.3,43.9 37.8,45 C36.5,42.8 34.9,40.8 33.9,39.6 L33.7,39.4 C33.6,39.2 33.5,38.9 33.3,38.7 C32.8,38.1 32.2,37.9 31.9,38.2 C31.5,38.5 31.6,39.1 32.1,39.7 C32.2,39.9 32.4,40 32.5,40.1 L32.8,40.5 C33.9,41.9 36.4,45.1 37.7,47.9 C36.6,46.4 35.2,44.6 34.3,43.7 C34.2,43.5 34.1,43.3 33.9,43.2 C33.4,42.7 32.7,42.6 32.4,42.9 C32.3,43 32.2,43.2 32.2,43.4 C32.2,43.4 32.1,43.3 32.1,43.3 C31.8,43 31.4,42.8 31.1,42.8 C30.9,42.8 30.7,42.9 30.6,43 C30.3,43.3 30.4,43.9 30.9,44.5 C31,44.6 31.2,44.8 31.4,44.9 C31.9,45.5 32.8,46.5 33.9,47.6 C33.6,47.4 33.4,47.2 33.2,47.1 L32.9,46.9 C32.8,46.7 32.6,46.5 32.4,46.3 C31.8,45.9 31.2,45.8 30.9,46.2 C30.8,46.3 30.8,46.5 30.8,46.7 C30.8,47 31.1,47.4 31.4,47.6 C31.6,47.8 31.8,47.9 32,47.9 L32.4,48.2 C32.7,48.4 33.1,48.7 33.5,49 C31.3,47.8 29.1,46.3 28,45.6 L27.6,45.3 C27.5,45.1 27.3,44.9 27.1,44.8 C26.5,44.4 25.9,44.3 25.6,44.6 C25.5,44.7 25.4,44.9 25.5,45.1 C25.5,45.4 25.8,45.8 26.1,46 C26.3,46.1 26.5,46.2 26.6,46.3 C26.8,46.4 27,46.6 27.2,46.7 C28.5,47.6 30.6,49.1 32.8,50.2 C31.7,49.8 30.8,49.3 30.1,48.9 C29.9,48.8 29.8,48.7 29.7,48.7 C29.6,48.5 29.4,48.4 29.2,48.2 C28.9,48 28.6,47.9 28.3,47.9 C27.9,47.9 27.7,48.1 27.7,48.2 C27.6,48.3 27.6,48.5 27.6,48.7 C27.7,49 27.9,49.3 28.3,49.6 C28.5,49.7 28.7,49.8 28.9,49.9 C29.1,50 29.3,50.1 29.5,50.2 C30,50.5 30.7,50.8 31.5,51.2 C29.4,50.9 27.5,50.4 26.1,50 C25.5,49.8 25.1,49.7 24.8,49.7 C24.6,49.6 24.4,49.5 24.2,49.4 C23.5,49.2 22.9,49.4 22.8,49.9 C22.7,50.4 23.1,50.8 23.8,51 C24,51.1 24.3,51.1 24.4,51.1 C24.7,51.2 25.3,51.3 25.8,51.4 C27.4,51.8 29.9,52.5 32.7,52.7 C30.3,52.9 27.9,52.8 27.1,52.8 C26.9,52.7 26.7,52.7 26.5,52.6 C25.8,52.5 25.2,52.8 25.1,53.3 C25.1,53.5 25.1,53.6 25.3,53.8 C25.5,54 25.9,54.2 26.3,54.3 C26.6,54.3 26.8,54.3 27,54.2 C27.8,54.3 30.1,54.4 32.8,54.1 C29.2,55.5 25.7,56.3 24.3,56.6 C24.1,56.6 24,56.5 23.8,56.5 L23.7,56.5 C23.2,56.5 22.9,56.7 22.6,56.9 C22.5,57 22.4,57.2 22.4,57.4 C22.4,57.8 22.9,58.1 23.6,58.1 L23.7,58.1 C24,58.1 24.2,58 24.5,57.9 C25.9,57.6 31.1,56.4 35.7,54.3 C37.5,56.7 40.2,60.8 42.5,65.2 C39.8,62.2 36.9,59.8 35.4,58.7 C35.2,58.5 35,58.3 34.7,58.1 C34.3,57.8 33.9,57.7 33.5,57.7 C33,57.7 32.8,57.9 32.8,58.1 C32.5,58.6 32.9,59.3 33.7,59.8 C34,60 34.3,60.1 34.6,60.2 C36.2,61.5 39.3,64 41.8,67 C37.9,63.7 33.5,61.6 30.9,60.4 C30.5,60.2 30,60 29.7,59.8 C29.5,59.5 29.2,59.3 28.8,59.1 C28.4,58.9 28.1,58.8 27.7,58.8 C27.1,58.8 26.9,59.1 26.8,59.2 C26.7,59.3 26.7,59.5 26.8,59.8 C26.9,60.2 27.3,60.6 27.9,60.8 C28.2,60.9 28.4,61 28.7,61 C29.1,61.2 29.5,61.4 30.2,61.7 C32.3,62.7 35.4,64.2 38.5,66.4 C36.8,65.8 35.2,65.5 34.1,65.2 L33.8,65.1 C33.5,64.9 33.2,64.7 32.7,64.6 C31.8,64.4 31,64.7 30.9,65.2 C30.9,65.2 30.9,65.3 30.9,65.4 L23.3,64.3 C23.1,58.6 20.1,51.5 19.2,49.4 C19.2,49.2 19.1,49 19,48.8 C18.8,48.4 18.4,48.1 18,48.1 C17.9,48.1 17.8,48.1 17.7,48.2 C17.6,48.3 17.5,48.4 17.4,48.6 C17.3,48.9 17.4,49.3 17.7,49.7 C17.8,49.9 18,50.1 18.2,50.2 C18.7,51.4 20.1,54.7 21.1,58.3 C19.9,56.3 18.7,54.6 18,53.8 C17.9,53.6 17.8,53.4 17.6,53.3 C17.3,53 16.9,52.8 16.6,52.8 C16.4,52.8 16.2,52.9 16.1,53 C15.8,53.3 15.9,53.9 16.4,54.5 C16.6,54.7 16.8,54.8 17,54.9 C17.6,55.6 18.7,57.2 19.8,59 C18,56.9 16,55.3 14.7,54.2 C14.5,54 14.2,53.8 14,53.6 C13.9,53.4 13.7,53.2 13.5,53 C12.9,52.5 12.3,52.5 12,52.8 C11.9,52.9 11.8,53.1 11.9,53.3 C11.9,53.6 12.2,54 12.5,54.2 C12.7,54.3 12.8,54.4 13,54.5 C13.2,54.7 13.5,54.9 13.8,55.2 C14.9,56.1 16.4,57.3 17.9,58.9 C17.2,58.5 16.5,58.2 16,57.9 C15.9,57.9 15.9,57.8 15.8,57.8 C15.6,57.6 15.4,57.4 15.1,57.3 C14.8,57.2 14.6,57.1 14.3,57.1 C13.8,57.1 13.6,57.4 13.6,57.5 C13.4,57.9 13.7,58.5 14.4,58.8 C14.6,58.9 14.7,58.9 14.9,59 C15,59.1 15.2,59.1 15.3,59.2 C16,59.5 16.9,60 17.9,60.6 C15.7,59.5 13.2,58.7 11.7,58.1 L11.4,58 C11.2,57.8 11,57.7 10.7,57.6 C10,57.4 9.4,57.5 9.2,58 C9.1,58.2 9.2,58.3 9.2,58.5 C9.3,58.8 9.7,59 10.1,59.2 C10.3,59.3 10.5,59.3 10.7,59.3 L11.1,59.5 C12.8,60.1 16.6,61.4 19.2,63.1 C17.4,62.4 15.3,61.7 14.1,61.4 C13.9,61.3 13.7,61.2 13.5,61.2 C13.4,61.2 13.2,61.2 13.1,61.2 C12.5,61.2 12.2,61.5 12.1,61.8 C12.1,62 12.1,62.1 12.2,62.3 C12.1,62.3 12.1,62.3 12,62.3 C11.3,62.1 10.7,62.3 10.6,62.8 C10.6,63 10.6,63.1 10.7,63.3 C10.9,63.6 11.2,63.8 11.7,63.9 C11.9,63.9 12.1,64 12.3,64 C13.1,64.2 14.4,64.6 15.8,65 C15.5,65 15.2,65 15,64.9 L14.7,64.9 C14.5,64.8 14.2,64.7 14,64.7 C13.2,64.6 12.7,64.9 12.7,65.4 C12.7,65.6 12.7,65.7 12.9,65.9 C13.1,66.1 13.5,66.3 13.9,66.3 C14.1,66.3 14.3,66.3 14.5,66.3 L15,66.3 C15.4,66.3 15.9,66.4 16.4,66.4 C15.4,66.5 14.3,66.5 13.2,66.5 C11.9,66.5 10.7,66.5 10,66.4 L9.5,66.4 C9.3,66.3 9.1,66.2 8.8,66.2 C8,66.1 7.5,66.4 7.4,66.9 C7.4,67.4 7.8,67.8 8.6,67.8 C8.8,67.8 9,67.8 9.2,67.8 C9.4,67.8 9.6,67.8 9.9,67.8 C10.8,67.8 12,67.9 13.3,67.9 C14.5,67.9 15.5,67.9 16.5,67.8 C15.3,68 14.3,68.1 13.6,68.1 C13.4,68.1 13.3,68.1 13.1,68.1 C12.9,68 12.7,68 12.4,68 C11.9,68 11.5,68.1 11.3,68.4 C11.2,68.5 11.1,68.7 11.1,68.9 C11.1,69.4 11.6,69.7 12.4,69.7 C12.6,69.7 12.8,69.7 13,69.6 C13.2,69.6 13.4,69.6 13.6,69.5 C14.2,69.5 14.9,69.4 15.8,69.3 C13.9,70.2 12,70.8 10.6,71.2 C10,71.4 9.6,71.5 9.3,71.6 C9.1,71.6 8.8,71.6 8.6,71.7 C8.2,71.8 7.8,72.1 7.7,72.4 C7.6,72.6 7.6,72.7 7.6,72.9 C7.7,73.3 8.4,73.5 9.1,73.3 C9.3,73.2 9.5,73.1 9.7,73 C10,72.9 10.5,72.7 11,72.5 C12.6,72 15.1,71.2 17.6,69.9 C15.6,71.5 13.6,72.6 12.9,73 C12.7,73 12.5,73.1 12.3,73.2 C11.6,73.5 11.3,74.1 11.5,74.5 C11.6,74.6 11.7,74.9 12.2,74.9 C12.4,74.9 12.7,74.8 13,74.7 C13.2,74.6 13.4,74.4 13.6,74.3 C14.3,73.9 16.3,72.7 18.4,71.1 C16.1,74.2 13.6,76.8 12.6,77.8 C12.4,77.9 12.2,78 12,78.1 C11.6,78.4 11.4,78.7 11.3,79 C11.3,79.2 11.3,79.4 11.4,79.5 C11.5,79.7 11.7,79.8 12,79.8 C12.3,79.8 12.6,79.7 12.9,79.4 C13.1,79.2 13.3,79 13.4,78.8 C13.7,78.5 14.2,78 14.8,77.3 C14.9,77.4 15,77.5 15.2,77.6 C15.4,77.7 15.6,77.8 15.8,77.9 C17,79 19.5,81.3 21.7,84.1 C19.8,82.8 18,81.8 17,81.3 C16.8,81.2 16.7,81.1 16.4,81 C16.2,80.9 15.9,80.9 15.7,80.9 C15.1,80.9 15,81.2 14.9,81.3 C14.7,81.8 15.1,82.3 15.8,82.5 C16,82.6 16.3,82.6 16.5,82.6 C17.3,83 19.1,84 20.8,85.2 C18.2,84 15.7,83.3 14.1,82.9 C13.8,82.8 13.5,82.7 13.2,82.7 C13,82.6 12.8,82.4 12.5,82.4 C11.8,82.2 11.2,82.4 11.1,82.9 C11,83.4 11.4,83.8 12.1,84 C12.3,84.1 12.5,84.1 12.7,84.1 C13,84.2 13.3,84.3 13.8,84.4 C15.1,84.8 17,85.3 19.1,86.1 C18.3,86 17.5,86 16.9,86 C16.8,86 16.8,86 16.7,86 C16.5,85.9 16.2,85.8 15.8,85.8 C15.1,85.8 14.6,86.1 14.6,86.6 C14.6,87.1 15.1,87.4 15.9,87.4 C16.1,87.4 16.2,87.4 16.4,87.3 C16.5,87.3 16.7,87.3 16.9,87.3 C17.7,87.3 18.8,87.4 19.9,87.5 C19.5,87.5 19.1,87.5 18.7,87.5 C16.6,87.5 14.5,87.7 13.2,87.8 L12.9,87.8 C12.7,87.7 12.4,87.7 12.1,87.7 C11.7,87.7 11.3,87.9 11.1,88.2 C11,88.3 10.9,88.5 10.9,88.7 C11,89.2 11.5,89.5 12.3,89.4 C12.5,89.4 12.7,89.3 12.9,89.3 L13.4,89.3 C14.6,89.2 16.6,89 18.8,89 C20.2,89 21.4,89.1 22.3,89.2 C20.4,89.3 18.2,89.5 16.9,89.7 C16.7,89.7 16.5,89.7 16.3,89.7 C15.9,89.8 15.5,90 15.3,90.3 C15.2,90.5 15.2,90.6 15.2,90.8 C15.2,91 15.3,91.1 15.5,91.2 C15.4,91.2 15.4,91.2 15.3,91.2 C14.9,91.3 14.5,91.5 14.3,91.8 C14.2,92 14.2,92.1 14.2,92.3 C14.3,92.8 14.8,93 15.6,92.8 C15.8,92.8 16,92.7 16.2,92.6 C17,92.5 18.3,92.3 19.8,92 C19.5,92.1 19.2,92.2 19,92.3 L18.7,92.4 C18.5,92.4 18.2,92.4 18,92.5 C17.6,92.7 17.2,92.9 17.1,93.2 C17,93.4 17,93.5 17.1,93.7 C17.2,93.8 17.3,94.2 17.9,94.2 C18.1,94.2 18.3,94.2 18.6,94.1 C18.8,94 19,93.9 19.1,93.8 L19.5,93.6 C19.9,93.5 20.3,93.3 20.8,93.1 C18.6,94.3 16.2,95.3 14.9,95.8 L14.4,96 C14.2,96 13.9,96 13.7,96.1 C13,96.3 12.6,96.8 12.7,97.3 C12.8,97.7 13.5,97.9 14.2,97.7 C14.4,97.6 14.6,97.5 14.8,97.4 C15,97.3 15.2,97.2 15.5,97.1 C17,96.5 19.4,95.6 21.5,94.3 C20.5,95 19.6,95.5 18.9,95.8 C18.7,95.9 18.6,96 18.5,96 C18.3,96 18,96.1 17.8,96.2 C17.4,96.4 17.1,96.7 17,97 C16.9,97.2 16.9,97.4 17,97.5 C17.1,97.6 17.2,97.9 17.7,97.9 C17.9,97.9 18.2,97.8 18.5,97.7 C18.7,97.6 18.9,97.5 19,97.4 C19.2,97.3 19.4,97.2 19.6,97.1 C20.1,96.8 20.8,96.5 21.5,96 C20.1,97.6 18.6,98.9 17.6,99.9 C17.2,100.3 16.8,100.6 16.6,100.8 C16.4,100.9 16.2,101 16,101.2 C15.4,101.7 15.3,102.3 15.6,102.7 C15.9,103 16.6,102.9 17.1,102.5 C17.3,102.3 17.4,102.2 17.5,102 C17.7,101.8 18.2,101.4 18.5,101 C19.8,99.9 21.7,98.1 23.4,95.9 C22.2,98.1 20.9,100 20.4,100.6 C20.2,100.7 20.1,100.9 19.9,101 C19.6,101.4 19.5,101.7 19.5,102 C19.5,102.2 19.6,102.3 19.7,102.5 C20.1,102.8 20.7,102.6 21.1,102 C21.3,101.8 21.4,101.6 21.5,101.4 C22.1,100.6 23.4,98.8 24.6,96.5 C24,99.1 23.3,101.4 22.7,103.1 C22.5,103 22.3,103 22.2,102.9 C22,102.8 21.8,102.8 21.6,102.7 C20.8,102.6 20.3,102.9 20.2,103.3 C20.2,103.5 20.2,103.6 20.3,103.8 C20.5,104 20.9,104.2 21.3,104.3 C21.6,104.3 21.8,104.3 22,104.3 C22.1,104.3 22.1,104.3 22.2,104.4 C22.1,104.6 22.1,104.8 22,104.9 C21.9,105 21.7,105.2 21.6,105.4 C21.4,105.8 21.3,106.2 21.4,106.5 C21.4,106.7 21.6,106.8 21.7,106.9 C21.8,107 21.9,107 22,107 C22.4,107 22.8,106.6 23,106.2 C23.1,106 23.2,105.7 23.3,105.5 C23.4,105.3 23.5,105.1 23.6,104.8 C25.3,105.4 27.7,106.2 30.1,107.4 C27.8,107 25.7,106.9 24.7,106.8 C24.5,106.7 24.3,106.7 24.1,106.7 C23.4,106.8 22.9,107.1 22.9,107.6 C22.9,108.1 23.5,108.4 24.2,108.3 C24.4,108.3 24.7,108.2 24.9,108.1 C25.8,108.1 27.8,108.3 29.9,108.6 C27.1,108.6 24.6,109.1 22.9,109.4 C22.6,109.5 22.3,109.5 22,109.6 C21.8,109.5 21.5,109.5 21.2,109.6 C20.8,109.7 20.4,109.9 20.2,110.1 C20.1,110.3 20.1,110.4 20.1,110.6 C20.2,110.9 20.6,111.3 21.5,111.2 C21.7,111.2 21.9,111.1 22.1,111 C22.4,111 22.7,110.9 23.2,110.8 C24.6,110.6 26.5,110.2 28.7,110.1 C27.9,110.4 27.2,110.7 26.7,110.9 L26.6,111 C26.4,111 26.1,111.1 25.8,111.2 C25.4,111.4 25.1,111.7 25,112 C24.9,112.2 24.9,112.4 25,112.5 C25.1,112.6 25.2,112.9 25.7,112.9 C25.9,112.9 26.2,112.8 26.5,112.7 C26.7,112.6 26.9,112.5 26.9,112.4 L27.3,112.2 C28,111.9 29,111.5 30.1,111.1 C27.8,112.1 25.6,113.4 24.2,114.2 L23.9,114.4 C23.7,114.4 23.4,114.5 23.2,114.7 C22.8,114.9 22.5,115.3 22.5,115.6 C22.5,115.8 22.5,116 22.6,116.1 C22.7,116.2 22.9,116.4 23.2,116.4 C23.5,116.4 23.8,116.3 24.1,116.1 C24.3,116 24.4,115.9 24.6,115.7 L25,115.5 C26.5,114.6 30.1,112.5 33,111.7 C31.3,112.6 29.4,113.8 28.4,114.5 C28.2,114.6 28,114.7 27.8,114.8 C27.4,115.1 27.2,115.4 27.2,115.7 C27.2,115.9 27.2,116.1 27.3,116.2 C27.4,116.3 27.6,116.4 27.7,116.4 C27.6,116.4 27.6,116.5 27.5,116.5 C27.3,116.7 27.1,116.9 27,117.1 C26.8,117.5 26.9,117.8 27,117.9 C27.3,118.3 27.9,118.2 28.5,117.8 C28.7,117.7 28.8,117.5 28.9,117.4 C29.5,117 30.7,116.2 31.9,115.3 C31.7,115.5 31.4,115.8 31.3,116 L31.1,116.2 C30.9,116.3 30.7,116.4 30.5,116.6 C30.2,116.9 30,117.3 30,117.6 C30,117.8 30.1,118 30.2,118.1 C30.5,118.4 31.2,118.3 31.7,117.8 C31.9,117.6 32,117.5 32.1,117.3 L32.4,117 C32.7,116.7 33,116.4 33.4,116 C31.9,118 30.1,120 29.2,120.9 L28.8,121.3 C28.6,121.4 28.4,121.5 28.2,121.7 C27.9,122 27.7,122.4 27.7,122.7 C27.7,122.9 27.8,123.1 27.9,123.2 C28.2,123.5 28.9,123.4 29.4,122.9 C29.6,122.8 29.7,122.6 29.8,122.4 C29.9,122.3 30.1,122.1 30.3,121.9 C31.4,120.7 33.1,118.9 34.6,116.9 C34,117.9 33.4,118.8 33,119.4 L32.7,119.8 C32.5,119.9 32.3,120.1 32.1,120.3 C31.8,120.6 31.6,121 31.7,121.3 C31.7,121.5 31.8,121.6 31.9,121.8 C32.3,122.1 32.9,121.9 33.3,121.4 C33.4,121.2 33.6,121.1 33.6,120.9 C33.7,120.8 33.8,120.6 34,120.4 C34.3,119.9 34.8,119.3 35.2,118.6 C34.6,120.7 33.8,122.5 33.3,123.8 C33.1,124.4 32.9,124.8 32.8,125.1 C32.6,125.3 32.5,125.5 32.4,125.7 C32.1,126.4 32.2,127 32.7,127.2 C32.8,127.2 32.9,127.2 32.9,127.2 C33.4,127.2 33.7,126.7 33.9,126.3 C34,126.1 34,125.9 34.1,125.7 C34.2,125.4 34.4,124.8 34.6,124.4 C35.3,122.9 36.3,120.5 36.9,117.7 C36.8,120.2 36.4,122.5 36.2,123.2 C36.1,123.4 36,123.6 35.9,123.8 C35.8,124.2 35.8,124.7 36,124.9 C36.1,125.1 36.2,125.2 36.4,125.2 C36.4,125.2 36.5,125.2 36.6,125.2 C37.1,125.2 37.4,124.6 37.6,124.2 C37.7,123.9 37.7,123.7 37.7,123.5 C37.9,122.6 38.3,120.3 38.4,117.7 C39.3,121.4 39.6,125.1 39.7,126.4 C39.6,126.6 39.6,126.8 39.6,127 C39.5,127.7 39.8,128.3 40.3,128.3 C40.3,128.3 40.3,128.3 40.4,128.3 C40.9,128.3 41.2,127.8 41.3,127.1 C41.3,126.8 41.3,126.6 41.2,126.3 C41.1,124.5 40.4,116.4 37.8,111.1 L43.7,106 C44,105.9 44.2,105.7 44.5,105.4 C44.6,105.3 44.7,105.1 44.8,105 L50.8,99.8 C51.5,99.4 52.1,99 52.8,98.6 C48.6,101.7 44.6,106.7 42.4,109.4 L42,109.8 C41.7,110 41.4,110.2 41.1,110.6 C40.7,111.1 40.5,111.7 40.5,112.1 C40.5,112.4 40.7,112.6 40.8,112.6 C41.3,113 42.1,112.6 42.7,111.8 C42.9,111.5 43.1,111.3 43.2,111 L43.7,110.4 C45.9,107.8 51.1,101.3 55.7,98.6 C53.4,101.2 50.2,105.1 48.7,107.2 C48.5,107.4 48.2,107.7 48.1,107.9 C47.8,108.5 47.6,109.1 47.7,109.5 C47.8,109.8 47.9,109.9 48,110 C48.1,110.1 48.3,110.1 48.4,110.1 C49,110.1 49.5,109.5 49.8,109 C50,108.7 50.1,108.3 50.2,108 C51.3,106.5 53.1,104.1 54.9,102 C53.6,104.1 51.8,106.8 49.5,109.9 C49.2,110.1 48.9,110.4 48.6,110.8 C48,111.7 48,112.6 48.5,112.9 C48.6,113 48.8,113 48.9,113 C49.5,113 50,112.5 50.3,111.9 C50.5,111.6 50.6,111.3 50.7,111.1 C51.7,109.7 53.9,106.6 55.8,103.6 C55.2,105.2 54.5,106.7 54.1,107.7 L53.9,108.2 C53.6,108.4 53.4,108.8 53.2,109.2 C52.9,109.8 52.8,110.4 53,110.8 C53.1,111.1 53.3,111.2 53.4,111.3 C53.5,111.3 53.6,111.4 53.7,111.4 C54.3,111.4 54.8,110.7 55.1,110.1 C55.2,109.8 55.3,109.5 55.4,109.2 C55.5,109 55.6,108.7 55.7,108.5 C56.3,107.1 57.2,105 58,102.9 C57.2,107.9 54.7,113.9 53.6,116.6 C53.5,116.9 53.3,117.2 53.2,117.5 C52.9,117.7 52.7,118 52.5,118.4 C52.2,119 52.1,119.6 52.3,120 C52.4,120.3 52.6,120.4 52.7,120.5 C52.8,120.5 52.9,120.6 53,120.6 C53.6,120.6 54.1,119.9 54.4,119.4 C54.5,119.1 54.6,118.8 54.7,118.5 C54.8,118.3 54.9,118 55.1,117.6 L55.2,117.3 C56.5,114.1 59,108.1 59.8,103 C59.9,106.5 58.9,109.9 58.3,112 C58.2,112.3 58.1,112.6 58.1,112.8 C57.9,113 57.7,113.4 57.5,113.8 C57.4,114.2 57.3,114.6 57.3,114.9 C57.3,115.5 57.7,115.7 57.9,115.8 C58,115.8 58.1,115.8 58.2,115.8 C58.8,115.8 59.3,115.1 59.6,114.4 C59.7,114.1 59.8,113.8 59.8,113.4 C59.9,113.1 60,112.7 60.1,112.3 C60.5,111 61,109.1 61.3,107 C61.9,111.3 61.7,115.4 61.6,118 C61.6,119 61.5,119.7 61.5,120.3 C61.4,120.6 61.3,121 61.3,121.4 C61.3,122.1 61.4,122.7 61.7,123 C61.9,123.2 62.1,123.3 62.3,123.3 C62.9,123.3 63.4,122.6 63.4,121.5 C63.4,121.1 63.4,120.8 63.3,120.5 C63.3,119.9 63.3,118.9 63.4,118.1 C63.6,114.5 63.8,109 62.5,103.4 C64.5,108.4 65.5,113.9 65.7,115.4 C65.6,115.7 65.6,116.1 65.6,116.4 C65.6,116.5 65.6,116.7 65.7,116.8 C65.5,116.9 65.4,117 65.2,117.1 C65,117.2 64.8,117.3 64.7,117.4 C64.4,117.7 64.2,118.1 64.1,118.4 C64.1,118.6 64.1,118.8 64.3,118.9 C64.6,119.2 65.2,119.2 65.8,118.7 C66,118.5 66.1,118.4 66.2,118.2 C66.3,118.2 66.4,118.1 66.5,118 C66.6,118 66.7,118.1 66.9,118.1 C67.3,118.1 67.5,117.8 67.7,117.3 C68.6,116.7 69.9,116 71.3,115.3 C71.4,115.6 71.5,115.8 71.7,116 C70.9,116.8 70.3,117.4 69.9,117.9 C69.7,118 69.6,118.2 69.4,118.4 C69,119 68.9,119.6 69.3,119.9 C69.7,120.2 70.3,119.9 70.7,119.3 C70.8,119.1 71,118.9 71,118.7 C71.3,118.4 71.7,117.9 72.2,117.4 C72.3,117.6 72.4,117.8 72.5,118 C71.8,119.1 71.2,120.2 70.7,121 L70.6,121.1 C70.5,121.3 70.3,121.6 70.2,121.8 C70,121.9 69.8,122.1 69.7,122.4 C69.5,122.8 69.4,123.2 69.5,123.5 C69.6,123.7 69.7,123.8 69.8,123.9 C69.9,124 70,124 70.1,124 C70.5,124 70.9,123.6 71.1,123.2 C71.2,123 71.3,122.8 71.3,122.7 C71.4,122.5 71.6,122.1 71.8,121.8 C72.1,121.3 72.5,120.6 72.9,119.9 C73.1,120.3 73.3,120.6 73.6,120.8 C73.6,121 73.7,121.1 73.7,121.2 C73.8,121.4 73.9,121.5 74.1,121.5 C74.1,121.5 74.2,121.5 74.3,121.5 C74.8,121.5 75.1,120.9 75.3,120.5 C75.3,120.3 75.4,120.2 75.4,120 L75.5,119.5 C75.7,118.7 76,117.7 76.5,116.6 C75.8,119 75.4,121.6 75.1,123.1 L75.1,123.4 C75,123.6 74.9,123.9 74.8,124.1 C74.7,124.5 74.8,125 75,125.2 C75.1,125.3 75.3,125.4 75.4,125.5 C75.9,125.6 76.3,125.1 76.4,124.4 C76.4,124.2 76.4,124 76.4,123.8 L76.5,123.3 C76.8,121.5 77.5,117.5 78.7,114.7 C78.3,116.6 78,118.8 77.9,120.1 C77.8,120.3 77.8,120.5 77.8,120.7 C77.8,121.2 77.9,121.6 78.1,121.8 C78.2,121.9 78.4,122 78.6,122 C78.8,122 78.9,121.9 79,121.8 C79,121.9 79,121.9 79,122 C79,122.7 79.3,123.3 79.8,123.3 C80.3,123.3 80.6,122.8 80.7,122.1 C80.7,121.9 80.7,121.7 80.7,121.5 C80.8,120.7 80.9,119.3 81,117.8 C81,118.1 81.1,118.4 81.1,118.6 L81.1,118.9 C81,119.1 81,119.4 81,119.6 C81.1,120.3 81.4,120.8 81.9,120.8 C82.1,120.8 82.2,120.7 82.4,120.6 C82.6,120.4 82.7,119.9 82.7,119.5 C82.7,119.3 82.6,119.1 82.6,118.9 L82.6,118.4 C82.6,118 82.5,117.5 82.4,117 C82.7,118.2 82.9,119.4 83.1,120.5 C80.8,123.1 79,125.4 78.1,126.6 C77.9,126.8 77.7,127.1 77.5,127.4 C77,128.3 77,129.2 77.5,129.5 C77.6,129.6 77.7,129.6 77.9,129.6 C78.5,129.6 79,129 79.3,128.4 C79.5,128.1 79.6,127.7 79.7,127.4 C80.4,126.5 81.7,124.8 83.4,122.8 C83.4,123 83.5,123.2 83.5,123.4 L83.6,123.9 C83.5,124.1 83.5,124.4 83.5,124.6 C83.5,125.3 83.9,125.8 84.4,125.8 C84.6,125.8 84.7,125.7 84.9,125.6 C85.1,125.4 85.2,125 85.2,124.5 C85.2,124.3 85.1,124.1 85.1,123.9 C85.1,123.7 85,123.5 85,123.2 C84.9,122.7 84.9,122.1 84.8,121.4 C84.9,121.3 84.9,121.3 85,121.2 C85.2,121.6 85.4,121.8 85.8,121.8 C85.8,121.8 85.9,121.8 85.9,121.8 C86.1,121.8 86.2,121.7 86.3,121.5 C86.5,121.2 86.5,120.8 86.5,120.4 C86.5,120.2 86.4,120 86.3,119.8 C86.5,119.6 86.7,119.4 86.9,119.2 C87.2,119.7 87.5,120.3 87.8,120.8 C86.9,122.6 86.2,124.2 85.8,125.2 C85.6,125.4 85.5,125.8 85.4,126.1 C85.2,126.7 85.2,127.4 85.4,127.7 C85.5,128 85.7,128.1 85.9,128.1 C85.9,128.1 86.1,128.1 86.1,128.1 C86.7,128.1 87.2,127.4 87.4,126.6 C87.5,126.2 87.6,125.8 87.5,125.5 C87.8,124.9 88.2,123.8 88.8,122.6 C88.9,122.8 89,122.9 89,123 C89,123.2 89.1,123.5 89.2,123.7 C89.3,124 89.6,124.3 89.9,124.4 C89.4,126.3 89.1,128.1 88.9,129.4 L88.9,129.7 C88.8,130.1 88.7,130.6 88.7,131 C88.5,131.3 88.3,131.7 88.3,132.1 C88.2,132.8 88.3,133.4 88.5,133.7 C88.7,133.9 88.9,134 89,134 C89,134 89.1,134 89.1,134 C89.8,134 90.2,133.2 90.3,132.4 C90.4,132.1 90.4,131.8 90.3,131.5 C90.4,131 90.5,130.5 90.6,129.7 C91.1,127.1 91.8,123.1 93.3,119 C93.2,121.2 93.3,123.1 93.3,124.5 L93.3,124.9 C93.1,125.2 93.1,125.7 93.1,126.2 C93.2,127.2 93.6,127.9 94.3,127.9 C94.4,127.9 94.7,127.8 94.9,127.6 C95.2,127.3 95.3,126.7 95.3,126 C95.3,125.7 95.2,125.4 95.1,125.2 C95.1,125 95.1,124.7 95.1,124.4 C95,123.1 94.9,121.3 95,119.3 C95.2,119.4 95.4,119.5 95.6,119.6 C95.8,123.6 96.5,127.7 96.9,130.2 L97,130.8 C96.9,131.1 96.9,131.6 97,132 C97.2,132.8 97.6,133.6 98.2,133.6 C98.2,133.6 98.3,133.6 98.3,133.6 C98.5,133.6 98.9,133.4 99,132.8 C99.1,132.5 99.1,132.1 99,131.6 C98.9,131.3 98.8,131 98.7,130.7 L98.6,129.9 C98,126.5 96.6,118.3 97.6,113.1 C98,116.5 98.9,121.5 99.5,124 C99.5,124.3 99.5,124.6 99.6,125 C99.8,125.7 100.3,126.4 100.9,126.4 C100.9,126.4 101.1,126.4 101.1,126.4 C101.2,126.4 101.4,126.3 101.6,126 C101.8,125.6 101.8,125 101.6,124.4 C101.5,124 101.3,123.7 101.1,123.4 C100.7,121.6 100.1,118.6 99.7,115.9 C100.4,118.3 101.3,121.4 102.1,125.1 C102,125.5 102.1,125.9 102.2,126.3 C102.4,127 102.9,127.8 103.5,127.8 C103.5,127.8 103.7,127.8 103.7,127.8 C104.3,127.6 104.5,126.8 104.2,125.8 C104.1,125.5 104,125.2 103.8,125 C103.4,123.3 102.5,119.6 101.5,116.2 C102.3,117.7 103,119.2 103.4,120.1 L103.6,120.6 C103.6,120.9 103.7,121.4 103.9,121.7 C104.2,122.3 104.7,123 105.3,123 C105.4,123 105.5,123 105.6,122.9 C105.7,122.8 105.9,122.7 106,122.4 C106.2,122 106.1,121.4 105.8,120.8 C105.7,120.5 105.5,120.2 105.3,120 C105.2,119.8 105.1,119.5 105,119.3 C104.4,117.9 103.4,115.9 102.3,113.9 C105.5,117.8 108.4,123.6 109.7,126.2 L109.8,126.4 C109.9,126.6 110,126.9 110.1,127 C110.1,127.3 110.2,127.7 110.3,128.1 C110.4,128.2 110.4,128.4 110.5,128.5 C110.4,128.9 110.3,129.3 110.2,129.6 C110.1,129.8 110.1,130 110,130.2 C109.9,130.9 110.2,131.5 110.7,131.6 C111.1,131.6 111.5,131.1 111.6,130.4 C111.6,130.2 111.6,129.9 111.6,129.7 C111.6,129.6 111.7,129.5 111.7,129.3 C111.8,129.3 111.9,129.3 112,129.2 C112.5,129 112.7,128.2 112.3,127.3 C112.8,125.7 113.6,123.6 114.5,121.5 C114.1,123.8 114.1,125.9 114.1,126.9 C114.1,127.1 114,127.3 114.1,127.5 C114.2,128.2 114.5,128.7 115,128.7 C115.5,128.7 115.8,128.1 115.7,127.4 C115.7,127.2 115.6,126.9 115.5,126.7 C115.5,125.8 115.6,123.8 115.9,121.7 C116,124.5 116.5,126.9 116.8,128.7 C116.9,129 116.9,129.3 117,129.6 C116.9,129.8 117,130.1 117,130.4 C117.1,131.1 117.5,131.5 117.9,131.5 C117.9,131.5 118,131.5 118,131.5 C118.5,131.4 118.7,130.8 118.5,130.1 C118.5,129.9 118.4,129.7 118.3,129.5 C118.2,129.2 118.2,128.9 118.1,128.4 C117.8,127.1 117.4,125.1 117.3,122.9 C117.6,123.7 117.9,124.4 118.2,124.9 L118.3,125.1 C118.3,125.3 118.4,125.6 118.5,125.9 C118.7,126.3 119.1,126.8 119.5,126.8 C119.6,126.8 119.7,126.8 119.8,126.7 C120.2,126.5 120.3,125.9 120,125.2 C119.9,125 119.8,124.9 119.7,124.8 L119.5,124.4 C119.5,124.3 119.4,124.2 119.4,124.1 C119.5,124.1 119.6,124.1 119.7,124.1 C120.4,125.4 121.1,126.6 121.6,127.4 L121.8,127.7 C121.8,127.9 121.9,128.2 122.1,128.4 C122.3,128.8 122.7,129.1 123.1,129.1 C123.2,129.1 123.3,129.1 123.4,129 C123.8,128.7 123.8,128.1 123.4,127.5 C123.3,127.3 123.1,127.1 123,127 L122.8,126.6 C121.9,125.1 119.7,121.6 118.8,118.7 C119.8,120.4 120.9,122.2 121.7,123.3 C121.8,123.5 121.9,123.7 122,123.8 C122.5,124.4 123.1,124.6 123.4,124.3 C123.5,124.2 123.6,124 123.6,123.9 C123.6,124 123.7,124 123.7,124.1 C124.1,124.7 124.8,124.9 125.1,124.6 C125.5,124.3 125.4,123.7 125,123.1 C124.9,122.9 124.7,122.8 124.6,122.7 C124.2,122.1 123.4,120.9 122.5,119.7 C122.7,119.9 122.9,120.1 123.1,120.3 L123.3,120.5 C123.4,120.7 123.5,120.9 123.7,121.1 C124.2,121.6 124.9,121.7 125.2,121.4 C125.3,121.3 125.4,121.1 125.4,120.9 C125.4,120.6 125.2,120.2 124.9,119.9 C124.7,119.7 124.5,119.6 124.4,119.5 L124.1,119.2 C123.8,118.9 123.5,118.6 123.1,118.3 C125.2,119.7 127.1,121.5 128.1,122.4 L128.5,122.8 C128.6,123 128.7,123.2 128.9,123.4 C129.4,123.9 130.1,124.1 130.4,123.7 C130.5,123.6 130.7,123.3 130.5,122.9 C130.4,122.7 130.3,122.5 130.1,122.2 C129.9,122 129.8,121.9 129.6,121.8 C129.5,121.7 129.3,121.5 129.1,121.3 C127.9,120.2 126,118.6 124,117.1 C125,117.7 125.9,118.3 126.5,118.7 C126.6,118.8 126.8,118.9 126.9,119 C127,119.2 127.2,119.4 127.4,119.5 C128,120 128.6,120 128.9,119.7 C129,119.6 129.1,119.4 129,119.2 C129,118.9 128.7,118.5 128.4,118.3 C128.2,118.2 128,118.1 127.9,118 C127.7,117.9 127.6,117.8 127.4,117.6 C126.9,117.3 126.3,116.8 125.6,116.4 C127.7,116.9 129.6,117.7 130.8,118.2 C131.4,118.4 131.8,118.6 132.1,118.7 C132.3,118.9 132.5,119 132.7,119.1 C132.9,119.2 133.2,119.2 133.4,119.2 C133.9,119.2 134.1,118.9 134.2,118.8 C134.2,118.7 134.3,118.3 134,118 C133.8,117.8 133.6,117.7 133.3,117.6 C133.1,117.5 132.9,117.5 132.7,117.5 C132.4,117.4 131.8,117.2 131.4,117 C129.8,116.4 127.4,115.4 124.7,114.9 C127.2,115 129.4,115.3 130.2,115.5 C130.4,115.6 130.6,115.7 130.8,115.7 C131.5,115.9 132.1,115.7 132.2,115.2 C132.3,114.7 131.9,114.3 131.1,114.1 C130.8,114 130.6,114 130.4,114.1 C129.8,114 128.4,113.8 126.6,113.6 C126.7,113.5 126.7,113.5 126.7,113.4 C126.7,113.3 126.8,113.2 126.8,113 C129.7,112.4 132.2,112.1 133.3,112 C133.6,112.5 134.2,113.1 134.7,113.1 C134.8,113.1 135,113.1 135.1,113 C135.6,112.7 135.6,111.8 135,110.9 C134.8,110.6 134.5,110.3 134.3,110.1 C133.1,107.4 130.5,101.2 128.9,94.8 C131.1,98.8 133.9,102.4 135.2,103.9 C135.3,104.2 135.5,104.5 135.8,104.7 C136.3,105.2 136.8,105.4 137.2,105.4 C137.5,105.4 137.7,105.3 137.8,105.2 C138.2,104.8 138,103.9 137.3,103.2 C137,102.9 136.7,102.7 136.4,102.6 C135.2,101.1 132.1,97.2 130,92.9 C133.5,97.6 137.9,101.1 140.5,103.2 L140.7,103.4 C141,103.7 141.4,103.9 141.7,104.2 C141.9,104.5 142.1,104.9 142.5,105.1 C143.3,105.7 144.2,105.9 144.6,105.4 C144.7,105.3 144.8,105.1 144.8,104.8 C144.7,104.4 144.4,103.9 143.9,103.5 C143.6,103.3 143.4,103.1 143.1,103 C142.7,102.7 142.3,102.3 141.7,101.9 C139.6,100.3 136.5,97.7 133.6,94.5 C135.4,95.7 137.2,96.5 138.4,97.1 L138.7,97.3 C138.9,97.6 139.3,97.9 139.7,98.1 C140.1,98.3 140.5,98.4 140.8,98.4 C141.4,98.4 141.7,98.1 141.7,97.9 C141.8,97.8 141.8,97.6 141.7,97.3 C141.5,96.9 141.1,96.5 140.5,96.2 C140.2,96.1 140,96 139.7,96 C139.5,95.9 139.2,95.8 139,95.6 C137,94.7 133.8,93.1 131.2,90.8 C135.6,93.6 141.7,95.6 145,96.7 L145.5,96.9 C145.8,97.1 146.1,97.4 146.6,97.5 C147.6,97.8 148.5,97.6 148.6,97 C148.6,96.9 148.7,96.6 148.5,96.4 C148.3,96 147.8,95.7 147.2,95.5 C146.9,95.4 146.6,95.4 146.3,95.4 L145.5,95.1 C142.3,94 134.3,91.4 130.2,88.1 C133.4,89.3 138.2,91 140.7,91.6 C141,91.8 141.3,91.9 141.6,91.9 C142.7,92.1 143.5,91.8 143.6,91.2 C143.6,91.1 143.6,90.8 143.5,90.6 C143.3,90.2 142.7,90 142.1,89.8 C141.7,89.7 141.3,89.7 141,89.8 C139.2,89.3 136.4,88.4 133.7,87.5 C136.2,88 139.3,88.7 143,89.7 C143.3,89.9 143.7,90.1 144.1,90.2 C145.1,90.4 146,90.1 146.1,89.5 C146.1,89.4 146.1,89.1 146,88.9 C145.8,88.5 145.2,88.2 144.6,88.1 C144.3,88 143.9,88 143.7,88 C142,87.5 138.4,86.6 134.9,85.8 C136.7,85.8 138.4,85.9 139.3,86 L139.9,86 C140.2,86.2 140.6,86.3 141,86.3 C142.1,86.4 142.8,86 142.9,85.4 C142.9,85.3 142.9,85 142.7,84.8 C142.4,84.5 141.8,84.3 141.2,84.2 C140.9,84.2 140.5,84.2 140.2,84.3 C140,84.3 139.7,84.3 139.4,84.3 C138.1,84.2 136.4,84.1 134.6,84.1 C134.2,84.1 133.7,84.1 133.3,84.1 C135.9,83.6 139.3,83.3 143.4,83.3 C145.1,83.3 146.7,83.3 147.7,83.4 C148.1,83.4 148.4,83.4 148.6,83.4 C148.9,83.6 149.3,83.7 149.7,83.7 C150.8,83.8 151.5,83.4 151.6,82.8 C151.4,83.4 151.3,83.1 150.8,82.7 M115.2,66.5 L117.5,66 C116.4,66.7 114.8,68 113.3,69.4 C113.9,68.4 114.6,67.4 115.2,66.5 M113.2,66.9 C111.6,69.3 110,72.1 109.1,74.7 L94.4,73.7 C94.2,73.6 94.1,73.5 93.9,73.3 C93.5,72.8 93.3,72.1 93.2,71.3 L113.2,66.9 M117.3,86.7 C117.1,86.5 116.9,86.4 116.7,86.3 C116.5,86.1 116.3,85.9 116,85.5 L118.1,86 C118.5,86.3 118.9,86.5 119.2,86.8 C119.5,87 119.8,87.2 120,87.4 C120.1,87.6 120.3,87.8 120.6,88 C120.6,88 120.7,88 120.7,88 C120.1,88.1 119.3,88.2 118.1,88.4 C118.2,87.8 117.8,87.1 117.3,86.7 M97.8,78.1 C96.3,77.6 95.6,77.2 95.4,76.7 C95.3,76.4 95.4,76.2 95.5,75.8 L108.8,76.7 C109,78.3 109.4,80 109.9,81.7 L96.7,78.9 C97.1,78.5 97.5,78.3 97.8,78.1 C97.9,78.2 97.9,78.2 97.8,78.1 C97.9,78.1 97.9,78.1 97.8,78.1 M97.2,82.6 C97.4,82.6 97.7,82.7 97.9,82.8 C97.9,82.8 97.9,82.7 97.9,82.7 C97.1,82.3 96.7,81.8 96.4,81.4 L110.9,84.5 C111.6,86.3 112.4,88 113,89.4 C109.7,90.2 106.1,91.4 103.2,93 L95,84.6 C95,84.6 95,84.5 95,84.5 C95.4,83.6 96.2,82.6 97.2,82.6 M90.9,48.1 L87.4,54.5 L88.9,45.8 C89.5,46.7 90.2,47.4 90.9,48.1 M87.3,25.6 C87.5,25.4 87.7,25.1 87.8,24.8 C87.9,24.5 88,24.2 88.1,23.9 C88.9,24.4 89.7,24.8 90.4,25.2 L89.9,28.2 C89.9,28.2 89.8,28.2 89.8,28.2 C89.3,28.2 88.9,28.8 88.9,29.6 C88.9,29.9 88.9,30.1 89,30.4 C89,30.8 89,31.5 88.9,32.1 C88.9,32.9 88.8,33.7 88.8,34.7 L88.2,38.2 C87.7,36.3 87.5,34.7 87.4,34.1 C87.5,33.9 87.5,33.6 87.4,33.3 C87.3,32.5 86.9,32 86.4,32 C85.9,32.1 85.6,32.7 85.7,33.5 C85.7,33.8 85.8,34.1 85.9,34.3 C86,35.2 86.6,38.3 87.6,41.6 L87.6,41.7 C85.2,38.1 83.3,34.3 82.5,32.4 C84.7,29.4 86.4,26.9 87.3,25.6 M72.3,43.3 L78,62.3 L70.6,44.6 C71.1,44.3 71.7,43.8 72.3,43.3 M68.3,67.1 C68.1,66.9 67.8,66.8 67.6,66.7 L46.1,44.8 C49.6,45.4 54.7,46.1 59.9,46.2 L71.4,65 C70.5,65 69.6,64.4 68.6,63.3 C68.8,64.8 68.9,66.5 68.3,67.1 M62.4,70.4 L40.7,51.5 C41.9,49.5 42.8,47.1 43.5,44.8 L66.3,68 C66.3,68 66.3,68.1 66.3,68.1 C66,68.4 65.5,68.6 64.7,68.6 C64.1,68.6 63.2,68.5 62.3,68.3 C62.3,68.3 62.3,68.3 62.3,68.4 C62.5,69 62.6,69.7 62.4,70.4 M59.6,79.5 C59.9,79.5 60.1,79.4 60.4,79.4 C60.6,79.4 60.8,79.4 61,79.4 L44.4,84.1 C45.7,81.1 46.8,77.8 47.4,74.8 L60.4,75.7 C60.6,76.2 60.7,76.7 60.7,77.3 C60.7,78.1 60.3,78.9 59.6,79.5 C59.6,79.4 59.6,79.4 59.6,79.5 C59.6,79.4 59.6,79.5 59.6,79.5 M60.2,73.3 L47.3,72.5 C47.1,71.8 46.9,71.1 46.6,70.4 L61.3,72.6 C60.9,72.8 60.5,73.1 60.2,73.3 M62.2,46.2 C64.4,46.1 66.4,46 68.1,45.7 L75.7,63.9 C75.5,64 75.3,64 75.1,64 C74.5,64 73.9,63.7 73.6,63.2 C73.6,63.2 73.6,63.2 73.6,63.3 C73.6,63.5 73.5,63.9 73.3,64.2 L62.2,46.2 M57.5,19.7 C60.1,20.3 63,20.8 65.5,20.7 L68,29.1 C68.8,32.7 69.4,37.1 69.1,40.3 C68.4,36.9 67.2,32 66.4,29.6 C66.4,29.3 66.3,29 66.2,28.6 C66,28 65.4,27.3 64.8,27.3 C64.7,27.3 64.6,27.3 64.5,27.4 C64.4,27.5 64.2,27.6 64.1,27.8 C63.9,28.2 64,28.8 64.2,29.4 C64.4,29.8 64.6,30.1 64.8,30.3 C65.3,32 66.1,35 66.8,37.7 C65.9,35.4 64.8,32.4 63.6,28.7 C63.6,28.3 63.6,27.9 63.4,27.5 C63.2,26.9 62.7,26.1 62,26.1 C61.9,26.1 61.8,26.1 61.7,26.1 C61.1,26.3 61,27.2 61.3,28.2 C61.4,28.5 61.6,28.8 61.8,29 C62.3,30.7 63.5,34.3 64.8,37.6 C63.9,36.1 63.1,34.7 62.6,33.8 L62.3,33.3 C62.3,33 62.1,32.6 61.9,32.2 C61.6,31.6 61.1,31 60.5,31 C60.4,31 60.2,31 60.1,31.1 C60,31.2 59.8,31.3 59.7,31.6 C59.6,32 59.7,32.6 60,33.2 C60.2,33.5 60.4,33.8 60.6,34 C60.7,34.2 60.9,34.4 61,34.7 C61.8,36 62.9,38 64.2,39.9 C60.7,36.3 57.4,30.9 55.8,28.2 L55.3,27.4 C55.3,27.1 55.2,26.7 55,26.3 C54.7,25.8 54.2,25.1 53.6,25.1 C55.1,23.4 56.4,21.5 57.5,19.7 M53.8,15.3 C54,15.4 54.1,15.5 54.3,15.6 C54.2,15.8 54.2,16 54.1,16.2 C54.1,16.4 54.1,16.7 54.2,16.9 C54.2,17 54.1,17.1 54.1,17.3 C53.8,17.2 53.5,17.1 53.2,17 C53.2,16.1 53.2,15.4 53.2,14.7 C53.2,14.7 53.2,14.6 53.2,14.6 C53.3,14.9 53.5,15.1 53.8,15.3 M52.9,26.2 C52.9,26.6 53,27 53.2,27.4 C53.4,27.7 53.6,28 53.8,28.2 C54,28.5 54.2,28.8 54.4,29.1 L54.5,29.2 C56.3,32.2 59.6,37.7 63.3,41.4 C60.4,39.4 58.3,36.6 56.9,34.8 C56.7,34.6 56.5,34.3 56.4,34.2 C56.3,33.9 56.2,33.5 56,33.2 C55.7,32.7 55.1,32.2 54.5,32.2 C54.3,32.2 54.2,32.2 54.1,32.3 C54,32.3 54,32.4 53.9,32.5 L51.2,28.1 C51.7,27.5 52.3,26.8 52.9,26.2 M38.4,36.9 C38.4,36.8 38.4,36.7 38.3,36.6 C38.1,36.1 37.8,35.6 37.3,35.6 C37.3,35.6 37.2,35.6 37.1,35.6 L36.5,35 C37.5,33.5 38.4,31.8 39.2,30 C39.4,30 39.6,30 39.8,30 C43.7,30 46.9,29.6 49.4,28.9 L54.4,37 C52.7,35.8 51.2,34.6 50,33.6 C49.2,32.9 48.6,32.5 48.2,32.2 C48,31.9 47.8,31.6 47.5,31.3 C46.7,30.7 45.8,30.5 45.4,31 C45.3,31.1 45.2,31.3 45.2,31.6 C45.2,32 45.6,32.5 46.1,33 C46.4,33.2 46.7,33.4 47,33.5 C47.4,33.8 48.2,34.4 48.9,35 C50.7,36.4 53.3,38.6 56.5,40.5 L57.3,41.8 C53.7,40.5 50.6,39 49.6,38.5 C49.4,38.3 49.1,38 48.8,37.8 C48.4,37.5 47.9,37.4 47.5,37.4 C47,37.4 46.8,37.6 46.7,37.8 C46.4,38.3 46.8,39.1 47.7,39.6 C48.1,39.8 48.4,39.9 48.8,40 C49.9,40.6 54,42.6 58.7,44.1 L58.9,44.3 C52.8,44.1 46.9,43.1 44.1,42.5 C44.8,39.9 45.1,37.7 45.3,36.7 C45.4,36.5 45.4,36.3 45.4,36 C45.4,35.6 45.3,35.1 45.1,34.9 C45,34.8 44.8,34.7 44.6,34.7 C44.1,34.7 43.8,35.2 43.8,36 C43.8,36.2 43.8,36.5 43.9,36.7 C43.7,37.7 43.4,39.4 43,41.4 L41.8,40.2 C41.8,40 41.8,39.8 41.7,39.6 C41.7,39.4 41.7,39.2 41.7,39 C41.6,38.5 41.3,37.9 40.8,37.9 C40.8,37.9 40.7,37.9 40.7,37.9 C40.4,38 40.3,38.2 40.2,38.5 L38.4,36.9 M37.5,54.1 C38.2,53.7 38.8,53.4 39.4,53 L59.3,70.3 L45.8,68.3 C43.4,62.6 39.7,57.1 37.5,54.1 M17.1,77.2 C17,77 16.8,76.9 16.6,76.8 C16.5,76.7 16.4,76.7 16.4,76.7 C18.6,74.2 21.6,70.5 23.2,66.9 L26.2,67.3 C25.7,67.4 25.3,67.7 25.3,68.1 C25.3,68.2 25.3,68.4 25.5,68.7 C25.8,69 26.3,69.2 26.9,69.3 C27.2,69.3 27.5,69.3 27.7,69.2 L28.4,69.3 C31.4,69.6 38.6,70.3 42.9,72.3 C39.8,71.9 35.6,71.4 33.3,71.4 C33.1,71.3 32.8,71.3 32.5,71.3 L32.4,71.3 C31.8,71.3 31.3,71.5 31,71.8 C30.8,72 30.8,72.2 30.8,72.3 C30.8,72.9 31.5,73.2 32.4,73.2 L32.5,73.2 C32.9,73.2 33.2,73.1 33.5,73 C34.8,73.1 37.3,73.3 39.6,73.5 C37.5,73.5 34.8,73.5 31.7,73.4 C31.4,73.3 31,73.2 30.6,73.2 C30,73.2 29.5,73.4 29.2,73.7 C29,73.9 29,74.1 29,74.2 C29,74.8 29.7,75.2 30.7,75.2 C31,75.2 31.3,75.2 31.5,75.1 C32.8,75.2 35.3,75.3 37.8,75.3 C38.3,75.3 38.7,75.3 39.1,75.3 C37.7,75.6 36.5,75.8 35.7,75.9 L35.2,76 C34.9,75.9 34.5,75.9 34.1,76 C33.5,76.1 33,76.3 32.8,76.7 C32.6,76.9 32.6,77.1 32.7,77.3 C32.8,77.9 33.5,78.2 34.5,78 C34.8,78 35.1,77.9 35.3,77.7 C35.5,77.7 35.7,77.6 36,77.6 C37.2,77.4 39,77.1 40.8,76.7 C36.7,78.4 31.3,79.5 28.9,79.9 L28.1,80.1 C27.8,80 27.4,80 27.1,80 C26.5,80.1 26,80.3 25.7,80.6 C25.5,80.8 25.5,81 25.5,81.2 C25.6,81.8 26.3,82.1 27.3,82 C27.6,82 27.9,81.9 28.1,81.8 C28.4,81.7 28.8,81.7 29.2,81.6 C32.2,81 37.5,80 41.7,78.2 C39.2,79.8 36.4,80.7 34.7,81.2 C34.4,81.3 34.2,81.4 34,81.4 C33.7,81.3 33.3,81.4 33,81.5 C32.4,81.6 31.9,81.9 31.7,82.3 C31.6,82.5 31.6,82.7 31.6,82.9 C31.7,83.5 32.6,83.7 33.4,83.5 C33.7,83.4 34,83.3 34.2,83.2 C34.5,83.1 34.8,83 35.1,82.9 C36.2,82.5 37.8,82.1 39.4,81.3 C36.6,83.7 33.6,85.5 31.5,86.8 C30.7,87.3 30.2,87.6 29.8,87.9 C29.5,87.9 29.2,88.1 28.9,88.3 C28.4,88.6 28.1,88.9 28,89.3 L26.9,89.6 C24.4,83.9 18.8,78.7 17.1,77.2 M38,103.2 C37.5,103.5 37.1,103.8 36.7,104 C36.3,104 35.9,104.2 35.6,104.4 C35,104.7 34.6,105.2 34.5,105.6 C34.4,105.9 34.5,106.1 34.6,106.2 C34.7,106.3 34.9,106.6 35.4,106.6 C35.8,106.6 36.3,106.4 36.7,106.2 C37,106 37.2,105.8 37.4,105.6 C37.8,105.4 38.3,105.1 39,104.7 C41.2,103.4 44.7,101.3 48.7,99.8 L48,100.4 C47.2,101 46.6,101.6 46,102.2 L44.2,103.8 C43.9,103.9 43.6,104.1 43.4,104.4 C43.2,104.6 43.1,104.7 43,104.9 L37,110.1 C33.4,107.3 28,105.2 24.9,104.1 C26,101 27.6,95.5 27.6,90.9 L34.7,88.9 C34.2,89.4 34.1,90 34.4,90.4 C34.8,90.8 35.6,90.7 36.3,90.1 C36.6,89.9 36.8,89.6 37,89.3 C37.3,89 37.8,88.5 38.5,87.8 L41.4,87 C40.2,89.5 39,91.6 38.1,93.2 C36,93.2 34.3,93.3 33.4,93.4 C33.1,93.4 32.8,93.4 32.4,93.5 C31.4,93.7 30.7,94.3 30.9,94.9 C31,95.5 31.9,95.8 32.9,95.6 C33.3,95.5 33.6,95.4 33.9,95.2 C34.6,95.2 35.6,95.1 37,95.1 C36.8,95.2 36.6,95.4 36.4,95.6 C36,96.1 35.8,96.6 35.8,97 C35.8,97.3 35.9,97.4 36.1,97.5 C36.2,97.6 36.4,97.7 36.6,97.7 C37,97.7 37.5,97.4 37.9,96.9 C38.2,96.6 38.3,96.3 38.4,96 C38.5,95.8 38.7,95.5 39,95.1 C39.3,95.1 39.7,95.1 40,95.1 C43.7,95.1 47.1,95.3 50.1,95.7 C45.6,96.3 41.3,97.6 39.3,98.3 C39,98.3 38.7,98.4 38.3,98.6 C37.7,98.9 37.2,99.3 37.1,99.7 C37,100 37,100.2 37.1,100.3 C37.2,100.5 37.4,100.8 38,100.8 C38.3,100.8 38.7,100.7 39.1,100.5 C39.5,100.3 39.8,100.1 40,99.9 C42.1,99.2 46.7,97.8 51.4,97.3 C45.7,98.6 40.9,101.5 38,103.2 M54.7,94.5 C49.6,93.4 44,93.2 39.8,93.2 C40.8,91.5 42.1,89.1 43.3,86.4 L63.2,80.8 C63.2,80.8 63.2,80.9 63.3,80.9 C63.6,81.6 63.6,82.3 63.3,82.8 C64.1,82.9 65,83.1 65.7,83.4 L63.9,86.4 L54.7,94.5 M58.5,95.5 C58,95.3 57.5,95.2 56.9,95 L60.7,91.7 L58.5,95.5 M67.9,116.2 C67.8,116 67.8,115.8 67.7,115.6 C67.5,114.3 66.6,109.2 64.8,104.3 C67.3,107.8 69.4,111.6 70.9,114.5 C69.8,115.1 68.8,115.7 67.9,116.2 M72.4,113.7 C69.9,108.8 65.6,101.5 60.7,96.8 L67,86.3 L68.2,85.2 C68.7,85.8 68.9,86.5 68.8,87.3 C69.2,87 69.8,86.8 70.4,86.8 C71.8,86.8 73.2,87.7 73.3,90.3 C73.7,89.7 74.3,89.4 74.9,89.4 C76.1,89.4 77.6,90.4 78.6,91.7 L79.3,111 C77.2,111.6 74.7,112.6 72.4,113.7 M80.1,62.8 L73.8,42 C76.6,39.5 79.2,36.5 81.4,33.8 C82.5,36.1 84.6,40.2 87.2,43.9 L84.5,59.7 L81.5,65.1 C81.3,65.1 81.1,65 80.9,64.9 C80.7,63.9 80.4,63.2 80.1,62.8 M95.4,110.2 C93.4,111.5 91.5,113 89.7,114.7 C87.2,113.3 84.2,111.9 81.5,111.2 L80.8,93.1 C81.7,92.1 82.8,91.5 83.8,91.5 C84.7,91.5 85.3,92 85.7,93 C85.7,92.8 85.9,92.5 86.2,92.2 C86.9,91.5 88.3,90.7 89.5,90.7 L95.9,108.2 C95.7,108.9 95.5,109.7 95.4,110.2 M97.2,104.1 L92.1,90 C92.1,89.8 92.2,89.6 92.2,89.4 L99.8,97.8 C98.8,99.9 97.9,102.1 97.2,104.1 M93.2,87.7 C93.6,87.4 94.1,87.2 94.7,87.2 L101.9,94.5 C101.5,95 101.2,95.6 100.9,96.1 L93.2,87.7 M104.4,105.7 C104.4,105.8 104.5,105.8 104.5,105.9 C104.5,106.2 104.6,106.5 104.8,106.8 C105,107.2 105.5,107.7 105.9,107.7 C106,107.7 106.1,107.7 106.2,107.6 C106.7,107.4 106.7,106.7 106.3,105.9 C106.2,105.7 106.1,105.5 106,105.4 L105.7,104.9 C105.5,104.5 105.3,104 105,103.5 L106.1,104.7 C107,106.1 107.8,107.4 108.4,108.3 L108.6,108.6 C108.6,108.7 108.7,108.8 108.7,108.9 C107.2,108.7 105.6,108.6 104,108.5 C103.6,106.9 103.2,104.9 103,102.8 C103.5,104.1 104,105 104.4,105.7 M111.9,111.2 L114.2,113.7 C112.3,112.7 109.9,111.5 107.3,110.5 C108.8,110.7 110.4,111 111.9,111.2 M111.5,126.6 C111.4,126.5 111.4,126.4 111.3,126.3 L111.2,126.2 C109.6,123.1 106.8,117.3 103.4,113.4 C106.1,115.6 108,118.6 109.2,120.4 C109.4,120.7 109.5,120.9 109.7,121.1 C109.7,121.4 109.9,121.8 110.1,122.2 C110.4,122.8 111,123.4 111.5,123.4 C111.6,123.4 111.8,123.4 111.9,123.3 C112.4,123 112.5,122.1 111.9,121.2 C111.7,120.9 111.5,120.6 111.3,120.4 C111.1,120.1 110.9,119.8 110.7,119.5 C110,118.4 108.9,116.7 107.5,115.1 C110.1,116.8 112.3,118.7 114.1,120.3 C113.1,122.5 112.2,124.7 111.5,126.6 M115,118.7 C112.6,116.5 109.3,113.9 105.5,111.8 C110,113.3 114.3,115.8 116.2,116.9 C115.8,117.5 115.4,118.1 115,118.7 M118,115.2 L114.9,111.8 C117.9,112.4 120.5,113.1 122.2,113.5 C120.8,114 119.3,114.5 118,115.2 M132.6,111.5 C131.3,111.6 128.6,112 125.6,112.6 C125.5,112.6 125.5,112.5 125.4,112.5 C125,112.3 124.7,112.2 124.3,112.2 C122.5,111.7 118.2,110.5 113.1,109.6 L106.4,102.2 C105.6,100.7 104.8,99.2 104.4,97.7 C105.7,99.7 107.4,102.2 108.4,103.5 C108.5,103.7 108.6,103.9 108.8,104.1 C109.3,104.7 110.1,104.9 110.4,104.6 C110.5,104.5 110.6,104.4 110.6,104.1 C110.6,104 110.6,103.9 110.6,103.8 C110.7,104 110.8,104.1 110.9,104.3 C111.4,104.9 112.1,105.1 112.5,104.8 C112.9,104.5 112.8,103.8 112.3,103.1 C112.1,102.9 112,102.8 111.8,102.6 C111.2,101.8 110,100.2 108.6,98.5 C109.2,99 109.7,99.4 110,99.7 L110.3,100 C110.4,100.2 110.6,100.5 110.8,100.7 C111.4,101.2 112.1,101.3 112.4,101 C112.5,100.9 112.6,100.7 112.6,100.5 C112.6,100.2 112.3,99.7 111.9,99.4 C111.7,99.2 111.5,99.1 111.3,99 L110.9,98.6 C110.3,98.1 109.6,97.5 108.8,96.8 C111.6,98.5 114.5,100.8 115.9,101.9 L116.4,102.3 C116.5,102.5 116.7,102.8 116.9,103 C117.5,103.5 118.2,103.7 118.5,103.3 C118.6,103.2 118.8,102.9 118.6,102.4 C118.5,102.2 118.3,101.9 118.1,101.7 C117.9,101.5 117.7,101.4 117.5,101.3 C117.3,101.2 117.1,101 116.8,100.8 C115.1,99.4 112.3,97.1 109.4,95.5 C111.2,96.2 112.7,97.2 113.7,97.8 C113.9,97.9 114,98 114.2,98.1 C114.3,98.3 114.5,98.5 114.8,98.7 C115.4,99.2 116.2,99.2 116.5,98.8 C116.6,98.7 116.7,98.5 116.6,98.3 C116.5,98 116.3,97.6 115.9,97.3 C115.7,97.1 115.5,97 115.3,97 C115.1,96.9 115,96.8 114.8,96.7 L114.7,96.6 C114.1,96.2 113.1,95.6 112,95 C114.7,95.5 117.1,96.3 118.8,96.9 C119.5,97.1 120,97.3 120.3,97.4 C120.5,97.6 120.7,97.7 121,97.8 C121.3,97.9 121.5,97.9 121.7,97.9 C122.3,97.9 122.5,97.5 122.6,97.4 C122.6,97.3 122.7,97.1 122.6,96.9 C122.5,96.6 122.1,96.3 121.6,96.1 C121.4,96 121.1,96 120.9,96 C120.5,95.9 119.9,95.7 119.3,95.5 C117.2,94.8 114,93.7 110.4,93.2 C110.9,93.2 111.4,93.2 112,93.2 C113.5,93.2 114.8,93.3 115.9,93.4 C116,93.5 116.2,93.5 116.3,93.5 C116.4,93.5 116.5,93.5 116.6,93.4 C117.1,93.5 117.6,93.5 117.9,93.5 C118.1,93.6 118.3,93.7 118.6,93.8 C119.4,94 120.1,93.7 120.2,93.2 C120.3,92.7 119.8,92.2 119,92.1 C118.7,92 118.4,92 118.1,92.1 C117.8,92.1 117.3,92 116.7,91.9 C116.7,91.9 116.6,91.8 116.6,91.8 C116.4,91.6 116.3,91.4 116.1,91.3 C116,91.1 115.8,90.8 115.6,90.4 C118.2,89.8 120.4,89.5 121.4,89.4 C121.6,89.5 121.9,89.5 122.2,89.5 C123,89.5 123.6,89.2 123.6,88.6 C123.6,88.5 123.6,88.3 123.4,88.1 C123.2,87.9 123,87.8 122.6,87.7 C122.7,87.5 122.7,87.3 122.5,87 C122.4,86.9 122.4,86.8 122.3,86.7 L126.2,87.5 C126.2,96.6 130.8,107.6 132.6,111.5 M126.2,85.1 L116.5,83.1 C116,82.7 115.6,82.3 115.1,81.9 C116,82.3 116.8,82.6 117.5,82.9 L117.7,83 C117.9,83.2 118.1,83.4 118.5,83.5 C118.7,83.6 119,83.6 119.2,83.6 C119.8,83.6 120,83.3 120,83.1 C120.1,82.9 120.1,82.8 120,82.6 C119.9,82.3 119.5,82 119.1,81.9 C118.9,81.8 118.7,81.8 118.6,81.8 L118.1,81.6 C117.3,81.3 115.9,80.8 114.6,80 C117.2,81.1 120.2,81.8 121.9,82.3 L122.2,82.4 C122.4,82.6 122.7,82.7 123,82.7 C123.7,82.9 124.4,82.7 124.5,82.2 C124.6,81.7 124.2,81.3 123.4,81.1 C123.2,81.1 123,81 122.8,81 L122.3,80.9 C120.4,80.4 115.9,79.3 113,77.6 C115,78.2 117.5,78.8 118.9,79.1 C119.1,79.2 119.3,79.3 119.6,79.3 C120.4,79.4 121,79.1 121,78.6 C121,78.4 121,78.2 120.9,78.1 C120.9,78.1 120.9,78.1 120.8,78 C120.9,78 121,78 121.1,78.1 C121.9,78.2 122.5,77.9 122.5,77.4 C122.6,76.9 122.1,76.5 121.3,76.4 C121.1,76.4 120.9,76.4 120.7,76.4 C119.8,76.2 118.2,75.9 116.5,75.6 C117,75.6 117.4,75.6 117.8,75.6 L118.1,75.6 C118.3,75.7 118.6,75.7 118.9,75.7 C119.4,75.7 119.8,75.6 120,75.3 C120.1,75.2 120.2,75 120.2,74.8 C120.2,74.3 119.7,74 118.9,74 C118.7,74 118.4,74 118.3,74.1 L117.8,74.1 C117.3,74.1 116.6,74.1 115.8,74.2 C118.6,73.7 121.7,73.6 123.2,73.5 L123.8,73.5 C124,73.6 124.3,73.6 124.6,73.7 C125.4,73.7 125.9,73.4 125.9,72.9 C125.9,72.4 125.4,72 124.5,72 C124.3,72 124.1,72 123.9,72.1 C123.7,72.1 123.4,72.1 123.1,72.1 C121.3,72.2 118.2,72.3 115.4,72.8 C116.8,72.4 118.2,72.1 119.2,72 C119.4,72 119.6,71.9 119.7,71.9 C119.9,72 120.2,72 120.5,72 C121,72 121.4,71.8 121.6,71.5 C121.7,71.4 121.8,71.2 121.8,71 C121.8,70.5 121.2,70.2 120.4,70.3 C120.2,70.3 119.9,70.4 119.8,70.5 C119.6,70.5 119.4,70.6 119.2,70.6 L119.1,70.6 C118.5,70.7 117.6,70.8 116.6,71.1 C118.7,69.9 120.8,69 122.2,68.5 C122.8,68.3 123.2,68.1 123.5,67.9 C123.7,67.9 124,67.8 124.2,67.7 C124.6,67.5 125,67.2 125.1,66.9 C125.2,66.7 125.2,66.5 125.1,66.4 C125,66.3 124.9,66 124.3,66 C124.1,66 123.8,66.1 123.5,66.2 C123.3,66.3 123.1,66.4 122.9,66.6 C122.6,66.8 122,67 121.5,67.2 C119.8,67.9 117.1,69 114.4,70.8 C116.5,68.8 118.7,67.3 119.4,66.8 C119.6,66.8 119.8,66.7 120,66.5 C120.4,66.3 120.7,65.9 120.8,65.6 C120.8,65.6 120.8,65.5 120.8,65.5 L134.4,62.5 C135.3,64.5 136.6,66.6 138,68.5 C134.1,72.4 128.8,78.9 126.2,85.1 M138.8,69.7 C139.5,70.6 140.2,71.4 140.9,72.2 C139.3,73.1 135.4,75.5 131.8,78.7 C134.1,75.2 136.7,72.1 138.8,69.7 M142.1,73.4 C142.6,73.9 143,74.4 143.3,74.7 C143.4,74.9 143.6,75 143.7,75.1 C143.7,75.1 143.7,75.1 143.8,75.1 C140.5,76.2 136.2,77.9 132.1,80.5 C135.9,77.1 140.6,74.3 142.1,73.4 Z" style="stroke:none;fill-rule:nonzero;fill:#000000;fill-opacity:1;"></path>
    </g>
  </g>
</svg>
