<svg height="300" width="160" xmlns="http://www.w3.org/2000/svg"><g><path d="m47.2 293.5c-1.6-20.4-2.6-37.7-1.9-48.8 1.4-19.5 6.6-45.5 12-66.8-1.1 1.5-2.5 2.8-4.6 3.6-.4.2-1.8.5-1.8.5h-.2c-5.1 20.8-9.6 44.6-10.9 62.3-.8 11.3.3 28.7 1.8 49.1z"/><path d="m59.4 159.4c1.6-3.3 5.7-5.3 8.2-7.9 3.2-3.3 4.9-7.5 5.5-12 .4-3.2-1.3-6.8-3.2-8.6-.9-.9-1.9-1.3-2.6-1.2v.1c-.2 9-4.4 12.9-8.1 16.4-2.6 2.5-5.1 5-6 8.7-1 3.9-.6 8.1-.1 12 .7 5.9 1.2 11.1-3.1 14v.1h.1c6.5-1.8 7.1-7.7 7.7-13.4.2-2.9.5-5.9 1.6-8.2.7-1.5-1.1 2.3 0 0z"/><path d="m52.3 153.8c.7-2.2 1.3-4.3 2.7-5.7 7.4-7.2 10.1-11.9 9.6-16.8-.2-2.5-1.7-3.7-2.9-3.8-.7 0-1.3 0-1.9.1-5.5 1-6.6 7.7-7.7 15.4-.7 4.7-1.4 9.6-3.5 14-.9 1.9-2.1 3.7-3.6 5.2-.5.4-5.8 3.8-5.9 3.4.3 1.3 8.7-3.5 9.5-4.3 1.9-2 2.9-4.8 3.7-7.5.6-2.2-1.4 4.7 0 0m-4.6 8.3c-.1.1-.2.2-.3.3 0-.1.1-.2.3-.3m-.8-2c.1-.1.1-.2.2-.3-.1.1-.2.2-.2.3m7.3-11.1c0 .1-.1.1-.1.2 0-.1.1-.2.1-.2m-2.1 5.2c.1-.2.1-.3.1-.5 0 .1-.1.3-.1.5m.3-1c0-.1.1-.2.1-.3-.1.1-.1.2-.1.3m.2-.6c0-.1.1-.2.1-.3-.1.1-.1.2-.1.3m.2-.6c0-.1.1-.2.1-.3-.1.1-.1.2-.1.3m.2-.6c0-.1.1-.2.1-.3 0 .1-.1.2-.1.3m.2-.6c0-.1.1-.2.1-.3 0 .1 0 .2-.1.3m.3-.6c0-.1.1-.2.1-.3-.1.2-.1.2-.1.3m.2-.5c0-.1.1-.2.1-.2s0 .1-.1.2m.7-1c0-.1.1-.1.1-.2 0 0 0 .1-.1.2m5.5-21h-.1.1c-.1 0 0 0 0 0m.9-.1c-.1 0-.1 0-.2 0zm-1.3.2c-.1 0-.2 0-.3.1.1-.1.2-.1.3-.1m-.5.1c-.1 0-.2.1-.3.1.1 0 .2-.1.3-.1m-.6.2c-.1 0-.2.1-.3.1.2 0 .3-.1.3-.1m-.5.2c-.1 0-.2.1-.2.1.1 0 .2 0 .2-.1m-.4.3c-.1 0-.1.1-.2.1 0 0 .1 0 .2-.1m-.5.3c-.1 0-.1.1-.2.2.1-.1.2-.1.2-.2m-.4.4c-.1.1-.1.1-.2.2.1-.1.2-.2.2-.2m-.3.4c-.1.1-.1.1-.2.2.1-.1.1-.2.2-.2m-.4.4c0 .1-.1.1-.1.2 0-.1.1-.2.1-.2m-.3.4c0 .1-.1.1-.1.2 0-.1 0-.1.1-.2m-1.6 3.4c0-.1 0-.1 0 0m.2-.6v-.1zm.2-.5c0-.1 0-.1.1-.2-.1.1-.1.1-.1.2m.2-.6c0-.1.1-.1.1-.2 0 .1 0 .2-.1.2m.3-.5c0-.1.1-.1.1-.2-.1.1-.1.1-.1.2m.3-.5c0-.1.1-.1.1-.2-.1.1-.1.1-.1.2m-4.1 18c-.1 0-.1.1 0 0-.1.1-.1 0 0 0m-.2.8v.1s0 0 0-.1m-1.1 4.1c0 .1 0 .1 0 0m-.3.8c0 .1 0 .1-.1.2.1-.1.1-.1.1-.2m-.3.8c0 .1-.1.2-.1.2.1-.1.1-.2.1-.2m-.3.7c0 .1-.1.2-.1.3 0-.1.1-.2.1-.3m-.3.7c0 .1-.1.2-.1.3 0-.1.1-.2.1-.3m-.4.7c-.1.1-.1.2-.2.3.1-.1.2-.2.2-.3m-.3.7c-.1.1-.1.2-.2.3.1-.1.1-.2.2-.3m-.4.7c-.1.1-.1.2-.2.3.1-.1.1-.2.2-.3m-8.4 6.4c.3-.1.6-.1.9-.2-.3.1-.6.2-.9.2.3 0 .1 0 0 0m7.5-5.2c-.1.1-.1.2-.2.3.1-.1.1-.2.2-.3m-.5.6c-.1.1-.2.2-.2.3.1-.1.2-.2.2-.3m-.5.6c-.1.1-.2.2-.2.3.1-.1.1-.2.2-.3m-.5.6c-.1.1-.2.2-.3.2.1-.1.2-.1.3-.2m-.6.5c-.1.1-.2.2-.3.2.1-.1.2-.1.3-.2m-.6.5c-.1.1-.2.1-.3.2.1-.1.2-.1.3-.2m-.6.5c-.1.1-.2.1-.3.2.1-.1.2-.2.3-.2m-.7.4c-.1.1-.2.1-.3.2.1-.1.2-.1.3-.2m-.8.4c-.1.1-.2.1-.3.2.1-.1.2-.1.3-.2m-.7.4c-.1 0-.2.1-.3.1.1 0 .2-.1.3-.1m-.9.3c-.1 0-.2.1-.3.1.1 0 .2 0 .3-.1m6.8-2.6c-.1.1-.2.2-.4.3.1-.1.3-.2.4-.3m-.8.5c-.1.1-.3.2-.4.3.2-.1.3-.2.4-.3m-.8.5c-.1.1-.3.2-.5.2.2-.1.4-.1.5-.2m-.9.4c-.2.1-.3.1-.5.2.2 0 .3-.1.5-.2m-1 .4c-.2.1-.4.1-.5.2.2 0 .3-.1.5-.2m-1.1.4c-.2.1-.4.1-.6.2.2-.1.4-.1.6-.2m-1.2.4c-.2.1-.4.1-.6.2.2-.1.4-.2.6-.2m6.8-3.4c.1-.1.2-.2.3-.3-.1.1-.2.2-.3.3m.5-.6.3-.3c-.1.1-.2.2-.3.3m.6-.6c.1-.1.2-.2.2-.3-.1.1-.2.2-.2.3m.4-.6c.1-.1.1-.2.2-.3 0 .1-.1.2-.2.3m2.5-5.5c0 .1-.1.2-.1.3 0-.1.1-.2.1-.3m-.2.7c0 .1-.1.2-.1.3 0-.1.1-.2.1-.3m-.2.6c0 .1-.1.2-.1.3 0 0 0-.2.1-.3m-.3.7c0 .1-.1.2-.1.3.1-.1.1-.2.1-.3m-.2.6c0 .1-.1.2-.1.3 0 0 0-.1.1-.3m-.3.7c-.1.1-.1.2-.2.3.1-.1.2-.2.2-.3m-.3.7c-.1.1-.1.2-.2.3.1-.1.1-.2.2-.3m-.4.6c-.1.1-.1.2-.2.3.1-.1.2-.2.2-.3z"/><path d="m84.5 169.2c-.4-5.3-5-9.9-3.8-15.2 1.2-5 2.7-10.9.4-15.8-1.9-3.9-5.1-5.7-6.4-6.5-.1-.1-.2-.1-.3-.2v.1c2 4.2.9 8.7.3 10.4 0 .1.6 1.4.6 1.5.3 1.3.5 2.7.5 4.1.1 2.5-.2 5.1-1.1 7.4-2.1 5.3-8.6 6.9-11.8 11.5-4 5.9-5.3 13.7-3.4 17.5h.1s0 0 0-.1c-.5-7 4.5-11 9.7-15.3 3.1-2.5 6.3-5.1 8.6-8.4.4 1.5 1.2 2.8 2 4 2 3.1 3.9 6-1.7 12.2v.1h.1c5.4-1.9 6.3-5 6.2-7.3-.2-1.8.1 2.3 0 0z"/><path d="m88 142.7c-1.6-1.7-3.4-3.5-4.7-5.5-.1.2-.2.3-.3.5.8 1.8 1.2 3.7 1.1 5.9 2 1 4.7 2.9 5.6 5.3.6 1.8.1 3.8-1.5 5.8-.2.2.7 0 .4 0 1.4-.3 3.7-1.7 4-4.6.2-2.4-2-4.7-4.6-7.4-1.7-1.6 2.6 2.7 0 0z"/><path d="m88.9 155.6h.2c-.1-.1-.2 0-.2 0z"/><path d="m57.3 126.5c-.1 0-.1 0-.1 0s-.1-.1-.2-.1c-.7-.4-3-1.6-5.7-1-1.8.3-3.4 1.3-5 2.9-2.5 2.6-2.9 5.5-3.3 8.1-.5 3.2-.9 5.7-4.8 6.5.5-.1-.5 0-.5.1-.1.6 2.6.7 2.9.7 2.4-.5 4.2-3.4 5.9-6.3 1.2-1.9 2.3-3.8 3.6-4.8-1 1.4-1.7 3.2-1.8 4.9-.2 3.5-.7 7-1.9 10.3-.6 1.8-1.5 3.5-2.6 5-.3.4-4.2 3.9-4.3 3.6.2.8 4.7-1.5 5.1-1.8 1.9-1.4 3.2-3.4 4.2-5.5 2-4.2 2.8-8.9 3.6-13.4.1-.6.1-.5 0-.2.2-1.4.4-2.6.7-3.5 1.4-3.1 2.5-5 4.1-5.3h.1.1c-.1-.1-.1-.1-.1-.2m-16.8 17c.2 0 .1 0 0 0m10.8-18.1c.1 0 .1 0 0 0h-.1zm5.9 1.1s.1 0 0 0m.1.1"/><path d="m51.9 138.4c.1-.3.4-2.3.5-3v.2c-.4 1.8-.5 2.6-.5 2.8z"/><path d="m51.6 170.3c0-.3-.7-4.2-.5-4.3-2.6 2.5-3.8 5.3-3.7 8.9v.1c.7-1.6 2-3.1 4.2-4.7-.1 0 0 0 0 0-.1-1.1 0 0 0 0z"/><path d="m73.3 145.9c-.4 0-2.5 4.8-3 5.4-1.3 1.9-2.9 3.7-4.7 5.2-1.4 1.2-3.9 2-4.7 3.7-.3.5-1.7 4.4-1.2 4.7 1 .7 8.8-6.2 9.7-7.2 1.7-1.7 3.2-3.8 3.8-6.1.2-.5.5-5.9.1-5.7z"/><path d="m38.4 153.1c.9-1.7 2.4-3.6 4.5-4-.5.1-1.7.3 0 0 .3-.1.2 0 0 0h1c.3-.6.6-1.3.8-2 .6-1.7 1.1-3.6 1.4-5.6-.9 1.3-2 2.4-3.2 3.1-.1.1-.3.3-.4.4l-1.1.4c-.3.1-.5.1-.7.1-1.6 1.6-2.8 3.6-3.7 5.7-.4 1.1-3 11.9-1.7 12-.3 0 2.5-9.1 3.1-10.1z"/><path d="m150.8 82.7c-.3-.2-.7-.3-1.1-.3-.3 0-.7 0-1 .1-.3 0-.6 0-1 0h-.3c-1.2 0-2.8-.1-4.5-.1-4.3 0-7.7.3-10.4.9 3.2-1.3 6.8-1.6 9-1.8.3 0 .6-.1.8-.1.3.1.7.2 1.1.2 1.1 0 1.8-.5 1.8-1.1s-.7-1-1.8-1c-.3 0-.7.1-1 .2-.3 0-.7.1-1.1.1-1.4.1-3.3.3-5.4.7 3.8-2 7.5-3.3 10.2-4.2 1-.3 1.6-.5 2.1-.7.3 0 .7 0 1.1-.2 1-.3 1.6-1 1.4-1.6s-1.1-.7-2-.4c-.3.1-.6.3-.9.5-.5.2-1.3.5-2.2.8-.1 0-.1 0-.2.1-.1-.3-.3-.6-.6-.8-.2-.1-.4-.3-.6-.3-.2-.2-.4-.4-.6-.7.7-.5 1.1-1.1.8-1.6-.1-.2-.3-.4-.9-.4-.4 0-.8.1-1.2.3-.1 0-.1.1-.2.1-.7-.8-1.5-1.7-2.3-2.7.1-.1.2-.3.4-.4 1.2.9 2.3 1.5 3 1.9.1.1.3.3.5.4.3.1.5.2.8.2.5 0 .7-.3.7-.4.2-.4-.1-1-.8-1.3-.2-.1-.4-.2-.7-.2-.5-.3-1.5-.9-2.5-1.7.1-.1.2-.2.3-.3 1.8.8 3.5 1.4 4.6 1.7l.9.3c.2.2.4.3.7.4.7.2 1.3.1 1.5-.4.1-.2 0-.3 0-.5-.1-.3-.5-.5-.9-.7-.2-.1-.4-.1-.6-.1-.3-.1-.6-.2-1-.4-1-.3-2.5-.8-4-1.5 0 0 0 0 .1-.1.2-.1.4-.1.5-.2h.5.1c.2.1.5.2.8.2.8.1 1.3-.2 1.3-.7s-.5-.9-1.2-.9c-.1 0-.2 0-.3 0 0-.1.1-.1.1-.2 0 0 0 0 0-.1h.1c1.1 0 2.1 0 2.8-.1h.3c.2.1.4.1.7.1h.1c.5 0 .8-.2 1.1-.4.1-.1.2-.3.2-.5 0-.4-.5-.8-1.2-.8h-.1c-.2 0-.4.1-.6.1h-.5c-.7 0-1.6.1-2.7.1-2.6 0-4.6-.2-6.2-.5 1.8 0 4.1-.1 5.4-.2h.6c.4-.1.8-.3 1-.5.1-.2.2-.3.1-.5 0-.2-.1-.3-.3-.4h.2c.3 0 .5-.1.7-.3.4-.3.4-.6.4-.7-.1-.5-.6-.7-1.4-.6-.2 0-.4.1-.6.2-.7.1-2.1.2-3.7.4.3-.1.6-.2.8-.3l.3-.1c.2 0 .5 0 .7-.1.4-.1.8-.4.9-.6s.1-.3.1-.5c-.1-.5-.8-.6-1.5-.4-.2.1-.4.2-.6.3l-.4.1c-.4.1-.8.3-1.3.4 2.3-1.1 4.8-1.9 6-2.3l.5-.2c.2 0 .5 0 .7-.1.3-.1.5-.2.7-.3.4-.3.4-.6.3-.8-.1-.5-.8-.6-1.4-.5-.2.1-.4.1-.6.2s-.4.1-.7.2c-1.5.5-3.9 1.3-6.2 2.4 1-.6 2-1.1 2.6-1.4l.4-.2c.2 0 .5 0 .7-.1.4-.2.7-.4.9-.7.1-.2.1-.4 0-.5s-.2-.4-.8-.4c-.2 0-.5 0-.7.1s-.4.2-.5.3c-.2.1-.4.2-.6.3-.5.2-1.2.6-2 1 1.5-1.5 3-2.8 4.2-3.7.5-.4.8-.6 1-.9.2-.1.4-.2.6-.3.4-.3.6-.6.6-.9 0-.2 0-.4-.1-.5-.3-.4-.9-.3-1.5.2-.2.1-.3.3-.4.5-.2.2-.7.6-1.1.9-1.4 1.1-3.4 2.7-5.2 4.8 1.3-2.1 2.7-3.9 3.2-4.5.2-.1.4-.2.5-.4.3-.3.5-.7.5-1 0-.2-.1-.4-.2-.5-.3-.3-1-.2-1.5.4-.2.2-.3.4-.4.6-.6.7-2.1 2.5-3.4 4.7 1-3.7 2.5-7 3-8.3.1-.1.3-.3.4-.5.2-.4.4-.8.3-1.1 0-.2-.1-.3-.3-.4-.4-.3-1 0-1.4.6-.2.2-.3.5-.3.7-.7 1.6-4 9-4.3 14.9l-16.9 3.7c.9-1.1 1.6-2 2.1-2.6.2-.1.4-.2.6-.4.6-.5.8-1.1.5-1.5s-1-.3-1.6.2c-.2.2-.4.4-.5.6-.5.6-1.7 2.1-3.2 4l-21.5 4.7c0-.1 0-.1 0-.2-.4.3-.9.4-1.4.4-1 0-2-.6-2.7-1.4-.6-.8-.8-1.7-.6-2.4-.8.6-1.7.8-2.4.8-.3 0-.6-.1-.8-.2l.9-5.4 6.4-11.6c6.7 2.2 16.1 1.8 18.5 1.6h.7c.8-.2 1.3-.6 1.2-1.2-.1-.5-.8-.7-1.6-.6-.3.1-.6.2-.8.3-.9.1-2.4.1-4.1.1-1.9 0-4.3-.1-6.9-.3 3-.5 5.7-1.3 7-1.7.2 0 .5-.1.7-.2.8-.3 1.2-.9.9-1.4-.1-.1-.3-.4-.8-.4-.3 0-.6.1-.9.2s-.5.3-.7.5c-1.3.4-4 1.2-6.9 1.7 3.5-1.2 6.5-2.9 8.5-4.1h.1c.3-.2.6-.4.9-.5.3 0 .6-.1.9-.3.7-.4 1.1-1.1.8-1.5-.1-.1-.3-.3-.7-.3-.3 0-.7.1-1 .3-.2.1-.4.3-.5.4-.3.2-.7.4-1.1.7-1.6 1-3.8 2.3-6.5 3.3 1-.8 1.8-1.6 2.4-2.2l.2-.2c.3-.1.6-.3.8-.5.4-.4.6-.8.6-1.1s-.1-.4-.2-.5-.3-.2-.5-.2c-.3 0-.8.2-1.1.6-.2.2-.3.3-.4.5-.1.1-.3.3-.4.4-.9.8-2.3 2.2-4 3.3 2.6-2.2 5.1-5.2 6.5-6.9l.2-.3c.2-.1.5-.3.7-.6.3-.4.5-.9.5-1.2s-.2-.4-.3-.5c-.4-.3-1.1-.1-1.6.6-.2.2-.3.4-.4.6-.1.1-.2.3-.4.4-1.5 1.8-5 6-8.1 8.1 1.6-1.8 3.6-4.3 4.6-5.7.2-.2.3-.3.5-.6.3-.4.4-.9.3-1.3-.1-.2-.2-.4-.3-.4-.4-.2-.9 0-1.2.4 0 0 .1-.1.1-.1.2-.1.5-.4.7-.7.5-.7.5-1.4 0-1.7-.1-.1-.2-.1-.4-.1-.5 0-.9.4-1.2.8-.1.2-.2.4-.3.6-.7.9-1.9 2.6-3.1 4.4.3-.7.6-1.4.8-1.8l.2-.4c.2-.2.4-.4.5-.7.2-.5.3-.9.2-1.3-.1-.2-.2-.4-.4-.4-.1 0-.2-.1-.3-.1-.5 0-.9.5-1.1 1-.1.2-.2.5-.2.7l-.2.5c-.3.7-.8 1.7-1.2 2.8.8-3.2 2.2-6.7 3-8.6l.3-.6c.2-.2.4-.4.5-.7.2-.5.3-.9.2-1.3-.1-.2-.2-.4-.4-.4-.1 0-.2-.1-.3-.1-.5 0-.9.5-1.1 1-.1.2-.2.5-.2.7-.1.2-.2.5-.3.8-.9 2-2.3 5.6-3.1 8.9.2-2 .7-3.9 1.1-5 .1-.2.1-.4.2-.6.2-.2.3-.4.4-.7.2-.5.2-1 .1-1.3-.1-.2-.3-.3-.4-.4-.1 0-.2 0-.2 0-.5 0-.9.6-1.1 1.1-.1.2-.1.5-.1.7-.1.2-.1.4-.2.7v.1c-.2.8-.5 1.9-.8 3.1-.1-.8-.1-1.5-.1-2.3l1.9-11.6c5.7-.1 12.8-2.9 14.9-3.8.2 0 .4-.1.6-.2.6-.4.9-.9.7-1.4-.1-.1-.3-.3-.6-.3s-.6.1-.9.3c-.2.1-.4.3-.5.4-1.2.5-4.5 1.8-8.1 2.7 2-1.1 3.7-2.4 4.5-3 .2-.1.4-.2.5-.4.3-.3.5-.7.5-1 0-.2-.1-.4-.2-.5-.3-.3-1-.2-1.5.3-.2.2-.3.4-.4.6-.7.6-2.3 1.7-4.2 2.8 2.2-1.8 3.9-3.8 4.9-5.1.2-.2.4-.5.6-.7.2-.1.4-.3.6-.5.3-.3.5-.7.4-1 0-.2-.1-.3-.2-.5-.3-.3-1-.1-1.4.5-.1.2-.2.3-.3.5-.2.2-.4.5-.7.8-.9 1-2.2 2.6-3.8 4 .4-.7.8-1.4 1-1.9l.1-.2c.2-.1.4-.4.5-.7.2-.4.3-.8.2-1.1-.1-.2-.2-.3-.3-.4-.1 0-.2-.1-.3-.1-.4 0-.8.4-1 .8-.1.2-.1.3-.2.5l-.2.4c-.4.7-.8 1.7-1.5 2.7 1.2-2.2 2-4.7 2.6-6.2l.1-.3c.2-.2.3-.4.4-.7.1-.4.2-.8 0-1.1-.1-.2-.2-.3-.4-.3h-.2c-.5 0-.8.5-1 1-.1.2-.1.4-.1.6l-.2.4c-.6 1.7-2 5.5-3.7 8.1.7-1.8 1.5-3.9 1.8-5.1.1-.2.2-.4.2-.6.1-.4.1-.9-.1-1.1-.1-.2-.2-.3-.4-.3s-.4 0-.5.1c0-.1 0-.1.1-.2.2-.7 0-1.3-.5-1.4h-.1c-.5 0-.8.6-1 1.1-.1.2-.1.4-.1.6-.2.7-.6 2-1 3.5 0-.3 0-.6.1-.8v-.3c.1-.2.2-.5.2-.7 0-.4 0-.9-.2-1.1-.1-.1-.3-.2-.5-.2-.5 0-.8.5-.9 1.2v.6.5c0 .4-.1.9-.1 1.4-.2-2.5 0-5.1.1-6.4v-.5c.1-.2.2-.4.2-.7.1-.4 0-.90001-.2-1.1-.1-.09999-.3-.2-.5-.30001-.5 0-.8.5-.9 1.20001v.6.7c-.1 1.6-.3 4.1-.1 6.6-.2-1.2-.2-2.2-.3-2.9v-.5c.1-.2.1-.4.1-.7 0-.5-.1-.9-.3-1.1-.1-.1-.3-.2-.5-.2-.5 0-.8.5-.8 1.3 0 .2 0 .4.1.6v.7c0 .6.1 1.3.2 2.2-.9-2-1.4-3.8-1.8-5.2-.2-.6-.3-1-.4-1.3 0-.2 0-.5-.1-.7-.1-.5-.5-1-1-1 0 0-.1 0-.2 0-.5.1-.6.7-.4 1.5.1.2.2.4.3.6.1.3.3.9.4 1.3.5 1.6 1.2 4.1 2.5 6.6-1.5-2-2.6-4-3-4.7 0-.2-.1-.4-.2-.6-.2-.4-.6-.9-1-.9-.1 0-.2 0-.3.1s-.4.2-.4.7c0 .2.1.5.2.8.1.2.3.5.4.6.4.8 1.6 2.8 3.1 4.9-3-2.3-5.6-4.9-6.5-5.9-.1-.2-.1-.4-.3-.6-.4-.6-1-.8-1.4-.6-.4.3-.4.9 0 1.5.2.2.4.4.6.5.9 1 4.4 4.6 8.4 7.3-.3.3-.5.6-.7 1s-.3.7-.3 1.1c-.7 1-2 3-3.8 5.4-.2-.3-.4-.5-.8-.5 0 0-.1 0-.2 0s-.3.1-.4.3c-.2.3-.2.8-.1 1.3 0 .2.1.3.2.4-1.5 1.9-3.1 3.9-4.9 5.8 2.2-4 3.7-8.2 4.3-10.2.2-.3.3-.6.4-.9.1-.4.1-.8 0-1.2-.1-.6-.5-.8-.7-.8 0 0-.1 0-.2 0-.6 0-1.1.8-1.3 1.6-.1.4-.1.8 0 1.1-.6 1.8-2.3 6.5-4.7 10.7 2.1-5.5 2.6-11.1 3-14.5.1-.5.1-1 .2-1.5.2-.3.3-.7.4-1.2.1-.7-.1-1.3-.3-1.6-.2-.2-.4-.3-.6-.3-.6 0-1.1.7-1.2 1.7v.9c-.1.5-.1 1.1-.2 1.8-.3 2.8-.7 6.7-1.8 10.9 0-2.2-.3-4.1-.5-5.5v-.4c.1-.3.2-.8.1-1.3-.1-.8-.5-1.6-1.2-1.6h-.1c-.1 0-.3.1-.5.3-.3.3-.4.9-.3 1.6 0 .3.1.5.2.8 0 .2.1.5.1.8.1 1 .3 2.4.4 3.9l-2-6.7c-.3-1.1-.5-2.1-.7-2.9-.1-.2-.1-.4-.1-.5.1-.4 0-.8-.1-1.2-.1-.5-.4-1.1-.8-1.3 5.1-2.6 10.2-8.3 11.7-10 .2-.1.3-.3.4-.49999.4-.60001.4-1.20002 0-1.5-.4-.20002-1 0-1.4.59999-.1.19999-.2.40001-.3.6-.9 1-3.3 3.6-6.1 6 1.3-1.9 2.3-3.8 2.7-4.7.1-.2.2-.4.3-.6.2-.39999.2-.8 0-1.10001-.1-.19999-.2-.29998-.4-.39999h-.2c-.5 0-.8.5-1 .89999-.1.20002-.1.5-.1.70001-.4.8-1.3 2.5-2.5 4.3 1.1-2.5 1.7-5.00001 2.2-6.7v-.09999c.1-.30001.1-.5.2-.70002.1-.19999.3-.39999.3-.69999.1-.4.1-.9-.1-1.09999-.1-.20001-.2-.30001-.4-.30001h-.1c-.5 0-.8.59999-.9 1.09999-.1.20002-.1.40001-.1.60001-.1.3-.2.60001-.3 1.10001-.4 1.39999-.8 3.29999-1.6 5.29999.1-.9.1-1.6.1-2.2v-.2c.1-.2.2-.5.2-.8 0-.5-.1-.9-.3-1.09999-.1-.10001-.3-.20002-.5-.20002-.5 0-.8.5-.8 1.30001 0 .19999 0 .4.1.5v.5c0 .7 0 1.8-.2 3 0-2.5-.2-5-.4-6.59999v-.30001c.1-.19999.1-.5.1-.8-.1-.7-.4-1.2-1-1.2-.5.1-.7.59999-.7 1.4 0 .19999.1.40001.2.6v.5c.2 1.80001.6 5.8.2 8.9-.1-1.9-.4-4.1-.6-5.4 0-.2 0-.4-.1-.6-.2-.59999-.5-1.09999-.9-1.09999h-.1c-.2 0-.3.09999-.4.29998 0-.09999 0-.09999 0-.19999-.1-.7-.5-1.09999-.9-1.09999h-.1c-.5.09999-.7.69999-.5 1.39999 0 .2.1.39999.2.6.1.8.3 2.1.6 3.6-.1-.3-.2-.6-.3-.8l-.1-.3c0-.2 0-.5-.1-.7-.2-.5-.5-.9-1-.9-.1 0-.2 0-.2 0-.2.1-.3.2-.4.4-.1.3-.1.7.1 1.1.1.2.2.4.3.5l.2.4c.1.4.3.8.5 1.3-1.2-2.2-2.3-4.6-2.8-5.9l-.2-.40001c0-.19999 0-.5-.1-.69999-.2-.4-.5-1-1-1-.1 0-.2 0-.2 0-.2.1-.3.19999-.4.3-.1.3-.1.7 0 1.10001.1.19999.2.39999.3.5.1.19999.2.39999.3.69999.6 1.5 1.6 3.8 2.9 6-.7-1-1.2-1.9-1.6-2.6-.1-.2-.2-.3-.2-.4 0-.2-.1-.5-.2-.7-.2-.4-.6-.9-1-.9-.1 0-.2 0-.3.1s-.4.2-.4.7c0 .2.1.5.2.8.1.2.2.4.3.5.1.2.2.4.3.6 0 .1.1.1.1.2-.1.1-.2.3-.2.5v.1c-1.1-1-2-2-2.7-2.8-.4-.4-.7-.8-.9-1-.1-.2-.2-.4-.4-.6-.5-.5-1.1-.69999-1.5-.40001-.4.30001-.2.90001.3 1.50001.2.2.3.3.5.4.2.2.6.7 1 1 .8.8 1.9 2 3.2 3.2-.1.1-.1.3-.2.4-1.2-.7-2.2-1.4-2.6-1.7-.1-.2-.3-.3-.4-.5-.6-.5-1.2-.5-1.5-.2 0 .1-.1.1-.1.2 0-.1 0-.2 0-.2.1-.2.1-.5.1-.8 0-.7-.4-1.3-.8-1.3-.5 0-.8.5-.8 1.3 0 .2 0 .4.1.6v1.1 1.8c-.4-.1-.7-.2-.9-.3-.1-.1-.3-.3-.5-.4-.6-.3-1.1 0-1.5.1-.1 0-.2 0-.2.1-.1-.3-.2-.6-.3-.9l-.1-.3c0-.2 0-.5-.1-.8-.2-.4-.5-.9-1-.9-.1 0-.2 0-.2 0-.4.2-.6.8-.3 1.5.1.2.2.4.3.5l.2.4c.6 1.7 2.1 5.5 2.5 8.5-.6-1.8-1.4-3.9-2-5 0-.2-.1-.4-.2-.6-.2-.4-.6-.8-1-.8-.1 0-.2 0-.3.1s-.3.2-.3.4c0-.1 0-.1-.1-.2-.2-.4-.6-.8-1-.8-.1 0-.2 0-.3.1-.4.2-.5.8-.1 1.5.1.2.2.3.3.5.3.7.9 2 1.5 3.3-.2-.3-.4-.5-.5-.7l-.2-.3c-.1-.2-.2-.5-.3-.7-.4-.6-1.1-.8-1.4-.6-.1.1-.2.3-.3.4-.1.3.1.7.3 1.1.1.2.3.3.4.4l.3.4c.2.3.5.7.8 1.1-1.1-1.1-2.1-2.3-2.9-3.3.1-.2.1-.3.1-.5 0-.4-.1-.9-.3-1.1-.1-.1-.3-.2-.5-.2s-.4.1-.6.3c0-.1-.1-.1-.1-.2l-.3-.4c0-.2-.2-.4-.3-.7-.2-.3-.6-.7-1-.7-.1 0-.3 0-.4.1s-.2.2-.3.4c-.1.3.1.7.3 1.1.1.2.3.3.4.5s.3.3.4.6c.3.3.6.7.9 1.1 0 .1-.1.3-.1.4-.3-.1-.6-.1-.8 0-.1.1-.2.3-.2.5 0 .3.1.7.4 1 0 .1.1.1.1.1-.1.3-.2.6-.3.9-.5-.3-1-.6-1.4-.9 0-.1 0-.3 0-.4-.1-.7-.5-1.2-1-1.2-.3 0-.5.3-.6.6-.1-.1-.2-.2-.4-.2-.1-.2-.3-.3-.5-.5-.2-.1-.3-.2-.5-.2 0-.1-.1-.3-.1-.4 0-.2 0-.5 0-.8-.2-.6-.5-1.1-1-1.1 0 0-.1 0-.2 0-.5.1-.7.7-.5 1.4 0 .2.1.4.2.5.1.3.1.6.3 1.1.3 1.3.8 3.2 1 5.4-.3-.8-.7-1.4-.9-2 0-.1-.1-.1-.1-.2 0-.2-.1-.5-.2-.8-.2-.4-.6-.8-1-.8-.1 0-.2 0-.3.1-.2.1-.3.2-.3.4-.1.3 0 .7.2 1.1.1.2.2.3.3.4s.1.3.2.4c.3.6.7 1.4 1.1 2.3 0 0 0 0-.1 0-1.1-2.1-2.4-4-3.2-5.2l-.2-.3c0-.2-.2-.5-.3-.7-.4-.6-1-.8-1.4-.6-.4.3-.4.9.1 1.5.1.2.3.3.4.4l.3.4c.6.9 1.7 2.5 2.7 4.3-.2.1-.3.2-.4.4-.4-.5-.7-1-1-1.4-.1-.2-.2-.4-.3-.5-.5-.5-1.1-.7-1.5-.4-.1.1-.2.3-.2.5 0-.1-.1-.1-.1-.1-.5-.6-1.1-.7-1.4-.4-.1.1-.3.3-.2.8.1.2.2.5.4.7.1.2.3.3.4.4.5.6 1.3 1.7 2.3 2.9-.2-.2-.5-.4-.6-.5l-.2-.2c-.1-.2-.3-.4-.5-.6-.5-.5-1.2-.6-1.5-.2-.1.1-.2.3-.2.5 0 .3.2.7.6 1 .2.1.3.3.5.3l.4.3c.3.3.7.6 1.1.9-2.1-1.3-4.1-3-5.2-3.9l-.4-.3c-.1-.2-.2-.4-.4-.6-.5-.5-1.2-.6-1.5-.3-.1.1-.2.3-.2.5 0 .3.2.7.5 1 .2.1.3.3.5.4s.3.3.6.5c1.2 1 3.2 2.6 5.3 4-1.1-.5-1.9-1.1-2.6-1.5-.1-.1-.3-.2-.4-.2-.1-.2-.3-.4-.5-.5-.6-.4-1.2-.5-1.5-.1-.1.1-.1.3-.1.5 0 .3.3.7.7.9l.6.3c.2.1.3.2.5.3.5.3 1.1.7 1.9 1.1-2.1-.5-4-1.1-5.3-1.6-.6-.2-1-.3-1.3-.4-.2-.1-.4-.3-.6-.3-.2-.1-.4-.1-.7-.1-.6 0-.8.3-.8.5-.2.5.2.9.9 1.2.2.1.4.1.6.1.3.1.9.3 1.4.4 1.6.6 4 1.4 6.8 1.9-.2 0-.3 0-.5 0-2.3 0-4.4-.2-5.1-.3-.2-.1-.4-.2-.6-.2-.1 0-.3 0-.4 0-.6 0-.9.3-1 .6-.1.5.4.9 1.1 1 .3.1.5.1.7 0 .7.1 2.8.4 5.2.4h.6c-3.7 1.1-7.3 1.6-8.6 1.8-.2-.1-.4-.1-.7-.1-.7 0-1.2.3-1.2.8 0 .2.1.3.2.5.2.2.6.4 1.1.4.3 0 .5 0 .7-.1 1.7-.2 9.8-1.4 14.9-4.3l2.2 2.2v.1c.5 1.4 1.1 3.2 1.5 5.3-.4-.8-.8-1.4-1.1-1.9l-.1-.2c0-.2-.1-.5-.3-.8-.4-.6-1-.9-1.4-.6s-.4.9 0 1.5c.1.2.2.3.3.4l.2.4c.4.7 1 1.6 1.5 2.7-1.3-2.2-2.9-4.2-3.9-5.4l-.2-.2c-.1-.2-.2-.5-.4-.7-.5-.6-1.1-.8-1.4-.5-.4.3-.3.9.2 1.5.1.2.3.3.4.4l.3.4c1.1 1.4 3.6 4.6 4.9 7.4-1.1-1.5-2.5-3.3-3.4-4.2-.1-.2-.2-.4-.4-.5-.5-.5-1.2-.6-1.5-.3-.1.1-.2.3-.2.5 0 0-.1-.1-.1-.1-.3-.3-.7-.5-1-.5-.2 0-.4.1-.5.2-.3.3-.2.9.3 1.5.1.1.3.3.5.4.5.6 1.4 1.6 2.5 2.7-.3-.2-.5-.4-.7-.5l-.3-.2c-.1-.2-.3-.4-.5-.6-.6-.4-1.2-.5-1.5-.1-.1.1-.1.3-.1.5 0 .3.3.7.6.9.2.2.4.3.6.3l.4.3c.3.2.7.5 1.1.8-2.2-1.2-4.4-2.7-5.5-3.4l-.4-.3c-.1-.2-.3-.4-.5-.5-.6-.4-1.2-.5-1.5-.2-.1.1-.2.3-.1.5 0 .3.3.7.6.9.2.1.4.2.5.3.2.1.4.3.6.4 1.3.9 3.4 2.4 5.6 3.5-1.1-.4-2-.9-2.7-1.3-.2-.1-.3-.2-.4-.2-.1-.2-.3-.3-.5-.5-.3-.2-.6-.3-.9-.3-.4 0-.6.2-.6.3-.1.1-.1.3-.1.5.1.3.3.6.7.9.2.1.4.2.6.3s.4.2.6.3c.5.3 1.2.6 2 1-2.1-.3-4-.8-5.4-1.2-.6-.2-1-.3-1.3-.3-.2-.1-.4-.2-.6-.3-.7-.2-1.3 0-1.4.5s.3.9 1 1.1c.2.1.5.1.6.1.3.1.9.2 1.4.3 1.6.4 4.1 1.1 6.9 1.3-2.4.2-4.8.1-5.6.1-.2-.1-.4-.1-.6-.2-.7-.1-1.3.2-1.4.7 0 .2 0 .3.2.5s.6.4 1 .5c.3 0 .5 0 .7-.1.8.1 3.1.2 5.8-.1-3.6 1.4-7.1 2.2-8.5 2.5-.2 0-.3-.1-.5-.1h-.1c-.5 0-.8.2-1.1.4-.1.1-.2.3-.2.5 0 .4.5.7 1.2.7h.1c.3 0 .5-.1.8-.2 1.4-.3 6.6-1.5 11.2-3.6 1.8 2.4 4.5 6.5 6.8 10.9-2.7-3-5.6-5.4-7.1-6.5-.2-.2-.4-.4-.7-.6-.4-.3-.8-.4-1.2-.4-.5 0-.7.2-.7.4-.3.5.1 1.2.9 1.7.3.2.6.3.9.4 1.6 1.3 4.7 3.8 7.2 6.8-3.9-3.3-8.3-5.4-10.9-6.6-.4-.2-.9-.4-1.2-.6-.2-.3-.5-.5-.9-.7s-.7-.3-1.1-.3c-.6 0-.8.3-.9.4s-.1.3 0 .6c.1.4.5.8 1.1 1 .3.1.5.2.8.2.4.2.8.4 1.5.7 2.1 1 5.2 2.5 8.3 4.7-1.7-.6-3.3-.9-4.4-1.2l-.3-.1c-.3-.2-.6-.4-1.1-.5-.9-.2-1.7.1-1.8.6v.2l-7.6-1.1c-.2-5.7-3.2-12.8-4.1-14.9 0-.2-.1-.4-.2-.6-.2-.4-.6-.7-1-.7-.1 0-.2 0-.3.1s-.2.2-.3.4c-.1.3 0 .7.3 1.1.1.2.3.4.5.5.5 1.2 1.9 4.5 2.9 8.1-1.2-2-2.4-3.7-3.1-4.5-.1-.2-.2-.4-.4-.5-.3-.3-.7-.5-1-.5-.2 0-.4.1-.5.2-.3.3-.2.9.3 1.5.2.2.4.3.6.4.6.7 1.7 2.3 2.8 4.1-1.8-2.1-3.8-3.7-5.1-4.8-.2-.2-.5-.4-.7-.6-.1-.2-.3-.4-.5-.6-.6-.5-1.2-.5-1.5-.2-.1.1-.2.3-.1.5 0 .3.3.7.6.9.2.1.3.2.5.3.2.2.5.4.8.7 1.1.9 2.6 2.1 4.1 3.7-.7-.4-1.4-.7-1.9-1-.1 0-.1-.1-.2-.1-.2-.2-.4-.4-.7-.5s-.5-.2-.8-.2c-.5 0-.7.3-.7.4-.2.4.1 1 .8 1.3.2.1.3.1.5.2.1.1.3.1.4.2.7.3 1.6.8 2.6 1.4-2.2-1.1-4.7-1.9-6.2-2.5l-.3-.1c-.2-.2-.4-.3-.7-.4-.7-.2-1.3-.1-1.5.4-.1.2 0 .3 0 .5.1.3.5.5.9.7.2.1.4.1.6.1l.4.2c1.7.6 5.5 1.9 8.1 3.6-1.8-.7-3.9-1.4-5.1-1.7-.2-.1-.4-.2-.6-.2-.1 0-.3 0-.4 0-.6 0-.9.3-1 .6 0 .2 0 .3.1.5-.1 0-.1 0-.2 0-.7-.2-1.3 0-1.4.5 0 .2 0 .3.1.5.2.3.5.5 1 .6.2 0 .4.1.6.1.8.2 2.1.6 3.5 1-.3 0-.6 0-.8-.1h-.3c-.2-.1-.5-.2-.7-.2-.8-.1-1.3.2-1.3.7 0 .2 0 .3.2.5s.6.4 1 .4h.6.5c.4 0 .9.1 1.4.1-1 .1-2.1.1-3.2.1-1.3 0-2.5 0-3.2-.1h-.5c-.2-.1-.4-.2-.7-.2-.8-.1-1.3.2-1.4.7 0 .5.4.9 1.2.9h.6.7c.9 0 2.1.1 3.4.1 1.2 0 2.2 0 3.2-.1-1.2.2-2.2.3-2.9.3-.2 0-.3 0-.5 0-.2-.1-.4-.1-.7-.1-.5 0-.9.1-1.1.4-.1.1-.2.3-.2.5 0 .5.5.8 1.3.8.2 0 .4 0 .6-.1.2 0 .4 0 .6-.1.6 0 1.3-.1 2.2-.2-1.9.9-3.8 1.5-5.2 1.9-.6.2-1 .3-1.3.4-.2 0-.5 0-.7.1-.4.1-.8.4-.9.7-.1.2-.1.3-.1.5.1.4.8.6 1.5.4.2-.1.4-.2.6-.3.3-.1.8-.3 1.3-.5 1.6-.5 4.1-1.3 6.6-2.6-2 1.6-4 2.7-4.7 3.1-.2 0-.4.1-.6.2-.7.3-1 .9-.8 1.3.1.1.2.4.7.4.2 0 .5-.1.8-.2.2-.1.4-.3.6-.4.7-.4 2.7-1.6 4.8-3.2-2.3 3.1-4.8 5.7-5.8 6.7-.2.1-.4.2-.6.3-.4.3-.6.6-.7.9 0 .2 0 .4.1.5.1.2.3.3.6.3s.6-.1.9-.4c.2-.2.4-.4.5-.6.3-.3.8-.8 1.4-1.5.1.1.2.2.4.3s.4.2.6.3c1.2 1.1 3.7 3.4 5.9 6.2-1.9-1.3-3.7-2.3-4.7-2.8-.2-.1-.3-.2-.6-.3-.2-.1-.5-.1-.7-.1-.6 0-.7.3-.8.4-.2.5.2 1 .9 1.2.2.1.5.1.7.1.8.4 2.6 1.4 4.3 2.6-2.6-1.2-5.1-1.9-6.7-2.3-.3-.1-.6-.2-.9-.2-.2-.1-.4-.3-.7-.3-.7-.2-1.3 0-1.4.5s.3.9 1 1.1c.2.1.4.1.6.1.3.1.6.2 1.1.3 1.3.4 3.2.9 5.3 1.7-.8-.1-1.6-.1-2.2-.1-.1 0-.1 0-.2 0-.2-.1-.5-.2-.9-.2-.7 0-1.2.3-1.2.8s.5.8 1.3.8c.2 0 .3 0 .5-.1h.5c.8 0 1.9.1 3 .2-.4 0-.8 0-1.2 0-2.1 0-4.2.2-5.5.3h-.3c-.2-.1-.5-.1-.8-.1-.4 0-.8.2-1 .5-.1.1-.2.3-.2.5.1.5.6.8 1.4.7.2 0 .4-.1.6-.1h.5c1.2-.1 3.2-.3 5.4-.3 1.4 0 2.6.1 3.5.2-1.9.1-4.1.3-5.4.5-.2 0-.4 0-.6 0-.4.1-.8.3-1 .6-.1.2-.1.3-.1.5s.1.3.3.4c-.1 0-.1 0-.2 0-.4.1-.8.3-1 .6-.1.2-.1.3-.1.5.1.5.6.7 1.4.5.2 0 .4-.1.6-.2.8-.1 2.1-.3 3.6-.6-.3.1-.6.2-.8.3l-.3.1c-.2 0-.5 0-.7.1-.4.2-.8.4-.9.7-.1.2-.1.3 0 .5.1.1.2.5.8.5.2 0 .4 0 .7-.1.2-.1.4-.2.5-.3l.4-.2c.4-.1.8-.3 1.3-.5-2.2 1.2-4.6 2.2-5.9 2.7l-.5.2c-.2 0-.5 0-.7.1-.7.2-1.1.7-1 1.2.1.4.8.6 1.5.4l.6-.3c.2-.1.4-.2.7-.3 1.5-.6 3.9-1.5 6-2.8-1 .7-1.9 1.2-2.6 1.5-.2.1-.3.2-.4.2-.2 0-.5.1-.7.2-.4.2-.7.5-.8.8-.1.2-.1.4 0 .5s.2.4.7.4c.2 0 .5-.1.8-.2.2-.1.4-.2.5-.3.2-.1.4-.2.6-.3.5-.3 1.2-.6 1.9-1.1-1.4 1.6-2.9 2.9-3.9 3.9-.4.4-.8.7-1 .9-.2.1-.4.2-.6.4-.6.5-.7 1.1-.4 1.5.3.3 1 .2 1.5-.2.2-.2.3-.3.4-.5.2-.2.7-.6 1-1 1.3-1.1 3.2-2.9 4.9-5.1-1.2 2.2-2.5 4.1-3 4.7-.2.1-.3.3-.5.4-.3.4-.4.7-.4 1 0 .2.1.3.2.5.4.3 1 .1 1.4-.5.2-.2.3-.4.4-.6.6-.8 1.9-2.6 3.1-4.9-.6 2.6-1.3 4.9-1.9 6.6-.2-.1-.4-.1-.5-.2-.2-.1-.4-.1-.6-.2-.8-.1-1.3.2-1.4.6 0 .2 0 .3.1.5.2.2.6.4 1 .5h.7c.1 0 .1 0 .2.1-.1.2-.1.4-.2.5s-.3.3-.4.5c-.2.4-.3.8-.2 1.1 0 .2.2.3.3.4s.2.1.3.1c.4 0 .8-.4 1-.8.1-.2.2-.5.3-.7s.2-.4.3-.7c1.7.6 4.1 1.4 6.5 2.6-2.3-.4-4.4-.5-5.4-.6-.2-.1-.4-.1-.6-.1-.7.1-1.2.4-1.2.9s.6.8 1.3.7c.2 0 .5-.1.7-.2.9 0 2.9.2 5 .5-2.8 0-5.3.5-7 .8-.3.1-.6.1-.9.2-.2-.1-.5-.1-.8 0-.4.1-.8.3-1 .5-.1.2-.1.3-.1.5.1.3.5.7 1.4.6.2 0 .4-.1.6-.2.3 0 .6-.1 1.1-.2 1.4-.2 3.3-.6 5.5-.7-.8.3-1.5.6-2 .8l-.1.1c-.2 0-.5.1-.8.2-.4.2-.7.5-.8.8-.1.2-.1.4 0 .5s.2.4.7.4c.2 0 .5-.1.8-.2.2-.1.4-.2.4-.3l.4-.2c.7-.3 1.7-.7 2.8-1.1-2.3 1-4.5 2.3-5.9 3.1l-.3.2c-.2 0-.5.1-.7.3-.4.2-.7.6-.7.9 0 .2 0 .4.1.5s.3.3.6.3.6-.1.9-.3c.2-.1.3-.2.5-.4l.4-.2c1.5-.9 5.1-3 8-3.8-1.7.9-3.6 2.1-4.6 2.8-.2.1-.4.2-.6.3-.4.3-.6.6-.6.9 0 .2 0 .4.1.5s.3.2.4.2c-.1 0-.1.1-.2.1-.2.2-.4.4-.5.6-.2.4-.1.7 0 .8.3.4.9.3 1.5-.1.2-.1.3-.3.4-.4.6-.4 1.8-1.2 3-2.1-.2.2-.5.5-.6.7l-.2.2c-.2.1-.4.2-.6.4-.3.3-.5.7-.5 1 0 .2.1.4.2.5.3.3 1 .2 1.5-.3.2-.2.3-.3.4-.5l.3-.3 1-1c-1.5 2-3.3 4-4.2 4.9l-.4.4c-.2.1-.4.2-.6.4-.3.3-.5.7-.5 1 0 .2.1.4.2.5.3.3 1 .2 1.5-.3.2-.1.3-.3.4-.5.1-.1.3-.3.5-.5 1.1-1.2 2.8-3 4.3-5-.6 1-1.2 1.9-1.6 2.5l-.3.4c-.2.1-.4.3-.6.5-.3.3-.5.7-.4 1 0 .2.1.3.2.5.4.3 1 .1 1.4-.4.1-.2.3-.3.3-.5.1-.1.2-.3.4-.5.3-.5.8-1.1 1.2-1.8-.6 2.1-1.4 3.9-1.9 5.2-.2.6-.4 1-.5 1.3-.2.2-.3.4-.4.6-.3.7-.2 1.3.3 1.5h.2c.5 0 .8-.5 1-.9.1-.2.1-.4.2-.6.1-.3.3-.9.5-1.3.7-1.5 1.7-3.9 2.3-6.7-.1 2.5-.5 4.8-.7 5.5-.1.2-.2.4-.3.6-.1.4-.1.9.1 1.1.1.2.2.3.4.3h.2c.5 0 .8-.6 1-1 .1-.3.1-.5.1-.7.2-.9.6-3.2.7-5.8.9 3.7 1.2 7.4 1.3 8.7-.1.2-.1.4-.1.6-.1.7.2 1.3.7 1.3h.1c.5 0 .8-.5.9-1.2 0-.3 0-.5-.1-.8-.1-1.8-.8-9.9-3.4-15.2l5.9-5.1c.3-.1.5-.3.8-.6.1-.1.2-.3.3-.4l6-5.2c.7-.4 1.3-.8 2-1.2-4.2 3.1-8.2 8.1-10.4 10.8l-.4.4c-.3.2-.6.4-.9.8-.4.5-.6 1.1-.6 1.5 0 .3.2.5.3.5.5.4 1.3 0 1.9-.8.2-.3.4-.5.5-.8l.5-.6c2.2-2.6 7.4-9.1 12-11.8-2.3 2.6-5.5 6.5-7 8.6-.2.2-.5.5-.6.7-.3.6-.5 1.2-.4 1.6.1.3.2.4.3.5s.3.1.4.1c.6 0 1.1-.6 1.4-1.1.2-.3.3-.7.4-1 1.1-1.5 2.9-3.9 4.7-6-1.3 2.1-3.1 4.8-5.4 7.9-.3.2-.6.5-.9.9-.6.9-.6 1.8-.1 2.1.1.1.3.1.4.1.6 0 1.1-.5 1.4-1.1.2-.3.3-.6.4-.8 1-1.4 3.2-4.5 5.1-7.5-.6 1.6-1.3 3.1-1.7 4.1l-.2.5c-.3.2-.5.6-.7 1-.3.6-.4 1.2-.2 1.6.1.3.3.4.4.5.1 0 .2.1.3.1.6 0 1.1-.7 1.4-1.3.1-.3.2-.6.3-.9.1-.2.2-.5.3-.7.6-1.4 1.5-3.5 2.3-5.6-.8 5-3.3 11-4.4 13.7-.1.3-.3.6-.4.9-.3.2-.5.5-.7.9-.3.6-.4 1.2-.2 1.6.1.3.3.4.4.5.1 0 .2.1.3.1.6 0 1.1-.7 1.4-1.2.1-.3.2-.6.3-.9.1-.2.2-.5.4-.9l.1-.3c1.3-3.2 3.8-9.2 4.6-14.3.1 3.5-.9 6.9-1.5 9-.1.3-.2.6-.2.8-.2.2-.4.6-.6 1-.1.4-.2.8-.2 1.1 0 .6.4.8.6.9h.3c.6 0 1.1-.7 1.4-1.4.1-.3.2-.6.2-1 .1-.3.2-.7.3-1.1.4-1.3.9-3.2 1.2-5.3.6 4.3.4 8.4.3 11 0 1-.1 1.7-.1 2.3-.1.3-.2.7-.2 1.1 0 .7.1 1.3.4 1.6.2.2.4.3.6.3.6 0 1.1-.7 1.1-1.8 0-.4 0-.7-.1-1 0-.6 0-1.6.1-2.4.2-3.6.4-9.1-.9-14.7 2 5 3 10.5 3.2 12-.1.3-.1.7-.1 1 0 .1 0 .3.1.4-.2.1-.3.2-.5.3s-.4.2-.5.3c-.3.3-.5.7-.6 1 0 .2 0 .4.2.5.3.3.9.3 1.5-.2.2-.2.3-.3.4-.5.1 0 .2-.1.3-.2.1 0 .2.1.4.1.4 0 .6-.3.8-.8.9-.6 2.2-1.3 3.6-2 .1.3.2.5.4.7-.8.8-1.4 1.4-1.8 1.9-.2.1-.3.3-.5.5-.4.6-.5 1.2-.1 1.5s1 0 1.4-.6c.1-.2.3-.4.3-.6.3-.3.7-.8 1.2-1.3.1.2.2.4.3.6-.7 1.1-1.3 2.2-1.8 3l-.1.1c-.1.2-.3.5-.4.7-.2.1-.4.3-.5.6-.2.4-.3.8-.2 1.1.1.2.2.3.3.4s.2.1.3.1c.4 0 .8-.4 1-.8.1-.2.2-.4.2-.5.1-.2.3-.6.5-.9.3-.5.7-1.2 1.1-1.9.2.4.4.7.7.9 0 .2.1.3.1.4.1.2.2.3.4.3h.2c.5 0 .8-.6 1-1 0-.2.1-.3.1-.5l.1-.5c.2-.8.5-1.8 1-2.9-.7 2.4-1.1 5-1.4 6.5v.3c-.1.2-.2.5-.3.7-.1.4 0 .9.2 1.1.1.1.3.2.4.3.5.1.9-.4 1-1.1 0-.2 0-.4 0-.6l.1-.5c.3-1.8 1-5.8 2.2-8.6-.4 1.9-.7 4.1-.8 5.4-.1.2-.1.4-.1.6 0 .5.1.9.3 1.1.1.1.3.2.5.2s.3-.1.4-.2v.2c0 .7.3 1.3.8 1.3s.8-.5.9-1.2c0-.2 0-.4 0-.6.1-.8.2-2.2.3-3.7 0 .3.1.6.1.8v.3c-.1.2-.1.5-.1.7.1.7.4 1.2.9 1.2.2 0 .3-.1.5-.2.2-.2.3-.7.3-1.1 0-.2-.1-.4-.1-.6v-.5c0-.4-.1-.9-.2-1.4.3 1.2.5 2.4.7 3.5-2.3 2.6-4.1 4.9-5 6.1-.2.2-.4.5-.6.8-.5.9-.5 1.8 0 2.1.1.1.2.1.4.1.6 0 1.1-.6 1.4-1.2.2-.3.3-.7.4-1 .7-.9 2-2.6 3.7-4.6 0 .2.1.4.1.6l.1.5c-.1.2-.1.5-.1.7 0 .7.4 1.2.9 1.2.2 0 .3-.1.5-.2.2-.2.3-.6.3-1.1 0-.2-.1-.4-.1-.6s-.1-.4-.1-.7c-.1-.5-.1-1.1-.2-1.8.1-.1.1-.1.2-.2.2.4.4.6.8.6h.1c.2 0 .3-.1.4-.3.2-.3.2-.7.2-1.1 0-.2-.1-.4-.2-.6.2-.2.4-.4.6-.6.3.5.6 1.1.9 1.6-.9 1.8-1.6 3.4-2 4.4-.2.2-.3.6-.4.9-.2.6-.2 1.3 0 1.6.1.3.3.4.5.4h.2c.6 0 1.1-.7 1.3-1.5.1-.4.2-.8.1-1.1.3-.6.7-1.7 1.3-2.9.1.2.2.3.2.4 0 .2.1.5.2.7.1.3.4.6.7.7-.5 1.9-.8 3.7-1 5v.3c-.1.4-.2.9-.2 1.3-.2.3-.4.7-.4 1.1-.1.7 0 1.3.2 1.6.2.2.4.3.5.3h.1c.7 0 1.1-.8 1.2-1.6.1-.3.1-.6 0-.9.1-.5.2-1 .3-1.8.5-2.6 1.2-6.6 2.7-10.7-.1 2.2 0 4.1 0 5.5v.4c-.2.3-.2.8-.2 1.3.1 1 .5 1.7 1.2 1.7.1 0 .4-.1.6-.3.3-.3.4-.9.4-1.6 0-.3-.1-.6-.2-.8 0-.2 0-.5 0-.8-.1-1.3-.2-3.1-.1-5.1l.6.3c.2 4 .9 8.1 1.3 10.6l.1.6c-.1.3-.1.8 0 1.2.2.8.6 1.6 1.2 1.6h.1c.2 0 .6-.2.7-.8.1-.3.1-.7 0-1.2-.1-.3-.2-.6-.3-.9l-.1-.8c-.6-3.4-2-11.6-1-16.8.4 3.4 1.3 8.4 1.9 10.9 0 .3 0 .6.1 1 .2.7.7 1.4 1.3 1.4h.2c.1 0 .3-.1.5-.4.2-.4.2-1 0-1.6-.1-.4-.3-.7-.5-1-.4-1.8-1-4.8-1.4-7.5.7 2.4 1.6 5.5 2.4 9.2-.1.4 0 .8.1 1.2.2.7.7 1.5 1.3 1.5h.2c.6-.2.8-1 .5-2-.1-.3-.2-.6-.4-.8-.4-1.7-1.3-5.4-2.3-8.8.8 1.5 1.5 3 1.9 3.9l.2.5c0 .3.1.8.3 1.1.3.6.8 1.3 1.4 1.3.1 0 .2 0 .3-.1s.3-.2.4-.5c.2-.4.1-1-.2-1.6-.1-.3-.3-.6-.5-.8-.1-.2-.2-.5-.3-.7-.6-1.4-1.6-3.4-2.7-5.4 3.2 3.9 6.1 9.7 7.4 12.3l.1.2c.1.2.2.5.3.6 0 .3.1.7.2 1.1.1.1.1.3.2.4-.1.4-.2.8-.3 1.1-.1.2-.1.4-.2.6-.1.7.2 1.3.7 1.4.4 0 .8-.5.9-1.2 0-.2 0-.5 0-.7 0-.1.1-.2.1-.4.1 0 .2 0 .3-.1.5-.2.7-1 .3-1.9.5-1.6 1.3-3.7 2.2-5.8-.4 2.3-.4 4.4-.4 5.4 0 .2-.1.4 0 .6.1.7.4 1.2.9 1.2s.8-.6.7-1.3c0-.2-.1-.5-.2-.7 0-.9.1-2.9.4-5 .1 2.8.6 5.2.9 7 .1.3.1.6.2.9-.1.2 0 .5 0 .8.1.7.5 1.1.9 1.1h.1c.5-.1.7-.7.5-1.4 0-.2-.1-.4-.2-.6-.1-.3-.1-.6-.2-1.1-.3-1.3-.7-3.3-.8-5.5.3.8.6 1.5.9 2l.1.2c0 .2.1.5.2.8.2.4.6.9 1 .9.1 0 .2 0 .3-.1.4-.2.5-.8.2-1.5-.1-.2-.2-.3-.3-.4l-.2-.4c0-.1-.1-.2-.1-.3h.3c.7 1.3 1.4 2.5 1.9 3.3l.2.3c0 .2.1.5.3.7.2.4.6.7 1 .7.1 0 .2 0 .3-.1.4-.3.4-.9 0-1.5-.1-.2-.3-.4-.4-.5l-.2-.4c-.9-1.5-3.1-5-4-7.9 1 1.7 2.1 3.5 2.9 4.6.1.2.2.4.3.5.5.6 1.1.8 1.4.5.1-.1.2-.3.2-.4 0 .1.1.1.1.2.4.6 1.1.8 1.4.5.4-.3.3-.9-.1-1.5-.1-.2-.3-.3-.4-.4-.4-.6-1.2-1.8-2.1-3 .2.2.4.4.6.6l.2.2c.1.2.2.4.4.6.5.5 1.2.6 1.5.3.1-.1.2-.3.2-.5 0-.3-.2-.7-.5-1-.2-.2-.4-.3-.5-.4l-.3-.3c-.3-.3-.6-.6-1-.9 2.1 1.4 4 3.2 5 4.1l.4.4c.1.2.2.4.4.6.5.5 1.2.7 1.5.3.1-.1.3-.4.1-.8-.1-.2-.2-.4-.4-.7-.2-.2-.3-.3-.5-.4-.1-.1-.3-.3-.5-.5-1.2-1.1-3.1-2.7-5.1-4.2 1 .6 1.9 1.2 2.5 1.6.1.1.3.2.4.3.1.2.3.4.5.5.6.5 1.2.5 1.5.2.1-.1.2-.3.1-.5 0-.3-.3-.7-.6-.9-.2-.1-.4-.2-.5-.3-.2-.1-.3-.2-.5-.4-.5-.3-1.1-.8-1.8-1.2 2.1.5 4 1.3 5.2 1.8.6.2 1 .4 1.3.5.2.2.4.3.6.4s.5.1.7.1c.5 0 .7-.3.8-.4 0-.1.1-.5-.2-.8-.2-.2-.4-.3-.7-.4-.2-.1-.4-.1-.6-.1-.3-.1-.9-.3-1.3-.5-1.6-.6-4-1.6-6.7-2.1 2.5.1 4.7.4 5.5.6.2.1.4.2.6.2.7.2 1.3 0 1.4-.5s-.3-.9-1.1-1.1c-.3-.1-.5-.1-.7 0-.6-.1-2-.3-3.8-.5.1-.1.1-.1.1-.2s.1-.2.1-.4c2.9-.6 5.4-.9 6.5-1 .3.5.9 1.1 1.4 1.1.1 0 .3 0 .4-.1.5-.3.5-1.2-.1-2.1-.2-.3-.5-.6-.7-.8-1.2-2.7-3.8-8.9-5.4-15.3 2.2 4 5 7.6 6.3 9.1.1.3.3.6.6.8.5.5 1 .7 1.4.7.3 0 .5-.1.6-.2.4-.4.2-1.3-.5-2-.3-.3-.6-.5-.9-.6-1.2-1.5-4.3-5.4-6.4-9.7 3.5 4.7 7.9 8.2 10.5 10.3l.2.2c.3.3.7.5 1 .8.2.3.4.7.8.9.8.6 1.7.8 2.1.3.1-.1.2-.3.2-.6-.1-.4-.4-.9-.9-1.3-.3-.2-.5-.4-.8-.5-.4-.3-.8-.7-1.4-1.1-2.1-1.6-5.2-4.2-8.1-7.4 1.8 1.2 3.6 2 4.8 2.6l.3.2c.2.3.6.6 1 .8s.8.3 1.1.3c.6 0 .9-.3.9-.5.1-.1.1-.3 0-.6-.2-.4-.6-.8-1.2-1.1-.3-.1-.5-.2-.8-.2-.2-.1-.5-.2-.7-.4-2-.9-5.2-2.5-7.8-4.8 4.4 2.8 10.5 4.8 13.8 5.9l.5.2c.3.2.6.5 1.1.6 1 .3 1.9.1 2-.5 0-.1.1-.4-.1-.6-.2-.4-.7-.7-1.3-.9-.3-.1-.6-.1-.9-.1l-.8-.3c-3.2-1.1-11.2-3.7-15.3-7 3.2 1.2 8 2.9 10.5 3.5.3.2.6.3.9.3 1.1.2 1.9-.1 2-.7 0-.1 0-.4-.1-.6-.2-.4-.8-.6-1.4-.8-.4-.1-.8-.1-1.1 0-1.8-.5-4.6-1.4-7.3-2.3 2.5.5 5.6 1.2 9.3 2.2.3.2.7.4 1.1.5 1 .2 1.9-.1 2-.7 0-.1 0-.4-.1-.6-.2-.4-.8-.7-1.4-.8-.3-.1-.7-.1-.9-.1-1.7-.5-5.3-1.4-8.8-2.2 1.8 0 3.5.1 4.4.2h.6c.3.2.7.3 1.1.3 1.1.1 1.8-.3 1.9-.9 0-.1 0-.4-.2-.6-.3-.3-.9-.5-1.5-.6-.3 0-.7 0-1 .1-.2 0-.5 0-.8 0-1.3-.1-3-.2-4.8-.2-.4 0-.9 0-1.3 0 2.6-.5 6-.8 10.1-.8 1.7 0 3.3 0 4.3.1h.9c.3.2.7.3 1.1.3 1.1.1 1.8-.3 1.9-.9-.2.6-.3.3-.8-.1m-35.6-16.2 2.3-.5c-1.1.7-2.7 2-4.2 3.4.6-1 1.3-2 1.9-2.9m-2 .4c-1.6 2.4-3.2 5.2-4.1 7.8l-14.7-1c-.2-.1-.3-.2-.5-.4-.4-.5-.6-1.2-.7-2zm4.1 19.8c-.2-.2-.4-.3-.6-.4-.2-.2-.4-.4-.7-.8l2.1.5c.4.3.8.5 1.1.8.3.2.6.4.8.6.1.2.3.4.6.6h.1c-.6.1-1.4.2-2.6.4.1-.6-.3-1.3-.8-1.7m-19.5-8.6c-1.5-.5-2.2-.9-2.4-1.4-.1-.3 0-.5.1-.9l13.3.9c.2 1.6.6 3.3 1.1 5l-13.2-2.8c.4-.4.8-.6 1.1-.8.1.1.1.1 0 0 .1 0 .1 0 0 0m-.6 4.5c.2 0 .5.1.7.2v-.1c-.8-.4-1.2-.9-1.5-1.3l14.5 3.1c.7 1.8 1.5 3.5 2.1 4.9-3.3.8-6.9 2-9.8 3.6l-8.2-8.4v-.1c.4-.9 1.2-1.9 2.2-1.9m-6.3-34.5-3.5 6.4 1.5-8.7c.6.9 1.3 1.6 2 2.3m-3.6-22.5c.2-.2.4-.5.5-.8s.2-.6.3-.9c.8.5 1.6.9 2.3 1.3l-.5 3h-.1c-.5 0-.9.6-.9 1.4 0 .3 0 .5.1.8 0 .4 0 1.1-.1 1.7 0 .8-.1 1.6-.1 2.6l-.6 3.5c-.5-1.9-.7-3.5-.8-4.1.1-.2.1-.5 0-.8-.1-.8-.5-1.3-1-1.3-.5.1-.8.7-.7 1.5 0 .3.1.6.2.8.1.9.7 4 1.7 7.3v.1c-2.4-3.6-4.3-7.4-5.1-9.3 2.2-3 3.9-5.5 4.8-6.8m-15 17.7 5.7 19-7.4-17.7c.5-.3 1.1-.8 1.7-1.3m-4 23.8c-.2-.2-.5-.3-.7-.4l-21.5-21.9c3.5.6 8.6 1.3 13.8 1.4l11.5 18.8c-.9 0-1.8-.6-2.8-1.7.2 1.5.3 3.2-.3 3.8m-5.9 3.3-21.7-18.9c1.2-2 2.1-4.4 2.8-6.7l22.8 23.2v.1c-.3.3-.8.5-1.6.5-.6 0-1.5-.1-2.4-.3v.1c.2.6.3 1.3.1 2m-2.8 9.1c.3 0 .5-.1.8-.1h.6l-16.6 4.7c1.3-3 2.4-6.3 3-9.3l13 .9c.2.5.3 1 .3 1.6 0 .8-.4 1.6-1.1 2.2 0-.1 0-.1 0 0 0-.1 0 0 0 0m.6-6.2-12.9-.8c-.2-.7-.4-1.4-.7-2.1l14.7 2.2c-.4.2-.8.5-1.1.7m2-27.1c2.2-.1 4.2-.2 5.9-.5l7.6 18.2c-.2.1-.4.1-.6.1-.6 0-1.2-.3-1.5-.8v.1c0 .2-.1.6-.3.9zm-4.7-26.5c2.6.6 5.5 1.1 8 1l2.5 8.4c.8 3.6 1.4 8 1.1 11.2-.7-3.4-1.9-8.3-2.7-10.7 0-.3-.1-.6-.2-1-.2-.6-.8-1.3-1.4-1.3-.1 0-.2 0-.3.1s-.3.2-.4.4c-.2.4-.1 1 .1 1.6.2.4.4.7.6.9.5 1.7 1.3 4.7 2 7.4-.9-2.3-2-5.3-3.2-9 0-.4 0-.8-.2-1.2-.2-.6-.7-1.4-1.4-1.4-.1 0-.2 0-.3 0-.6.2-.7 1.1-.4 2.1.1.3.3.6.5.8.5 1.7 1.7 5.3 3 8.6-.9-1.5-1.7-2.9-2.2-3.8l-.3-.5c0-.3-.2-.7-.4-1.1-.3-.6-.8-1.2-1.4-1.2-.1 0-.3 0-.4.1s-.3.2-.4.5c-.1.4 0 1 .3 1.6.2.3.4.6.6.8.1.2.3.4.4.7.8 1.3 1.9 3.3 3.2 5.2-3.5-3.6-6.8-9-8.4-11.7l-.5-.8c0-.3-.1-.7-.3-1.1-.3-.5-.8-1.2-1.4-1.2 1.5-1.7 2.8-3.6 3.9-5.4m-3.7-4.4c.2.1.3.2.5.3-.1.2-.1.4-.2.6 0 .2 0 .5.1.7 0 .1-.1.2-.1.4-.3-.1-.6-.2-.9-.3 0-.9 0-1.6 0-2.3v-.1c.1.3.3.5.6.7m-.9 10.9c0 .4.1.8.3 1.2.2.3.4.6.6.8.2.3.4.6.6.9l.1.1c1.8 3 5.1 8.5 8.8 12.2-2.9-2-5-4.8-6.4-6.6-.2-.2-.4-.5-.5-.6-.1-.3-.2-.7-.4-1-.3-.5-.9-1-1.5-1-.2 0-.3 0-.4.1-.1 0-.1.1-.2.2l-2.7-4.4c.5-.6 1.1-1.3 1.7-1.9m-14.5 10.7c0-.1 0-.2-.1-.3-.2-.5-.5-1-1-1 0 0-.1 0-.2 0l-.6-.6c1-1.5 1.9-3.2 2.7-5h.6c3.9 0 7.1-.4 9.6-1.1l5 8.1c-1.7-1.2-3.2-2.4-4.4-3.4-.8-.7-1.4-1.1-1.8-1.4-.2-.3-.4-.6-.7-.9-.8-.6-1.7-.8-2.1-.3-.1.1-.2.3-.2.6 0 .4.4.9.9 1.4.3.2.6.4.9.5.4.3 1.2.9 1.9 1.5 1.8 1.4 4.4 3.6 7.6 5.5l.8 1.3c-3.6-1.3-6.7-2.8-7.7-3.3-.2-.2-.5-.5-.8-.7-.4-.3-.9-.4-1.3-.4-.5 0-.7.2-.8.4-.3.5.1 1.3 1 1.8.4.2.7.3 1.1.4 1.1.6 5.2 2.6 9.9 4.1l.2.2c-6.1-.2-12-1.2-14.8-1.8.7-2.6 1-4.8 1.2-5.8.1-.2.1-.4.1-.7 0-.4-.1-.9-.3-1.1-.1-.1-.3-.2-.5-.2-.5 0-.8.5-.8 1.3 0 .2 0 .5.1.7-.2 1-.5 2.7-.9 4.7l-1.2-1.2c0-.2 0-.4-.1-.6 0-.2 0-.4 0-.6-.1-.5-.4-1.1-.9-1.1h-.1c-.3.1-.4.3-.5.6zm-.9 17.2c.7-.4 1.3-.7 1.9-1.1l19.9 17.3-13.5-2c-2.4-5.7-6.1-11.2-8.3-14.2m-20.4 23.1c-.1-.2-.3-.3-.5-.4-.1-.1-.2-.1-.2-.1 2.2-2.5 5.2-6.2 6.8-9.8l3 .4c-.5.1-.9.4-.9.8 0 .1 0 .3.2.6.3.3.8.5 1.4.6.3 0 .6 0 .8-.1l.7.1c3 .3 10.2 1 14.5 3-3.1-.4-7.3-.9-9.6-.9-.2-.1-.5-.1-.8-.1h-.1c-.6 0-1.1.2-1.4.5-.2.2-.2.4-.2.5 0 .6.7.9 1.6.9h.1c.4 0 .7-.1 1-.2 1.3.1 3.8.3 6.1.5-2.1 0-4.8 0-7.9-.1-.3-.1-.7-.2-1.1-.2-.6 0-1.1.2-1.4.5-.2.2-.2.4-.2.5 0 .6.7 1 1.7 1 .3 0 .6 0 .8-.1 1.3.1 3.8.2 6.3.2h1.3c-1.4.3-2.6.5-3.4.6l-.5.1c-.3-.1-.7-.1-1.1 0-.6.1-1.1.3-1.3.7-.2.2-.2.4-.1.6.1.6.8.9 1.8.7.3 0 .6-.1.8-.3.2 0 .4-.1.7-.1 1.2-.2 3-.5 4.8-.9-4.1 1.7-9.5 2.8-11.9 3.2l-.8.2c-.3-.1-.7-.1-1-.1-.6.1-1.1.3-1.4.6-.2.2-.2.4-.2.6.1.6.8.9 1.8.8.3 0 .6-.1.8-.2.3-.1.7-.1 1.1-.2 3-.6 8.3-1.6 12.5-3.4-2.5 1.6-5.3 2.5-7 3-.3.1-.5.2-.7.2-.3-.1-.7 0-1 .1-.6.1-1.1.4-1.3.8-.1.2-.1.4-.1.6.1.6 1 .8 1.8.6.3-.1.6-.2.8-.3l.9-.3c1.1-.4 2.7-.8 4.3-1.6-2.8 2.4-5.8 4.2-7.9 5.5-.8.5-1.3.8-1.7 1.1-.3 0-.6.2-.9.4-.5.3-.8.6-.9 1l-1.1.3c-2.5-5.7-8.1-10.9-9.8-12.4m20.9 26c-.5.3-.9.6-1.3.8-.4 0-.8.2-1.1.4-.6.3-1 .8-1.1 1.2-.1.3 0 .5.1.6s.3.4.8.4c.4 0 .9-.2 1.3-.4.3-.2.5-.4.7-.6.4-.2.9-.5 1.6-.9 2.2-1.3 5.7-3.4 9.7-4.9l-.7.6c-.8.6-1.4 1.2-2 1.8l-1.8 1.6c-.3.1-.6.3-.8.6-.2.2-.3.3-.4.5l-6 5.2c-3.6-2.8-9-4.9-12.1-6 1.1-3.1 2.7-8.6 2.7-13.2l7.1-2c-.5.5-.6 1.1-.3 1.5.4.4 1.2.3 1.9-.3.3-.2.5-.5.7-.8l1.5-1.5 2.9-.8c-1.2 2.5-2.4 4.6-3.3 6.2-2.1 0-3.8.1-4.7.2-.3 0-.6 0-1 .1-1 .2-1.7.8-1.5 1.4.1.6 1 .9 2 .7.4-.1.7-.2 1-.4.7 0 1.7-.1 3.1-.1-.2.1-.4.3-.6.5-.4.5-.6 1-.6 1.4 0 .3.1.4.3.5.1.1.3.2.5.2.4 0 .9-.3 1.3-.8.3-.3.4-.6.5-.9.1-.2.3-.5.6-.9h1c3.7 0 7.1.2 10.1.6-4.5.6-8.8 1.9-10.8 2.6-.3 0-.6.1-1 .3-.6.3-1.1.7-1.2 1.1-.1.3-.1.5 0 .6.1.2.3.5.9.5.3 0 .7-.1 1.1-.3s.7-.4.9-.6c2.1-.7 6.7-2.1 11.4-2.6-5.7 1.3-10.5 4.2-13.4 5.9m16.7-8.7c-5.1-1.1-10.7-1.3-14.9-1.3 1-1.7 2.3-4.1 3.5-6.8l19.9-5.6s0 .1.1.1c.3.7.3 1.4 0 1.9.8.1 1.7.3 2.4.6l-1.8 3zm3.8 1c-.5-.2-1-.3-1.6-.5l3.8-3.3zm9.4 20.7c-.1-.2-.1-.4-.2-.6-.2-1.3-1.1-6.4-2.9-11.3 2.5 3.5 4.6 7.3 6.1 10.2-1.1.6-2.1 1.2-3 1.7m4.5-2.5c-2.5-4.9-6.8-12.2-11.7-16.9l6.3-10.5 1.2-1.1c.5.6.7 1.3.6 2.1.4-.3 1-.5 1.6-.5 1.4 0 2.8.9 2.9 3.5.4-.6 1-.9 1.6-.9 1.2 0 2.7 1 3.7 2.3l.7 19.3c-2.1.6-4.6 1.6-6.9 2.7m7.7-50.9-6.3-20.8c2.8-2.5 5.4-5.5 7.6-8.2 1.1 2.3 3.2 6.4 5.8 10.1l-2.7 15.8-3 5.4c-.2 0-.4-.1-.6-.2-.2-1-.5-1.7-.8-2.1m15.3 47.4c-2 1.3-3.9 2.8-5.7 4.5-2.5-1.4-5.5-2.8-8.2-3.5l-.7-18.1c.9-1 2-1.6 3-1.6.9 0 1.5.5 1.9 1.5 0-.2.2-.5.5-.8.7-.7 2.1-1.5 3.3-1.5l6.4 17.5c-.2.7-.4 1.5-.5 2m1.8-6.1-5.1-14.1c0-.2.1-.4.1-.6l7.6 8.4c-1 2.1-1.9 4.3-2.6 6.3m-4-16.4c.4-.3.9-.5 1.5-.5l7.2 7.3c-.4.5-.7 1.1-1 1.6zm11.2 18c0 .1.1.1.1.2 0 .3.1.6.3.9.2.4.7.9 1.1.9.1 0 .2 0 .3-.1.5-.2.5-.9.1-1.7-.1-.2-.2-.4-.3-.5l-.3-.5c-.2-.4-.4-.9-.7-1.4l1.1 1.2c.9 1.4 1.7 2.7 2.3 3.6l.2.3c0 .1.1.2.1.3-1.5-.2-3.1-.3-4.7-.4-.4-1.6-.8-3.6-1-5.7.5 1.3 1 2.2 1.4 2.9m7.5 5.5 2.3 2.5c-1.9-1-4.3-2.2-6.9-3.2 1.5.2 3.1.5 4.6.7m-.4 15.4c-.1-.1-.1-.2-.2-.3l-.1-.1c-1.6-3.1-4.4-8.9-7.8-12.8 2.7 2.2 4.6 5.2 5.8 7 .2.3.3.5.5.7 0 .3.2.7.4 1.1.3.6.9 1.2 1.4 1.2.1 0 .3 0 .4-.1.5-.3.6-1.2 0-2.1-.2-.3-.4-.6-.6-.8-.2-.3-.4-.6-.6-.9-.7-1.1-1.8-2.8-3.2-4.4 2.6 1.7 4.8 3.6 6.6 5.2-1 2.2-1.9 4.4-2.6 6.3m3.5-7.9c-2.4-2.2-5.7-4.8-9.5-6.9 4.5 1.5 8.8 4 10.7 5.1-.4.6-.8 1.2-1.2 1.8m3-3.5-3.1-3.4c3 .6 5.6 1.3 7.3 1.7-1.4.5-2.9 1-4.2 1.7m14.6-3.7c-1.3.1-4 .5-7 1.1-.1 0-.1-.1-.2-.1-.4-.2-.7-.3-1.1-.3-1.8-.5-6.1-1.7-11.2-2.6l-6.7-7.4c-.8-1.5-1.6-3-2-4.5 1.3 2 3 4.5 4 5.8.1.2.2.4.4.6.5.6 1.3.8 1.6.5.1-.1.2-.2.2-.5 0-.1 0-.2 0-.3.1.2.2.3.3.5.5.6 1.2.8 1.6.5s.3-1-.2-1.7c-.2-.2-.3-.3-.5-.5-.6-.8-1.8-2.4-3.2-4.1.6.5 1.1.9 1.4 1.2l.3.3c.1.2.3.5.5.7.6.5 1.3.6 1.6.3.1-.1.2-.3.2-.5 0-.3-.3-.8-.7-1.1-.2-.2-.4-.3-.6-.4l-.4-.4c-.6-.5-1.3-1.1-2.1-1.8 2.8 1.7 5.7 4 7.1 5.1l.5.4c.1.2.3.5.5.7.6.5 1.3.7 1.6.3.1-.1.3-.4.1-.9-.1-.2-.3-.5-.5-.7s-.4-.3-.6-.4-.4-.3-.7-.5c-1.7-1.4-4.5-3.7-7.4-5.3 1.8.7 3.3 1.7 4.3 2.3.2.1.3.2.5.3.1.2.3.4.6.6.6.5 1.4.5 1.7.1.1-.1.2-.3.1-.5-.1-.3-.3-.7-.7-1-.2-.2-.4-.3-.6-.3-.2-.1-.3-.2-.5-.3l-.1-.1c-.6-.4-1.6-1-2.7-1.6 2.7.5 5.1 1.3 6.8 1.9.7.2 1.2.4 1.5.5.2.2.4.3.7.4s.5.1.7.1c.6 0 .8-.4.9-.5 0-.1.1-.3 0-.5-.1-.3-.5-.6-1-.8-.2-.1-.5-.1-.7-.1-.4-.1-1-.3-1.6-.5-2.1-.7-5.3-1.8-8.9-2.3h1.6c1.5 0 2.8.1 3.9.2.1.1.3.1.4.1s.2 0 .3-.1c.5.1 1 .1 1.3.1.2.1.4.2.7.3.8.2 1.5-.1 1.6-.6s-.4-1-1.2-1.1c-.3-.1-.6-.1-.9 0-.3 0-.8-.1-1.4-.2 0 0-.1-.1-.1-.1-.2-.2-.3-.4-.5-.5-.1-.2-.3-.5-.5-.9 2.6-.6 4.8-.9 5.8-1 .2.1.5.1.8.1.8 0 1.4-.3 1.4-.9 0-.1 0-.3-.2-.5s-.4-.3-.8-.4c.1-.2.1-.4-.1-.7-.1-.1-.1-.2-.2-.3l3.9.8c0 9.1 4.6 20.1 6.4 24m-6.4-26.4-9.7-2c-.5-.4-.9-.8-1.4-1.2.9.4 1.7.7 2.4 1l.2.1c.2.2.4.4.8.5.2.1.5.1.7.1.6 0 .8-.3.8-.5.1-.2.1-.3 0-.5-.1-.3-.5-.6-.9-.7-.2-.1-.4-.1-.5-.1l-.5-.2c-.8-.3-2.2-.8-3.5-1.6 2.6 1.1 5.6 1.8 7.3 2.3l.3.1c.2.2.5.3.8.3.7.2 1.4 0 1.5-.5s-.3-.9-1.1-1.1c-.2 0-.4-.1-.6-.1l-.5-.1c-1.9-.5-6.4-1.6-9.3-3.3 2 .6 4.5 1.2 5.9 1.5.2.1.4.2.7.2.8.1 1.4-.2 1.4-.7 0-.2 0-.4-.1-.5 0 0 0 0-.1-.1.1 0 .2 0 .3.1.8.1 1.4-.2 1.4-.7.1-.5-.4-.9-1.2-1-.2 0-.4 0-.6 0-.9-.2-2.5-.5-4.2-.8h1.3.3c.2.1.5.1.8.1.5 0 .9-.1 1.1-.4.1-.1.2-.3.2-.5 0-.5-.5-.8-1.3-.8-.2 0-.5 0-.6.1h-.5c-.5 0-1.2 0-2 .1 2.8-.5 5.9-.6 7.4-.7h.6c.2.1.5.1.8.2.8 0 1.3-.3 1.3-.8s-.5-.9-1.4-.9c-.2 0-.4 0-.6.1-.2 0-.5 0-.8 0-1.8.1-4.9.2-7.7.7 1.4-.4 2.8-.7 3.8-.8.2 0 .4-.1.5-.1.2.1.5.1.8.1.5 0 .9-.2 1.1-.5.1-.1.2-.3.2-.5 0-.5-.6-.8-1.4-.7-.2 0-.5.1-.6.2-.2 0-.4.1-.6.1h-.1c-.6.1-1.5.2-2.5.5 2.1-1.2 4.2-2.1 5.6-2.6.6-.2 1-.4 1.3-.6.2 0 .5-.1.7-.2.4-.2.8-.5.9-.8.1-.2.1-.4 0-.5s-.2-.4-.8-.4c-.2 0-.5.1-.8.2-.2.1-.4.2-.6.4-.3.2-.9.4-1.4.6-1.7.7-4.4 1.8-7.1 3.6 2.1-2 4.3-3.5 5-4 .2 0 .4-.1.6-.3.4-.2.7-.6.8-.9v-.1l13.6-3c.9 2 2.2 4.1 3.6 6-3.9 3.9-9.2 10.4-11.8 16.6m12.6-15.4c.7.9 1.4 1.7 2.1 2.5-1.6.9-5.5 3.3-9.1 6.5 2.3-3.5 4.9-6.6 7-9m3.3 3.7c.5.5.9 1 1.2 1.3.1.2.3.3.4.4h.1c-3.3 1.1-7.6 2.8-11.7 5.4 3.8-3.4 8.5-6.2 10-7.1z"/></g></svg>